G04*
G04 #@! TF.GenerationSoftware,Altium Limited,Altium Designer,18.1.9 (240)*
G04*
G04 Layer_Color=16711935*
%FSLAX25Y25*%
%MOIN*%
G70*
G01*
G75*
%ADD17C,0.00039*%
%ADD35C,0.11811*%
%ADD53C,0.14186*%
%ADD54C,0.06800*%
%ADD55C,0.05918*%
%ADD56C,0.06000*%
%ADD57C,0.03556*%
%ADD71C,0.05906*%
D17*
X39370Y39370D02*
Y236221D01*
Y39370D02*
X433071D01*
Y236221D01*
X39370D02*
X433071D01*
D35*
X39370Y230200D02*
Y236221D01*
Y39370D02*
Y150700D01*
Y236221D02*
X433071D01*
Y39370D02*
Y236221D01*
X39370Y39370D02*
X433071D01*
D53*
X152700Y61800D02*
D03*
X351200Y199000D02*
D03*
D54*
X48300Y158800D02*
D03*
X58300D02*
D03*
X48300Y168800D02*
D03*
X58300D02*
D03*
X48300Y178800D02*
D03*
X58300D02*
D03*
X48300Y188800D02*
D03*
X58300D02*
D03*
X48300Y198800D02*
D03*
X58300D02*
D03*
X48300Y208800D02*
D03*
X58300D02*
D03*
X48300Y218800D02*
D03*
X58300D02*
D03*
D55*
X396850Y101969D02*
D03*
Y82284D02*
D03*
D56*
X387400Y158400D02*
D03*
X397400D02*
D03*
X387400Y168400D02*
D03*
X397400D02*
D03*
X387400Y178400D02*
D03*
X397400D02*
D03*
X387400Y188400D02*
D03*
X397400D02*
D03*
X387400Y198400D02*
D03*
X397400D02*
D03*
X387400Y208400D02*
D03*
X397400D02*
D03*
X387400Y218400D02*
D03*
X397400D02*
D03*
D57*
X265453Y57087D02*
D03*
X281791D02*
D03*
D71*
X39370Y150700D02*
Y230200D01*
M02*
