G04*
G04 #@! TF.GenerationSoftware,Altium Limited,Altium Designer,18.1.9 (240)*
G04*
G04 Layer_Physical_Order=1*
G04 Layer_Color=255*
%FSLAX25Y25*%
%MOIN*%
G70*
G01*
G75*
%ADD17C,0.00039*%
%ADD18R,0.04331X0.11811*%
%ADD19R,0.11811X0.04331*%
G04:AMPARAMS|DCode=20|XSize=23.62mil|YSize=19.68mil|CornerRadius=1.48mil|HoleSize=0mil|Usage=FLASHONLY|Rotation=180.000|XOffset=0mil|YOffset=0mil|HoleType=Round|Shape=RoundedRectangle|*
%AMROUNDEDRECTD20*
21,1,0.02362,0.01673,0,0,180.0*
21,1,0.02067,0.01968,0,0,180.0*
1,1,0.00295,-0.01034,0.00837*
1,1,0.00295,0.01034,0.00837*
1,1,0.00295,0.01034,-0.00837*
1,1,0.00295,-0.01034,-0.00837*
%
%ADD20ROUNDEDRECTD20*%
%ADD21R,0.03150X0.03150*%
%ADD22R,0.03300X0.03300*%
%ADD23R,0.05000X0.12000*%
%ADD24R,0.01800X0.11800*%
%ADD25R,0.05000X0.14500*%
%ADD26R,0.01772X0.01181*%
G04:AMPARAMS|DCode=27|XSize=23.62mil|YSize=19.68mil|CornerRadius=1.48mil|HoleSize=0mil|Usage=FLASHONLY|Rotation=90.000|XOffset=0mil|YOffset=0mil|HoleType=Round|Shape=RoundedRectangle|*
%AMROUNDEDRECTD27*
21,1,0.02362,0.01673,0,0,90.0*
21,1,0.02067,0.01968,0,0,90.0*
1,1,0.00295,0.00837,0.01034*
1,1,0.00295,0.00837,-0.01034*
1,1,0.00295,-0.00837,-0.01034*
1,1,0.00295,-0.00837,0.01034*
%
%ADD27ROUNDEDRECTD27*%
%ADD28R,0.03300X0.03300*%
%ADD29R,0.03150X0.03150*%
%ADD30R,0.11024X0.03543*%
%ADD31R,0.19685X0.09843*%
%ADD32R,0.07087X0.07480*%
%ADD33R,0.01575X0.05315*%
%ADD34R,0.12000X0.05000*%
%ADD56C,0.06000*%
%ADD58C,0.01201*%
%ADD59C,0.01200*%
%ADD60C,0.02500*%
%ADD61C,0.05000*%
%ADD62C,0.03000*%
%ADD63C,0.01500*%
%ADD64C,0.02000*%
%ADD65C,0.13386*%
%ADD66C,0.05118*%
%ADD67C,0.05200*%
%ADD68C,0.02756*%
%ADD69C,0.03150*%
%ADD70C,0.05000*%
G36*
X84906Y214200D02*
X85081Y213322D01*
X85578Y212578D01*
X97978Y200178D01*
X98722Y199680D01*
X99600Y199506D01*
X109450D01*
X110866Y198089D01*
X110484Y197165D01*
X99724D01*
Y190835D01*
X113535D01*
Y194114D01*
X114459Y194496D01*
X120878Y188078D01*
X121622Y187581D01*
X122500Y187406D01*
X127564D01*
X128465Y187165D01*
Y185631D01*
X128000D01*
X127376Y185507D01*
X126847Y185153D01*
X122324Y180631D01*
X114451D01*
X113535Y180835D01*
Y187165D01*
X99724D01*
Y185576D01*
X99376Y185507D01*
X98847Y185153D01*
X86884Y173191D01*
X86229Y173347D01*
X85884Y173578D01*
Y179590D01*
X86007Y179776D01*
X86132Y180400D01*
X86007Y181024D01*
X85654Y181554D01*
X85654Y181554D01*
X72254Y194954D01*
X71724Y195308D01*
X71100Y195432D01*
X62018D01*
X61525Y196432D01*
X61794Y196783D01*
X62197Y197756D01*
X62269Y198300D01*
X58300D01*
X54331D01*
X54403Y197756D01*
X54806Y196783D01*
X55075Y196432D01*
X54582Y195432D01*
X53300D01*
X52676Y195308D01*
X52146Y194954D01*
X49730Y192537D01*
X49344Y192697D01*
X48300Y192834D01*
X47256Y192697D01*
X46549Y192404D01*
X45549Y192867D01*
Y194733D01*
X46549Y195196D01*
X47256Y194903D01*
X47800Y194831D01*
Y198800D01*
Y202769D01*
X47256Y202697D01*
X46549Y202404D01*
X45549Y202867D01*
Y204733D01*
X46549Y205196D01*
X47256Y204903D01*
X48300Y204766D01*
X49344Y204903D01*
X50317Y205306D01*
X51153Y205947D01*
X51794Y206783D01*
X52197Y207756D01*
X52334Y208800D01*
X52197Y209844D01*
X51794Y210817D01*
X51153Y211653D01*
X50317Y212294D01*
X49344Y212697D01*
X48300Y212835D01*
X47256Y212697D01*
X46549Y212404D01*
X45549Y212867D01*
Y214733D01*
X46549Y215196D01*
X47256Y214903D01*
X48300Y214766D01*
X49344Y214903D01*
X50317Y215306D01*
X51153Y215947D01*
X51794Y216783D01*
X52197Y217756D01*
X52334Y218800D01*
X52197Y219844D01*
X51979Y220370D01*
X52548Y221370D01*
X54052D01*
X54621Y220370D01*
X54403Y219844D01*
X54265Y218800D01*
X54403Y217756D01*
X54806Y216783D01*
X55447Y215947D01*
X56283Y215306D01*
X57256Y214903D01*
X58300Y214766D01*
X59344Y214903D01*
X60317Y215306D01*
X61153Y215947D01*
X61794Y216783D01*
X62197Y217756D01*
X62335Y218800D01*
X62197Y219844D01*
X61979Y220370D01*
X62548Y221370D01*
X84906D01*
Y214200D01*
D02*
G37*
G36*
X433071Y236220D02*
Y39370D01*
X297378D01*
Y45240D01*
X404429D01*
X404819Y45318D01*
X405150Y45539D01*
X405371Y45870D01*
X405449Y46260D01*
Y129643D01*
X405371Y130033D01*
X405150Y130364D01*
X404819Y130585D01*
X404622Y130666D01*
X404232Y130744D01*
X376575D01*
X376185Y130666D01*
X375854Y130445D01*
X375633Y130115D01*
X375555Y129724D01*
Y112500D01*
X375633Y112110D01*
X375854Y111779D01*
X376346Y111287D01*
X376677Y111066D01*
X377067Y110988D01*
X377457Y111066D01*
X377636Y111185D01*
X397012D01*
Y105700D01*
X396850Y105558D01*
X395921Y105436D01*
X395056Y105077D01*
X394312Y104507D01*
X393002Y104442D01*
X389917Y107528D01*
X389172Y108025D01*
X388295Y108200D01*
X388205D01*
Y108677D01*
X375181D01*
Y103134D01*
X387822D01*
X389325Y101630D01*
X389362Y101250D01*
X388820Y100760D01*
X388524Y100607D01*
X387900Y100731D01*
X371421D01*
X362554Y109599D01*
X362024Y109953D01*
X361400Y110077D01*
X359780D01*
Y114047D01*
X360024Y114637D01*
X360144Y115551D01*
X360024Y116465D01*
X359780Y117055D01*
Y122457D01*
X353449D01*
Y119081D01*
X351130D01*
Y153700D01*
X351010Y154614D01*
X350657Y155465D01*
X350096Y156196D01*
X345496Y160796D01*
X344765Y161357D01*
X343914Y161710D01*
X343000Y161830D01*
X303600D01*
X302686Y161710D01*
X301835Y161357D01*
X301104Y160796D01*
X297257Y156949D01*
X296457Y157535D01*
X296810Y158386D01*
X296930Y159300D01*
X296810Y160214D01*
X296457Y161065D01*
X295896Y161796D01*
X295694Y161951D01*
Y221070D01*
X383650D01*
X383992Y220587D01*
X384195Y220070D01*
X383893Y219340D01*
X383769Y218400D01*
X383893Y217460D01*
X384255Y216584D01*
X384833Y215832D01*
X385584Y215255D01*
X386460Y214893D01*
X387400Y214769D01*
X388340Y214893D01*
X389215Y215255D01*
X389967Y215832D01*
X390545Y216584D01*
X390907Y217460D01*
X391031Y218400D01*
X390907Y219340D01*
X390605Y220070D01*
X390808Y220587D01*
X391150Y221070D01*
X393650D01*
X393992Y220587D01*
X394195Y220070D01*
X393893Y219340D01*
X393769Y218400D01*
X393893Y217460D01*
X394255Y216584D01*
X394832Y215832D01*
X395585Y215255D01*
X396460Y214893D01*
X397400Y214769D01*
X398340Y214893D01*
X399216Y215255D01*
X399968Y215832D01*
X400545Y216584D01*
X400907Y217460D01*
X401031Y218400D01*
X400907Y219340D01*
X400605Y220070D01*
X400808Y220587D01*
X401150Y221070D01*
X404638D01*
X404970Y220738D01*
Y163668D01*
X399138D01*
X398224Y163548D01*
X397373Y163195D01*
X396642Y162634D01*
X395445Y161438D01*
X394832Y160968D01*
X394362Y160354D01*
X391984Y157976D01*
X391129Y158357D01*
X391027Y158433D01*
X390907Y159340D01*
X390545Y160215D01*
X389967Y160968D01*
X389215Y161545D01*
X388340Y161907D01*
X387900Y161965D01*
Y158400D01*
X387400D01*
Y157900D01*
X383835D01*
X383893Y157460D01*
X384255Y156585D01*
X384833Y155832D01*
X385226Y155530D01*
X384887Y154530D01*
X378000D01*
X377086Y154410D01*
X376235Y154057D01*
X375504Y153496D01*
X366004Y143996D01*
X365443Y143265D01*
X365090Y142414D01*
X364970Y141500D01*
Y139493D01*
X360144D01*
Y144291D01*
X360024Y145205D01*
X359780Y145796D01*
Y151197D01*
X353449D01*
Y145796D01*
X353204Y145205D01*
X353084Y144291D01*
Y135963D01*
X353204Y135049D01*
X353557Y134197D01*
X354118Y133466D01*
X354849Y132905D01*
X355700Y132553D01*
X356614Y132432D01*
X364970D01*
Y127437D01*
X365090Y126523D01*
X365443Y125672D01*
X366004Y124941D01*
X366735Y124380D01*
X367586Y124027D01*
X368500Y123907D01*
X369414Y124027D01*
X370265Y124380D01*
X370996Y124941D01*
X371557Y125672D01*
X371910Y126523D01*
X372030Y127437D01*
Y136221D01*
Y140038D01*
X379462Y147470D01*
X390000D01*
X390914Y147590D01*
X391765Y147943D01*
X392496Y148504D01*
X399355Y155362D01*
X399968Y155832D01*
X400438Y156446D01*
X400600Y156608D01*
X408500D01*
X409414Y156728D01*
X410265Y157081D01*
X410996Y157642D01*
X411557Y158373D01*
X411910Y159224D01*
X412030Y160138D01*
Y222200D01*
X411910Y223114D01*
X411557Y223965D01*
X410996Y224696D01*
X408596Y227096D01*
X407865Y227657D01*
X407014Y228010D01*
X406100Y228130D01*
X88547D01*
X88114Y228310D01*
X87200Y228430D01*
X45773D01*
X44860Y228310D01*
X44008Y227957D01*
X43277Y227396D01*
X42716Y226665D01*
X42363Y225814D01*
X42254Y224986D01*
X41198Y223929D01*
X40645Y223102D01*
X40451Y222127D01*
Y164100D01*
X40645Y163125D01*
X41198Y162298D01*
X44315Y159180D01*
X44265Y158800D01*
X44403Y157756D01*
X44806Y156783D01*
X45447Y155947D01*
X46283Y155306D01*
X47256Y154903D01*
X48300Y154765D01*
X49344Y154903D01*
X50317Y155306D01*
X51153Y155947D01*
X51794Y156783D01*
X52197Y157756D01*
X52334Y158800D01*
X52197Y159844D01*
X51794Y160817D01*
X51153Y161653D01*
X50317Y162294D01*
X49344Y162697D01*
X48300Y162835D01*
X47920Y162785D01*
X46622Y164083D01*
X47188Y164931D01*
X47256Y164903D01*
X48300Y164766D01*
X49344Y164903D01*
X50317Y165306D01*
X51153Y165947D01*
X51794Y166783D01*
X52197Y167756D01*
X52334Y168800D01*
X52197Y169844D01*
X51794Y170817D01*
X51153Y171653D01*
X50317Y172294D01*
X49344Y172697D01*
X48300Y172835D01*
X47256Y172697D01*
X46549Y172404D01*
X45549Y172867D01*
Y174733D01*
X46549Y175196D01*
X47256Y174903D01*
X48300Y174766D01*
X49344Y174903D01*
X50317Y175306D01*
X51153Y175947D01*
X51794Y176783D01*
X52197Y177756D01*
X52334Y178800D01*
X52197Y179844D01*
X51794Y180817D01*
X51153Y181653D01*
X50317Y182294D01*
X49344Y182697D01*
X48300Y182834D01*
X47256Y182697D01*
X46549Y182404D01*
X45549Y182867D01*
Y184733D01*
X46549Y185196D01*
X47256Y184903D01*
X48300Y184766D01*
X49344Y184903D01*
X50317Y185306D01*
X51153Y185947D01*
X51794Y186783D01*
X52197Y187756D01*
X52334Y188800D01*
X52197Y189844D01*
X52037Y190230D01*
X53676Y191868D01*
X54309Y191793D01*
X54783Y190863D01*
X54787Y190772D01*
X54403Y189844D01*
X54265Y188800D01*
X54403Y187756D01*
X54806Y186783D01*
X55447Y185947D01*
X56283Y185306D01*
X57256Y184903D01*
X58300Y184766D01*
X59344Y184903D01*
X60317Y185306D01*
X61153Y185947D01*
X61794Y186783D01*
X61912Y187068D01*
X63024D01*
X72668Y177424D01*
Y160693D01*
X72464Y160536D01*
X72051Y159999D01*
X71791Y159372D01*
X71703Y158700D01*
X71791Y158028D01*
X72051Y157402D01*
X72464Y156864D01*
X73001Y156451D01*
X73628Y156192D01*
X74300Y156103D01*
X74972Y156192D01*
X75599Y156451D01*
X76136Y156864D01*
X76549Y157402D01*
X76809Y158028D01*
X76897Y158700D01*
X76809Y159372D01*
X76549Y159999D01*
X76136Y160536D01*
X75932Y160693D01*
Y178100D01*
X75807Y178724D01*
X75454Y179254D01*
X64854Y189854D01*
X64324Y190208D01*
X63700Y190332D01*
X61995D01*
X61794Y190817D01*
X61525Y191168D01*
X62018Y192168D01*
X70424D01*
X82620Y179972D01*
Y153174D01*
X82416Y153017D01*
X82003Y152480D01*
X81743Y151853D01*
X81655Y151181D01*
X81743Y150509D01*
X82003Y149883D01*
X82416Y149345D01*
X82954Y148932D01*
X83580Y148673D01*
X84252Y148584D01*
X84924Y148673D01*
X85237Y148802D01*
X86041Y148409D01*
X86237Y148199D01*
Y96131D01*
X86361Y95507D01*
X86715Y94978D01*
X91067Y90626D01*
Y78994D01*
X92947D01*
Y61555D01*
X93072Y60931D01*
X93425Y60402D01*
X101941Y51886D01*
X102470Y51532D01*
X102667Y51493D01*
Y46139D01*
X106467D01*
Y59939D01*
X106467D01*
Y60139D01*
X106467D01*
Y73939D01*
X102667D01*
Y72245D01*
X101667Y71710D01*
X101631Y71734D01*
Y78994D01*
X104067D01*
Y87244D01*
Y95494D01*
X101067D01*
Y95494D01*
X100645Y95319D01*
X97746Y98218D01*
X98067Y98994D01*
X98067D01*
Y115494D01*
X96131D01*
Y121074D01*
X99185Y124128D01*
X99539Y124657D01*
X99663Y125282D01*
X99663Y125282D01*
Y169860D01*
X99724Y170835D01*
X104999D01*
Y143870D01*
X105123Y143246D01*
X105476Y142717D01*
X123421Y124772D01*
X123387Y124516D01*
X123476Y123844D01*
X123735Y123217D01*
X124148Y122679D01*
X124686Y122267D01*
X125312Y122007D01*
X125984Y121919D01*
X126656Y122007D01*
X127283Y122267D01*
X127821Y122679D01*
X128233Y123217D01*
X128493Y123844D01*
X128581Y124516D01*
X128493Y125188D01*
X128233Y125814D01*
X127821Y126352D01*
X127283Y126765D01*
X126656Y127024D01*
X125984Y127113D01*
X125728Y127079D01*
X108261Y144546D01*
Y170835D01*
X113535D01*
Y177165D01*
X114451Y177369D01*
X123000D01*
X123624Y177493D01*
X124153Y177847D01*
X127541Y181234D01*
X128465Y180851D01*
Y180835D01*
X142276D01*
Y183727D01*
X143276Y184257D01*
X143506Y184101D01*
Y164050D01*
X143681Y163172D01*
X144178Y162428D01*
X149776Y156830D01*
Y154925D01*
X154925D01*
Y160075D01*
X153020D01*
X148094Y165001D01*
Y185700D01*
X147919Y186578D01*
X147422Y187322D01*
X143422Y191322D01*
X142678Y191820D01*
X142276Y191900D01*
Y197165D01*
X128465D01*
Y191994D01*
X123450D01*
X112022Y203422D01*
X111278Y203920D01*
X110400Y204094D01*
X100550D01*
X89494Y215150D01*
Y221070D01*
X98870D01*
Y214162D01*
X98990Y213248D01*
X99343Y212397D01*
X99724Y211900D01*
Y210835D01*
X101058D01*
X101648Y210590D01*
X102562Y210470D01*
X102562Y210470D01*
X106630D01*
X107544Y210590D01*
X108134Y210835D01*
X113535D01*
Y217165D01*
X108134D01*
X107544Y217410D01*
X106630Y217530D01*
X105930D01*
Y221070D01*
X151470D01*
Y215550D01*
X151590Y214636D01*
X151943Y213785D01*
X152350Y213254D01*
Y212900D01*
X152704D01*
X153235Y212493D01*
X154086Y212140D01*
X155000Y212020D01*
X155914Y212140D01*
X156765Y212493D01*
X157296Y212900D01*
X157650D01*
Y213254D01*
X158057Y213785D01*
X158410Y214636D01*
X158530Y215550D01*
Y221070D01*
X163993D01*
Y214000D01*
X164113Y213086D01*
X164466Y212235D01*
X165027Y211504D01*
X165758Y210943D01*
X166609Y210590D01*
X167523Y210470D01*
X173130D01*
X174044Y210590D01*
X174634Y210835D01*
X180035D01*
Y217165D01*
X174634D01*
X174044Y217410D01*
X173130Y217530D01*
X171053D01*
Y221070D01*
X291106D01*
Y161951D01*
X290904Y161796D01*
X290343Y161065D01*
X289990Y160214D01*
X289870Y159300D01*
X289990Y158386D01*
X290343Y157535D01*
X290904Y156804D01*
X291635Y156243D01*
X292486Y155890D01*
X293400Y155770D01*
X294314Y155890D01*
X295165Y156243D01*
X295751Y155443D01*
X284538Y144230D01*
X254062D01*
X249308Y148984D01*
X249722Y149984D01*
X250189D01*
Y151575D01*
X251189D01*
Y149984D01*
X252575D01*
Y150975D01*
X252856Y151206D01*
X256031D01*
X256487Y151296D01*
X256868D01*
X257316Y151385D01*
X257696Y151639D01*
X258305D01*
X258684Y151385D01*
X259132Y151296D01*
X259469D01*
Y153500D01*
X259968D01*
Y154000D01*
X261975D01*
Y154534D01*
X261886Y154981D01*
X261632Y155361D01*
X261378Y155531D01*
X261193Y155939D01*
X261056Y156673D01*
X261257Y156935D01*
X261610Y157786D01*
X261730Y158700D01*
X261610Y159614D01*
X261257Y160465D01*
X260696Y161196D01*
X259965Y161757D01*
X259114Y162110D01*
X258200Y162230D01*
X257286Y162110D01*
X256435Y161757D01*
X255704Y161196D01*
X255143Y160465D01*
X255030Y160193D01*
X254030Y160392D01*
Y173000D01*
X253910Y173914D01*
X253557Y174765D01*
X252996Y175496D01*
X223546Y204946D01*
X222815Y205507D01*
X221964Y205860D01*
X221050Y205980D01*
X217998D01*
X208776Y215202D01*
Y217165D01*
X206489D01*
X205899Y217410D01*
X204985Y217530D01*
X201870D01*
X200956Y217410D01*
X200366Y217165D01*
X194965D01*
Y210835D01*
X200366D01*
X200956Y210590D01*
X201870Y210470D01*
X203523D01*
X207089Y206904D01*
X206706Y205980D01*
X202767D01*
X201870Y206098D01*
X200973Y205980D01*
X148382D01*
X142276Y212087D01*
Y217165D01*
X136874D01*
X136284Y217410D01*
X135370Y217530D01*
X134456Y217410D01*
X133866Y217165D01*
X128465D01*
Y210835D01*
X133543D01*
X144424Y199954D01*
X145155Y199393D01*
X146006Y199040D01*
X146920Y198920D01*
X152306D01*
Y187068D01*
X152396Y186614D01*
Y186232D01*
X152486Y185784D01*
X152739Y185405D01*
Y184795D01*
X152486Y184416D01*
X152396Y183968D01*
Y183587D01*
X152306Y183132D01*
Y169300D01*
X152480Y168422D01*
X152978Y167678D01*
X156356Y164300D01*
Y160075D01*
X156075D01*
Y154925D01*
X161224D01*
Y160075D01*
X160944D01*
Y163113D01*
X161868Y163496D01*
X167679Y157685D01*
Y150784D01*
X166679Y150585D01*
X166549Y150899D01*
X166136Y151436D01*
X165598Y151849D01*
X164972Y152109D01*
X164300Y152197D01*
X163628Y152109D01*
X163002Y151849D01*
X162464Y151436D01*
X162051Y150899D01*
X161792Y150272D01*
X161703Y149600D01*
X161792Y148928D01*
X162051Y148301D01*
X162464Y147764D01*
X162668Y147607D01*
Y145500D01*
X161000D01*
Y131500D01*
X167679D01*
Y127486D01*
X164881Y124688D01*
X163825Y125046D01*
X163809Y125172D01*
X163549Y125798D01*
X163136Y126336D01*
X162599Y126749D01*
X161972Y127008D01*
X161300Y127097D01*
X160628Y127008D01*
X160002Y126749D01*
X159464Y126336D01*
X159307Y126132D01*
X158000D01*
Y131500D01*
X151000D01*
Y118954D01*
X110823D01*
X110198Y118830D01*
X109669Y118476D01*
X106687Y115494D01*
X101067D01*
Y98994D01*
X104099D01*
X106675Y96418D01*
X106292Y95494D01*
X105067D01*
Y87244D01*
Y78994D01*
X107947D01*
Y73939D01*
X107667D01*
Y60939D01*
X107667Y60139D01*
X107667Y59139D01*
Y53539D01*
X111467D01*
Y59139D01*
X111467Y59939D01*
X111467Y60939D01*
Y73939D01*
X111210D01*
Y78994D01*
X114067D01*
Y87244D01*
Y95494D01*
X111210D01*
Y95821D01*
X111086Y96446D01*
X110732Y96975D01*
X108067Y99640D01*
Y112260D01*
X110143Y114336D01*
X111067Y113953D01*
Y98994D01*
X114299D01*
X116875Y96418D01*
X116492Y95494D01*
X115067D01*
Y87244D01*
Y78994D01*
X117869D01*
Y76869D01*
X117435Y76434D01*
X115551D01*
X114927Y76310D01*
X114398Y75957D01*
X113425Y74984D01*
X113072Y74455D01*
X112969Y73939D01*
X112667D01*
Y60939D01*
X112667Y60139D01*
X112667Y59139D01*
Y53539D01*
X116467D01*
Y59139D01*
X116467Y59939D01*
X116467Y60939D01*
Y73172D01*
X117667D01*
Y60939D01*
X117667Y60139D01*
X117667Y59139D01*
Y46139D01*
X121467D01*
Y59139D01*
X121467Y59939D01*
X121467Y60939D01*
Y73939D01*
X120860D01*
X120477Y74863D01*
X120653Y75039D01*
X121007Y75569D01*
X121131Y76193D01*
Y78994D01*
X127869D01*
Y71503D01*
X127467Y71195D01*
X126467Y71688D01*
Y73939D01*
X122667D01*
Y60939D01*
X122667Y60139D01*
X122667Y59139D01*
Y53539D01*
X126467D01*
Y59139D01*
X126467Y59939D01*
X126467Y60939D01*
Y65488D01*
X126687Y65532D01*
X127216Y65886D01*
X130654Y69323D01*
X131007Y69852D01*
X131131Y70476D01*
Y78994D01*
X134067D01*
Y87244D01*
Y95494D01*
X132565D01*
X132183Y96418D01*
X134565Y98800D01*
X134692Y98885D01*
X134801Y98994D01*
X138067D01*
Y105760D01*
X141176Y108869D01*
X162000D01*
X162624Y108993D01*
X163154Y109346D01*
X179154Y125347D01*
X179507Y125876D01*
X179631Y126500D01*
Y158500D01*
X179631Y158500D01*
X179507Y159124D01*
X179154Y159653D01*
X168896Y169911D01*
X169279Y170835D01*
X172358D01*
X184869Y158324D01*
Y115514D01*
X182957D01*
Y99014D01*
X185219D01*
Y98583D01*
X185343Y97958D01*
X185697Y97429D01*
X186688Y96438D01*
X186306Y95514D01*
X183170D01*
X183153Y95538D01*
X180456Y98236D01*
X179957Y99014D01*
X179957D01*
X179957Y99014D01*
Y115514D01*
X172957D01*
Y106131D01*
X167994D01*
X167836Y106336D01*
X167298Y106749D01*
X166672Y107009D01*
X166000Y107097D01*
X165328Y107009D01*
X164701Y106749D01*
X164164Y106336D01*
X163751Y105798D01*
X163491Y105172D01*
X163403Y104500D01*
X163491Y103828D01*
X163751Y103201D01*
X164164Y102664D01*
X164701Y102251D01*
X165328Y101991D01*
X166000Y101903D01*
X166672Y101991D01*
X167298Y102251D01*
X167836Y102664D01*
X167994Y102869D01*
X172957D01*
Y99014D01*
X175323D01*
X175343Y98910D01*
X175697Y98381D01*
X177640Y96438D01*
X177257Y95514D01*
X172957D01*
Y86131D01*
X165676D01*
X147563Y104244D01*
X147597Y104500D01*
X147509Y105172D01*
X147249Y105798D01*
X146836Y106336D01*
X146299Y106749D01*
X145672Y107009D01*
X145000Y107097D01*
X144328Y107009D01*
X143702Y106749D01*
X143164Y106336D01*
X142751Y105798D01*
X142491Y105172D01*
X142403Y104500D01*
X142491Y103828D01*
X142751Y103201D01*
X143164Y102664D01*
X143702Y102251D01*
X144328Y101991D01*
X145000Y101903D01*
X145256Y101937D01*
X163847Y83346D01*
X164376Y82993D01*
X165000Y82869D01*
X172957D01*
Y79014D01*
X175219D01*
Y62055D01*
X175343Y61431D01*
X175697Y60902D01*
X184122Y52476D01*
X184651Y52123D01*
X184852Y52083D01*
Y46730D01*
X188652D01*
Y60530D01*
X188652D01*
Y60730D01*
X188652D01*
Y74530D01*
X184852D01*
Y72629D01*
X183852Y72096D01*
X183631Y72244D01*
Y79014D01*
X185957D01*
Y87264D01*
X186957D01*
Y79014D01*
X189957D01*
X190219Y78122D01*
Y74530D01*
X189852D01*
Y61530D01*
X189852Y60730D01*
X189852Y59730D01*
Y54130D01*
X193652D01*
Y59730D01*
X193652Y60530D01*
X193652Y61530D01*
Y74530D01*
X193482D01*
Y79014D01*
X195957D01*
Y87264D01*
Y95514D01*
X192957D01*
Y95514D01*
X192440Y95300D01*
X189596Y98144D01*
X189957Y99014D01*
X189957D01*
Y115514D01*
X188131D01*
Y159000D01*
X188007Y159624D01*
X187654Y160153D01*
X177896Y169911D01*
X178279Y170835D01*
X180035D01*
Y177165D01*
X180951Y177369D01*
X185000D01*
X185624Y177493D01*
X186153Y177847D01*
X190676Y182369D01*
X194965D01*
Y180835D01*
X208776D01*
Y187165D01*
X194965D01*
Y185631D01*
X190000D01*
X189376Y185507D01*
X188847Y185153D01*
X184324Y180631D01*
X180951D01*
X180035Y180835D01*
Y187165D01*
X166224D01*
Y185406D01*
X165847Y185153D01*
X160646Y179954D01*
X160293Y179424D01*
X160169Y178800D01*
Y168282D01*
X159245Y167900D01*
X156894Y170250D01*
Y183132D01*
X156804Y183587D01*
Y183968D01*
X156714Y184416D01*
X156461Y184795D01*
Y185405D01*
X156714Y185784D01*
X156804Y186232D01*
Y186614D01*
X156894Y187068D01*
Y198920D01*
X219588D01*
X246970Y171538D01*
Y158689D01*
X247047Y158102D01*
X246554Y157327D01*
X246286Y157102D01*
X245874D01*
Y155512D01*
X244874D01*
Y157102D01*
X243488D01*
Y156736D01*
X242488Y156213D01*
X242164Y156437D01*
Y156545D01*
X242075Y156993D01*
X241822Y157373D01*
X241442Y157626D01*
X240994Y157715D01*
X239321D01*
X238873Y157626D01*
X238493Y157373D01*
X237884D01*
X237505Y157626D01*
X237057Y157715D01*
X236720D01*
Y155512D01*
X236221D01*
Y155012D01*
X234214D01*
Y154478D01*
X234303Y154031D01*
X234557Y153651D01*
X234936Y153397D01*
X235266Y153332D01*
X235167Y152332D01*
X229900D01*
X229276Y152208D01*
X228746Y151854D01*
X223046Y146154D01*
X222692Y145624D01*
X222568Y145000D01*
Y130800D01*
X222692Y130176D01*
X223046Y129646D01*
X228037Y124656D01*
X228003Y124400D01*
X228092Y123728D01*
X228351Y123101D01*
X228764Y122564D01*
X229302Y122151D01*
X229928Y121891D01*
X230600Y121803D01*
X231272Y121891D01*
X231898Y122151D01*
X232436Y122564D01*
X232849Y123101D01*
X233108Y123728D01*
X233197Y124400D01*
X233108Y125072D01*
X232849Y125698D01*
X232436Y126236D01*
X231898Y126649D01*
X231272Y126909D01*
X230600Y126997D01*
X230344Y126963D01*
X225832Y131476D01*
Y144324D01*
X230576Y149068D01*
X237600D01*
X238224Y149193D01*
X238754Y149546D01*
X241311Y152104D01*
X241339Y152145D01*
X241501Y152036D01*
X242126Y151912D01*
X242475D01*
X242658Y151763D01*
X243182Y150912D01*
X243080Y150400D01*
X243118Y150207D01*
X243104Y150196D01*
X242543Y149465D01*
X242190Y148614D01*
X242070Y147700D01*
X242190Y146786D01*
X242543Y145935D01*
X243104Y145204D01*
X250104Y138204D01*
X250104Y138204D01*
X250328Y138032D01*
X249989Y137032D01*
X236876D01*
X232489Y141418D01*
X232249Y141999D01*
X231836Y142536D01*
X231298Y142949D01*
X230672Y143209D01*
X230000Y143297D01*
X229328Y143209D01*
X228701Y142949D01*
X228164Y142536D01*
X227751Y141999D01*
X227491Y141372D01*
X227403Y140700D01*
X227491Y140028D01*
X227751Y139401D01*
X228164Y138864D01*
X228701Y138451D01*
X229328Y138191D01*
X230000Y138103D01*
X230672Y138191D01*
X230975Y138317D01*
X234361Y134932D01*
X233946Y133932D01*
X232293D01*
X232136Y134136D01*
X231598Y134549D01*
X230972Y134809D01*
X230300Y134897D01*
X229628Y134809D01*
X229001Y134549D01*
X228464Y134136D01*
X228051Y133598D01*
X227792Y132972D01*
X227703Y132300D01*
X227792Y131628D01*
X228051Y131001D01*
X228464Y130464D01*
X229001Y130051D01*
X229628Y129791D01*
X230300Y129703D01*
X230972Y129791D01*
X231598Y130051D01*
X232136Y130464D01*
X232293Y130668D01*
X264888D01*
X271116Y124440D01*
Y109957D01*
X265748D01*
Y102957D01*
X279568D01*
Y95584D01*
X273940Y89957D01*
X265748D01*
Y82957D01*
X279748D01*
Y89957D01*
X279748D01*
X279399Y90800D01*
X282354Y93755D01*
X282708Y94284D01*
X282832Y94909D01*
Y98217D01*
X283832Y98740D01*
X283896Y98695D01*
X283985Y98247D01*
X284239Y97868D01*
X284619Y97614D01*
X284812Y97575D01*
X286352Y96035D01*
X287096Y95538D01*
X287974Y95363D01*
X290632D01*
Y95083D01*
X295782D01*
Y100232D01*
X290632D01*
Y99951D01*
X288924D01*
X288253Y100623D01*
X288214Y100816D01*
X287961Y101196D01*
Y101804D01*
X288214Y102184D01*
X288285Y102539D01*
X288319Y102591D01*
X288494Y103469D01*
Y137881D01*
X289146Y138415D01*
X290159Y138147D01*
X290250Y137928D01*
X290811Y137197D01*
X291013Y137042D01*
Y106532D01*
X290632D01*
Y101382D01*
X295782D01*
Y106532D01*
X295601D01*
Y137042D01*
X295803Y137197D01*
X296364Y137928D01*
X296717Y138779D01*
X296837Y139693D01*
X296717Y140607D01*
X296364Y141458D01*
X295803Y142189D01*
X295072Y142750D01*
X294637Y142930D01*
X294319Y144027D01*
X305062Y154770D01*
X309681D01*
X309876Y154488D01*
X310063Y153770D01*
X302646Y146353D01*
X302293Y145824D01*
X302169Y145200D01*
Y97102D01*
X269910Y64842D01*
X269556Y64313D01*
X269432Y63689D01*
Y61630D01*
X266717D01*
Y60213D01*
X265717Y59459D01*
X265453Y59511D01*
X264525Y59327D01*
X263738Y58801D01*
X263213Y58014D01*
X263028Y57087D01*
X263213Y56159D01*
X263738Y55372D01*
X264042Y55169D01*
X263739Y54169D01*
X250000D01*
X249610Y54092D01*
X249279Y53871D01*
X249058Y53540D01*
X248980Y53150D01*
Y39370D01*
X248980Y39370D01*
X39370D01*
Y236221D01*
X433071D01*
X433071Y236220D01*
D02*
G37*
G36*
X323449Y137972D02*
X322449Y137558D01*
X319779Y140228D01*
Y151169D01*
X323449D01*
Y137972D01*
D02*
G37*
G36*
X176369Y157824D02*
Y127176D01*
X161324Y112131D01*
X140500D01*
X139876Y112007D01*
X139347Y111653D01*
X138991Y111298D01*
X138067Y111681D01*
Y115494D01*
X138985Y115691D01*
X151388D01*
X151503Y115669D01*
X159800D01*
X160424Y115793D01*
X160953Y116147D01*
X170464Y125657D01*
X170817Y126186D01*
X170942Y126810D01*
Y158360D01*
X170817Y158984D01*
X170464Y159514D01*
X163431Y166546D01*
Y169455D01*
X164355Y169838D01*
X176369Y157824D01*
D02*
G37*
G36*
X344070Y152238D02*
Y115551D01*
X344190Y114637D01*
X344543Y113786D01*
X345104Y113055D01*
X345835Y112494D01*
X346686Y112141D01*
X347600Y112021D01*
X353449D01*
Y110077D01*
X343776D01*
X342731Y111121D01*
Y121400D01*
X342607Y122024D01*
X342253Y122554D01*
X340553Y124253D01*
X340024Y124607D01*
X339400Y124731D01*
X335276D01*
X323621Y136386D01*
X324035Y137386D01*
X329780D01*
Y151197D01*
X328245D01*
Y151286D01*
X328121Y151910D01*
X327768Y152439D01*
X326437Y153770D01*
X326624Y154488D01*
X326819Y154770D01*
X341538D01*
X344070Y152238D01*
D02*
G37*
G36*
X313449Y137386D02*
X318007D01*
X333447Y121947D01*
X333449Y121945D01*
Y108646D01*
X332662Y108131D01*
X330567D01*
X329780Y108646D01*
Y122457D01*
X327890D01*
X327768Y122639D01*
X324553Y125854D01*
X324024Y126207D01*
X323400Y126331D01*
X307300D01*
X306676Y126207D01*
X306431Y126044D01*
X305431Y126446D01*
Y144524D01*
X312076Y151169D01*
X313449D01*
Y137386D01*
D02*
G37*
G36*
X323449Y122344D02*
Y108646D01*
X322662Y108131D01*
X320567D01*
X319779Y108646D01*
Y122457D01*
X320526Y123069D01*
X322724D01*
X323449Y122344D01*
D02*
G37*
G36*
X283906Y104353D02*
X283896Y104305D01*
Y102632D01*
X283985Y102184D01*
X284239Y101804D01*
Y101196D01*
X283985Y100816D01*
X283896Y100368D01*
X283832Y100323D01*
X282832Y100846D01*
Y121048D01*
X282708Y121672D01*
X282354Y122202D01*
X268386Y136170D01*
X268800Y137170D01*
X283906D01*
Y104353D01*
D02*
G37*
G36*
X131067Y115494D02*
Y99916D01*
X128347Y97196D01*
X127993Y96667D01*
X127869Y96042D01*
Y95494D01*
X121131D01*
Y96100D01*
X121007Y96724D01*
X120653Y97254D01*
X118067Y99840D01*
Y115494D01*
X118985Y115691D01*
X120149D01*
X121067Y115494D01*
X121067Y114691D01*
Y98994D01*
X128067D01*
Y114691D01*
X128067Y115494D01*
X128985Y115691D01*
X130149D01*
X131067Y115494D01*
D02*
G37*
G36*
X367963Y97030D02*
X367548Y96030D01*
X361400D01*
X361280Y96014D01*
X360280Y96858D01*
Y100600D01*
X360160Y101514D01*
X359807Y102365D01*
X359400Y102896D01*
Y103250D01*
X359046D01*
X358515Y103657D01*
X358005Y103869D01*
X358204Y104869D01*
X360124D01*
X367963Y97030D01*
D02*
G37*
G36*
X95460Y177129D02*
X96400Y176679D01*
Y125957D01*
X93347Y122904D01*
X92993Y122374D01*
X92869Y121750D01*
Y115494D01*
X91067D01*
Y98994D01*
X92964D01*
X93072Y98454D01*
X93425Y97924D01*
X94932Y96418D01*
X94549Y95494D01*
X91067D01*
X91067Y95494D01*
Y95494D01*
X90299Y96008D01*
X89500Y96807D01*
Y149230D01*
X89583Y149648D01*
Y152714D01*
X89500Y153133D01*
Y171193D01*
X95438Y177131D01*
X95460Y177129D01*
D02*
G37*
G36*
X313449Y122457D02*
Y108646D01*
X314983D01*
Y108186D01*
X315107Y107562D01*
X315461Y107032D01*
X317146Y105347D01*
X317676Y104993D01*
X318300Y104869D01*
X336599D01*
X336786Y103910D01*
X335935Y103557D01*
X335204Y102996D01*
X334643Y102265D01*
X334290Y101414D01*
X334170Y100500D01*
X334290Y99586D01*
X334643Y98735D01*
X335204Y98004D01*
X335935Y97443D01*
X336786Y97090D01*
X336872Y97079D01*
X336807Y96079D01*
X333350D01*
Y82268D01*
X339681D01*
Y95970D01*
X339681Y96079D01*
X339944Y96970D01*
X342351D01*
X342736Y96810D01*
X343650Y96690D01*
X344564Y96810D01*
X345415Y97163D01*
X346146Y97724D01*
X346707Y98455D01*
X347060Y99306D01*
X347180Y100220D01*
Y100600D01*
X347060Y101514D01*
X346707Y102365D01*
X346300Y102896D01*
Y103250D01*
X345946D01*
X345415Y103657D01*
X344905Y103869D01*
X345104Y104869D01*
X355296D01*
X355495Y103869D01*
X354985Y103657D01*
X354454Y103250D01*
X354100D01*
Y102896D01*
X353693Y102365D01*
X353340Y101514D01*
X353220Y100600D01*
Y90362D01*
X353106Y90087D01*
X352986Y89173D01*
X353106Y88260D01*
X353350Y87669D01*
Y82268D01*
X359681D01*
Y86051D01*
X359838Y86116D01*
X360569Y86677D01*
X362862Y88970D01*
X368500D01*
X369414Y89090D01*
X370265Y89443D01*
X370996Y90004D01*
X371557Y90735D01*
X371910Y91586D01*
X372030Y92500D01*
X371910Y93414D01*
X371902Y93432D01*
X372571Y94432D01*
X375181D01*
Y93291D01*
X386969D01*
Y91076D01*
X386854Y90961D01*
X375181D01*
Y85494D01*
X367500D01*
X366622Y85320D01*
X365878Y84822D01*
X361302Y80247D01*
X319198D01*
X318794Y80650D01*
Y82268D01*
X319681D01*
Y94635D01*
X323021D01*
X323350Y94305D01*
Y82268D01*
X329681D01*
Y96079D01*
X328066D01*
X325593Y98551D01*
X324849Y99048D01*
X323971Y99223D01*
X313229D01*
X312351Y99048D01*
X311607Y98551D01*
X308131Y95075D01*
X307209Y95567D01*
X307231Y95680D01*
Y122324D01*
X307976Y123069D01*
X312702D01*
X313449Y122457D01*
D02*
G37*
G36*
X393757Y84099D02*
X393742Y84078D01*
X393383Y83213D01*
X393261Y82284D01*
X393383Y81354D01*
X393742Y80489D01*
X394312Y79745D01*
X395056Y79175D01*
X395921Y78816D01*
X396850Y78694D01*
X397012Y78552D01*
Y73067D01*
X377264D01*
X376874Y72989D01*
X376543Y72768D01*
X376322Y72437D01*
X376244Y72047D01*
Y54169D01*
X360511D01*
X359898Y55169D01*
X359926Y55236D01*
X360046Y56150D01*
Y60433D01*
X359926Y61347D01*
X359681Y61937D01*
Y67339D01*
X359681D01*
X359760Y68306D01*
X364800D01*
X365678Y68481D01*
X366422Y68978D01*
X373497Y76052D01*
X375181D01*
Y75575D01*
X388205D01*
Y80907D01*
X389078Y81081D01*
X389822Y81578D01*
X393004Y84759D01*
X393757Y84099D01*
D02*
G37*
G36*
X306597Y92956D02*
X306506Y92500D01*
Y72350D01*
X298655Y64499D01*
X279134D01*
X278256Y64324D01*
X277512Y63827D01*
X277014Y63083D01*
X276840Y62205D01*
X276368Y61630D01*
X275253D01*
Y63027D01*
X305675Y93448D01*
X306597Y92956D01*
D02*
G37*
G36*
X179957Y79014D02*
X180369Y78184D01*
Y70906D01*
X180493Y70281D01*
X180847Y69752D01*
X184122Y66476D01*
X184651Y66123D01*
X184852Y66083D01*
Y60730D01*
X184852D01*
Y60530D01*
X184852D01*
Y57667D01*
X183928Y57284D01*
X178482Y62731D01*
Y79014D01*
X179957D01*
D02*
G37*
G36*
X98067Y78994D02*
X98369Y78119D01*
Y70134D01*
X98493Y69510D01*
X98847Y68980D01*
X101941Y65886D01*
X102470Y65532D01*
X102667Y65493D01*
Y60139D01*
X102667D01*
Y59939D01*
X102667D01*
Y57081D01*
X101743Y56698D01*
X96210Y62231D01*
Y78994D01*
X98067D01*
D02*
G37*
G36*
X323350Y67339D02*
X323350D01*
Y54972D01*
X319681D01*
Y66137D01*
X321850Y68306D01*
X323272D01*
X323350Y67339D01*
D02*
G37*
G36*
X313350Y92500D02*
Y82268D01*
X314206D01*
Y79700D01*
X314381Y78822D01*
X314878Y78078D01*
X316625Y76331D01*
X317369Y75833D01*
X318247Y75659D01*
X362253D01*
X363131Y75833D01*
X363875Y76331D01*
X368450Y80906D01*
X370527D01*
X370838Y80172D01*
X370862Y79906D01*
X363850Y72894D01*
X320900D01*
X320022Y72719D01*
X319278Y72222D01*
X314878Y67822D01*
X314555Y67339D01*
X313350D01*
Y54972D01*
X306147D01*
X304969Y56150D01*
X304224Y56647D01*
X303346Y56822D01*
X284433D01*
X284216Y57087D01*
X284031Y58014D01*
X283506Y58801D01*
X283342Y58911D01*
X283645Y59911D01*
X299605D01*
X300483Y60085D01*
X301227Y60583D01*
X310422Y69778D01*
X310919Y70522D01*
X311094Y71400D01*
Y91550D01*
X312426Y92882D01*
X313350Y92500D01*
D02*
G37*
G36*
X353350Y67339D02*
X353350D01*
Y61937D01*
X353106Y61347D01*
X352986Y60433D01*
Y57612D01*
X352447Y57073D01*
X345976D01*
X345063Y56953D01*
X344211Y56600D01*
X343480Y56040D01*
X342919Y55308D01*
X342566Y54457D01*
X342532Y54193D01*
X342498Y54169D01*
X339681D01*
Y67339D01*
X339681D01*
X339760Y68306D01*
X353272D01*
X353350Y67339D01*
D02*
G37*
G36*
X333350D02*
X333350D01*
Y54169D01*
X329681D01*
Y67339D01*
X329681D01*
X329760Y68306D01*
X333272D01*
X333350Y67339D01*
D02*
G37*
G36*
X404232Y129724D02*
X404429Y129643D01*
Y46260D01*
X296850D01*
X296358Y45768D01*
Y39272D01*
X250041D01*
X250000Y39370D01*
Y53150D01*
X267583D01*
X268030Y52703D01*
X268608Y52316D01*
X269291Y52181D01*
X286024D01*
X286289Y52233D01*
X302396D01*
X303574Y51055D01*
X304319Y50558D01*
X305196Y50384D01*
X326516D01*
X327394Y50558D01*
X328138Y51055D01*
X328635Y51800D01*
X328810Y52678D01*
Y53150D01*
X342498D01*
X342566Y52630D01*
X342919Y51778D01*
X343480Y51047D01*
X344211Y50486D01*
X345063Y50133D01*
X345976Y50013D01*
X353909D01*
X354823Y50133D01*
X355674Y50486D01*
X356405Y51047D01*
X358508Y53150D01*
X377067D01*
X377264Y53347D01*
Y72047D01*
X397539D01*
X398031Y72539D01*
Y78920D01*
X398645Y79175D01*
X399389Y79745D01*
X399959Y80489D01*
X400318Y81354D01*
X400440Y82284D01*
X400318Y83213D01*
X399959Y84078D01*
X399389Y84822D01*
X398645Y85392D01*
X398031Y85646D01*
Y98605D01*
X398645Y98860D01*
X399389Y99430D01*
X399959Y100174D01*
X400318Y101039D01*
X400440Y101969D01*
X400318Y102898D01*
X399959Y103763D01*
X399389Y104507D01*
X398645Y105077D01*
X398031Y105332D01*
Y112205D01*
X377264D01*
X377067Y112008D01*
X376575Y112500D01*
Y129724D01*
X404232D01*
D02*
G37*
%LPC*%
G36*
X58300Y212835D02*
X57256Y212697D01*
X56283Y212294D01*
X55447Y211653D01*
X54806Y210817D01*
X54403Y209844D01*
X54265Y208800D01*
X54403Y207756D01*
X54806Y206783D01*
X55447Y205947D01*
X56283Y205306D01*
X57256Y204903D01*
X58300Y204766D01*
X59344Y204903D01*
X60317Y205306D01*
X61153Y205947D01*
X61794Y206783D01*
X62197Y207756D01*
X62335Y208800D01*
X62197Y209844D01*
X61794Y210817D01*
X61153Y211653D01*
X60317Y212294D01*
X59344Y212697D01*
X58300Y212835D01*
D02*
G37*
G36*
X58800Y202769D02*
Y199300D01*
X62269D01*
X62197Y199844D01*
X61794Y200817D01*
X61153Y201653D01*
X60317Y202294D01*
X59344Y202697D01*
X58800Y202769D01*
D02*
G37*
G36*
X48800D02*
Y199300D01*
X52269D01*
X52197Y199844D01*
X51794Y200817D01*
X51153Y201653D01*
X50317Y202294D01*
X49344Y202697D01*
X48800Y202769D01*
D02*
G37*
G36*
X57800D02*
X57256Y202697D01*
X56283Y202294D01*
X55447Y201653D01*
X54806Y200817D01*
X54403Y199844D01*
X54331Y199300D01*
X57800D01*
Y202769D01*
D02*
G37*
G36*
X52269Y198300D02*
X48800D01*
Y194831D01*
X49344Y194903D01*
X50317Y195306D01*
X51153Y195947D01*
X51794Y196783D01*
X52197Y197756D01*
X52269Y198300D01*
D02*
G37*
G36*
X397400Y212031D02*
X396460Y211907D01*
X395585Y211545D01*
X394832Y210967D01*
X394255Y210215D01*
X393893Y209340D01*
X393769Y208400D01*
X393893Y207460D01*
X394255Y206585D01*
X394832Y205833D01*
X395585Y205255D01*
X396460Y204893D01*
X397400Y204769D01*
X398340Y204893D01*
X399216Y205255D01*
X399968Y205833D01*
X400545Y206585D01*
X400907Y207460D01*
X401031Y208400D01*
X400907Y209340D01*
X400545Y210215D01*
X399968Y210967D01*
X399216Y211545D01*
X398340Y211907D01*
X397400Y212031D01*
D02*
G37*
G36*
X387400D02*
X386460Y211907D01*
X385584Y211545D01*
X384833Y210967D01*
X384255Y210215D01*
X383893Y209340D01*
X383769Y208400D01*
X383893Y207460D01*
X384255Y206585D01*
X384833Y205833D01*
X385584Y205255D01*
X386460Y204893D01*
X387400Y204769D01*
X388340Y204893D01*
X389215Y205255D01*
X389967Y205833D01*
X390545Y206585D01*
X390907Y207460D01*
X391031Y208400D01*
X390907Y209340D01*
X390545Y210215D01*
X389967Y210967D01*
X389215Y211545D01*
X388340Y211907D01*
X387400Y212031D01*
D02*
G37*
G36*
X397900Y201965D02*
Y198900D01*
X400965D01*
X400907Y199340D01*
X400545Y200216D01*
X399968Y200968D01*
X399216Y201545D01*
X398340Y201907D01*
X397900Y201965D01*
D02*
G37*
G36*
X387900D02*
Y198900D01*
X390965D01*
X390907Y199340D01*
X390545Y200216D01*
X389967Y200968D01*
X389215Y201545D01*
X388340Y201907D01*
X387900Y201965D01*
D02*
G37*
G36*
X396900D02*
X396460Y201907D01*
X395585Y201545D01*
X394832Y200968D01*
X394255Y200216D01*
X393893Y199340D01*
X393835Y198900D01*
X396900D01*
Y201965D01*
D02*
G37*
G36*
X386900D02*
X386460Y201907D01*
X385584Y201545D01*
X384833Y200968D01*
X384255Y200216D01*
X383893Y199340D01*
X383835Y198900D01*
X386900D01*
Y201965D01*
D02*
G37*
G36*
X400965Y197900D02*
X397900D01*
Y194835D01*
X398340Y194893D01*
X399216Y195255D01*
X399968Y195832D01*
X400545Y196584D01*
X400907Y197460D01*
X400965Y197900D01*
D02*
G37*
G36*
X390965D02*
X387900D01*
Y194835D01*
X388340Y194893D01*
X389215Y195255D01*
X389967Y195832D01*
X390545Y196584D01*
X390907Y197460D01*
X390965Y197900D01*
D02*
G37*
G36*
X396900D02*
X393835D01*
X393893Y197460D01*
X394255Y196584D01*
X394832Y195832D01*
X395585Y195255D01*
X396460Y194893D01*
X396900Y194835D01*
Y197900D01*
D02*
G37*
G36*
X386900D02*
X383835D01*
X383893Y197460D01*
X384255Y196584D01*
X384833Y195832D01*
X385584Y195255D01*
X386460Y194893D01*
X386900Y194835D01*
Y197900D01*
D02*
G37*
G36*
X208776Y197165D02*
X194965D01*
Y190835D01*
X208776D01*
Y197165D01*
D02*
G37*
G36*
X180035D02*
X166224D01*
Y190835D01*
X180035D01*
Y197165D01*
D02*
G37*
G36*
X351200Y211061D02*
X349313Y210912D01*
X347473Y210471D01*
X345725Y209746D01*
X344111Y208757D01*
X342672Y207528D01*
X341443Y206089D01*
X340454Y204475D01*
X339729Y202727D01*
X339288Y200887D01*
X339139Y199000D01*
X339288Y197113D01*
X339729Y195273D01*
X340454Y193525D01*
X341443Y191911D01*
X342672Y190472D01*
X344111Y189243D01*
X345725Y188254D01*
X347473Y187530D01*
X349313Y187088D01*
X351200Y186939D01*
X353087Y187088D01*
X354927Y187530D01*
X356676Y188254D01*
X358289Y189243D01*
X359728Y190472D01*
X360957Y191911D01*
X361946Y193525D01*
X362670Y195273D01*
X363112Y197113D01*
X363261Y199000D01*
X363112Y200887D01*
X362670Y202727D01*
X361946Y204475D01*
X360957Y206089D01*
X359728Y207528D01*
X358289Y208757D01*
X356676Y209746D01*
X354927Y210471D01*
X353087Y210912D01*
X351200Y211061D01*
D02*
G37*
G36*
X397400Y192031D02*
X396460Y191907D01*
X395585Y191545D01*
X394832Y190968D01*
X394255Y190216D01*
X393893Y189340D01*
X393769Y188400D01*
X393893Y187460D01*
X394255Y186584D01*
X394832Y185832D01*
X395585Y185255D01*
X396460Y184893D01*
X397400Y184769D01*
X398340Y184893D01*
X399216Y185255D01*
X399968Y185832D01*
X400545Y186584D01*
X400907Y187460D01*
X401031Y188400D01*
X400907Y189340D01*
X400545Y190216D01*
X399968Y190968D01*
X399216Y191545D01*
X398340Y191907D01*
X397400Y192031D01*
D02*
G37*
G36*
X387400D02*
X386460Y191907D01*
X385584Y191545D01*
X384833Y190968D01*
X384255Y190216D01*
X383893Y189340D01*
X383769Y188400D01*
X383893Y187460D01*
X384255Y186584D01*
X384833Y185832D01*
X385584Y185255D01*
X386460Y184893D01*
X387400Y184769D01*
X388340Y184893D01*
X389215Y185255D01*
X389967Y185832D01*
X390545Y186584D01*
X390907Y187460D01*
X391031Y188400D01*
X390907Y189340D01*
X390545Y190216D01*
X389967Y190968D01*
X389215Y191545D01*
X388340Y191907D01*
X387400Y192031D01*
D02*
G37*
G36*
X397400Y182031D02*
X396460Y181907D01*
X395585Y181545D01*
X394832Y180968D01*
X394255Y180216D01*
X393893Y179340D01*
X393769Y178400D01*
X393893Y177460D01*
X394255Y176584D01*
X394832Y175832D01*
X395585Y175255D01*
X396460Y174893D01*
X397400Y174769D01*
X398340Y174893D01*
X399216Y175255D01*
X399968Y175832D01*
X400545Y176584D01*
X400907Y177460D01*
X401031Y178400D01*
X400907Y179340D01*
X400545Y180216D01*
X399968Y180968D01*
X399216Y181545D01*
X398340Y181907D01*
X397400Y182031D01*
D02*
G37*
G36*
X387400D02*
X386460Y181907D01*
X385584Y181545D01*
X384833Y180968D01*
X384255Y180216D01*
X383893Y179340D01*
X383769Y178400D01*
X383893Y177460D01*
X384255Y176584D01*
X384833Y175832D01*
X385584Y175255D01*
X386460Y174893D01*
X387400Y174769D01*
X388340Y174893D01*
X389215Y175255D01*
X389967Y175832D01*
X390545Y176584D01*
X390907Y177460D01*
X391031Y178400D01*
X390907Y179340D01*
X390545Y180216D01*
X389967Y180968D01*
X389215Y181545D01*
X388340Y181907D01*
X387400Y182031D01*
D02*
G37*
G36*
X58300Y182834D02*
X57256Y182697D01*
X56283Y182294D01*
X55447Y181653D01*
X54806Y180817D01*
X54403Y179844D01*
X54265Y178800D01*
X54403Y177756D01*
X54806Y176783D01*
X55447Y175947D01*
X56283Y175306D01*
X57256Y174903D01*
X58300Y174766D01*
X59344Y174903D01*
X60317Y175306D01*
X61153Y175947D01*
X61794Y176783D01*
X62197Y177756D01*
X62335Y178800D01*
X62197Y179844D01*
X61794Y180817D01*
X61153Y181653D01*
X60317Y182294D01*
X59344Y182697D01*
X58300Y182834D01*
D02*
G37*
G36*
X397400Y172031D02*
X396460Y171907D01*
X395585Y171545D01*
X394832Y170968D01*
X394255Y170215D01*
X393893Y169340D01*
X393769Y168400D01*
X393893Y167460D01*
X394255Y166585D01*
X394832Y165832D01*
X395585Y165255D01*
X396460Y164893D01*
X397400Y164769D01*
X398340Y164893D01*
X399216Y165255D01*
X399968Y165832D01*
X400545Y166585D01*
X400907Y167460D01*
X401031Y168400D01*
X400907Y169340D01*
X400545Y170215D01*
X399968Y170968D01*
X399216Y171545D01*
X398340Y171907D01*
X397400Y172031D01*
D02*
G37*
G36*
X387400D02*
X386460Y171907D01*
X385584Y171545D01*
X384833Y170968D01*
X384255Y170215D01*
X383893Y169340D01*
X383769Y168400D01*
X383893Y167460D01*
X384255Y166585D01*
X384833Y165832D01*
X385584Y165255D01*
X386460Y164893D01*
X387400Y164769D01*
X388340Y164893D01*
X389215Y165255D01*
X389967Y165832D01*
X390545Y166585D01*
X390907Y167460D01*
X391031Y168400D01*
X390907Y169340D01*
X390545Y170215D01*
X389967Y170968D01*
X389215Y171545D01*
X388340Y171907D01*
X387400Y172031D01*
D02*
G37*
G36*
X58300Y172835D02*
X57256Y172697D01*
X56283Y172294D01*
X55447Y171653D01*
X54806Y170817D01*
X54403Y169844D01*
X54265Y168800D01*
X54403Y167756D01*
X54806Y166783D01*
X55447Y165947D01*
X56283Y165306D01*
X57256Y164903D01*
X58300Y164766D01*
X59344Y164903D01*
X60317Y165306D01*
X61153Y165947D01*
X61794Y166783D01*
X62197Y167756D01*
X62335Y168800D01*
X62197Y169844D01*
X61794Y170817D01*
X61153Y171653D01*
X60317Y172294D01*
X59344Y172697D01*
X58300Y172835D01*
D02*
G37*
G36*
X58800Y162769D02*
Y159300D01*
X62269D01*
X62197Y159844D01*
X61794Y160817D01*
X61153Y161653D01*
X60317Y162294D01*
X59344Y162697D01*
X58800Y162769D01*
D02*
G37*
G36*
X57800D02*
X57256Y162697D01*
X56283Y162294D01*
X55447Y161653D01*
X54806Y160817D01*
X54403Y159844D01*
X54331Y159300D01*
X57800D01*
Y162769D01*
D02*
G37*
G36*
X386900Y161965D02*
X386460Y161907D01*
X385584Y161545D01*
X384833Y160968D01*
X384255Y160215D01*
X383893Y159340D01*
X383835Y158900D01*
X386900D01*
Y161965D01*
D02*
G37*
G36*
X235720Y157715D02*
X235384D01*
X234936Y157626D01*
X234557Y157373D01*
X234303Y156993D01*
X234214Y156545D01*
Y156012D01*
X235720D01*
Y157715D01*
D02*
G37*
G36*
X62269Y158300D02*
X58800D01*
Y154831D01*
X59344Y154903D01*
X60317Y155306D01*
X61153Y155947D01*
X61794Y156783D01*
X62197Y157756D01*
X62269Y158300D01*
D02*
G37*
G36*
X57800D02*
X54331D01*
X54403Y157756D01*
X54806Y156783D01*
X55447Y155947D01*
X56283Y155306D01*
X57256Y154903D01*
X57800Y154831D01*
Y158300D01*
D02*
G37*
G36*
X261975Y153000D02*
X260469D01*
Y151296D01*
X260805D01*
X261253Y151385D01*
X261632Y151639D01*
X261886Y152019D01*
X261975Y152466D01*
Y153000D01*
D02*
G37*
G36*
X142276Y177165D02*
X128465D01*
Y170835D01*
X133739D01*
Y135130D01*
X133863Y134506D01*
X134217Y133976D01*
X142437Y125756D01*
X142403Y125500D01*
X142491Y124828D01*
X142751Y124202D01*
X143164Y123664D01*
X143702Y123251D01*
X144328Y122992D01*
X145000Y122903D01*
X145672Y122992D01*
X146299Y123251D01*
X146836Y123664D01*
X147249Y124202D01*
X147509Y124828D01*
X147597Y125500D01*
X147509Y126172D01*
X147249Y126798D01*
X146836Y127336D01*
X146299Y127749D01*
X145672Y128008D01*
X145000Y128097D01*
X144744Y128063D01*
X142231Y130576D01*
X142614Y131500D01*
X148000D01*
Y135868D01*
X152207D01*
X152364Y135664D01*
X152901Y135251D01*
X153528Y134992D01*
X154200Y134903D01*
X154872Y134992D01*
X155499Y135251D01*
X156036Y135664D01*
X156449Y136202D01*
X156709Y136828D01*
X156797Y137500D01*
X156709Y138172D01*
X156449Y138798D01*
X156036Y139336D01*
X155499Y139749D01*
X154872Y140008D01*
X154200Y140097D01*
X153528Y140008D01*
X152901Y139749D01*
X152364Y139336D01*
X152207Y139132D01*
X148000D01*
Y145500D01*
X141000D01*
Y133114D01*
X140076Y132731D01*
X137001Y135806D01*
Y170835D01*
X142276D01*
Y177165D01*
D02*
G37*
G36*
X208776D02*
X194965D01*
Y170835D01*
X202728D01*
X214869Y158694D01*
Y115514D01*
X212957D01*
Y100933D01*
X211735Y99711D01*
X211028Y99004D01*
X210841Y98972D01*
X209991Y99354D01*
X209957Y99476D01*
X209957Y99899D01*
Y115514D01*
X202957D01*
Y99014D01*
X209003D01*
X209679Y99014D01*
X209780Y99005D01*
X210201Y98585D01*
X210480Y98231D01*
X210426Y97958D01*
X210369Y97669D01*
Y96343D01*
X209957Y95514D01*
X209369Y95514D01*
X203131D01*
Y96531D01*
X203007Y97156D01*
X202654Y97685D01*
X199957Y100382D01*
Y115514D01*
X192957D01*
Y99014D01*
X196711D01*
X199211Y96514D01*
X198796Y95514D01*
X196957D01*
Y87264D01*
Y79014D01*
X199869D01*
Y77668D01*
X196731Y74530D01*
X194852D01*
Y61530D01*
X194852Y60730D01*
X194852Y59730D01*
Y54130D01*
X198652D01*
Y59730D01*
X198652Y60530D01*
X198652Y61530D01*
Y71145D01*
X198852Y71279D01*
X199852Y70744D01*
Y61530D01*
X199852Y60730D01*
X199852Y59730D01*
Y46730D01*
X203652D01*
Y59730D01*
X203652Y60530D01*
X203652Y61530D01*
Y74530D01*
X202651D01*
X202269Y75454D01*
X202654Y75839D01*
X203007Y76368D01*
X203131Y76992D01*
Y79014D01*
X209369D01*
X209957Y79014D01*
X210369Y78184D01*
Y73455D01*
X209576Y72663D01*
X208652Y73045D01*
Y74530D01*
X204852D01*
Y61530D01*
X204852Y60730D01*
X204852Y59730D01*
Y54130D01*
X208652D01*
Y59730D01*
X208652Y60530D01*
X208652Y61530D01*
Y67124D01*
X213154Y71626D01*
X213507Y72155D01*
X213631Y72780D01*
Y79014D01*
X215957D01*
Y87264D01*
Y95514D01*
X213631D01*
Y96994D01*
X215652Y99014D01*
X219957D01*
Y115514D01*
X218131D01*
Y159370D01*
X218007Y159994D01*
X217653Y160524D01*
X208266Y169911D01*
X208649Y170835D01*
X208776D01*
Y177165D01*
D02*
G37*
G36*
X258748Y109861D02*
X258076Y109772D01*
X257450Y109513D01*
X256912Y109100D01*
X256499Y108562D01*
X256240Y107936D01*
X256151Y107264D01*
X256240Y106592D01*
X256454Y106074D01*
Y99957D01*
X251748D01*
Y92957D01*
X265748D01*
Y99957D01*
X261042D01*
Y106074D01*
X261257Y106592D01*
X261345Y107264D01*
X261257Y107936D01*
X260997Y108562D01*
X260584Y109100D01*
X260047Y109513D01*
X259420Y109772D01*
X258748Y109861D01*
D02*
G37*
G36*
X219957Y95514D02*
X216957D01*
Y87764D01*
X219957D01*
Y95514D01*
D02*
G37*
G36*
X138067Y95494D02*
X135067D01*
Y87744D01*
X138067D01*
Y95494D01*
D02*
G37*
G36*
X219957Y86764D02*
X216957D01*
Y79014D01*
X219957D01*
Y86764D01*
D02*
G37*
G36*
X138067Y86744D02*
X135067D01*
Y78994D01*
X138067D01*
Y86744D01*
D02*
G37*
G36*
X152700Y73861D02*
X150813Y73712D01*
X148973Y73270D01*
X147224Y72546D01*
X145611Y71557D01*
X144172Y70328D01*
X142943Y68889D01*
X141954Y67276D01*
X141229Y65527D01*
X140788Y63687D01*
X140639Y61800D01*
X140788Y59913D01*
X141229Y58073D01*
X141954Y56324D01*
X142943Y54711D01*
X144172Y53272D01*
X145611Y52043D01*
X147224Y51054D01*
X148973Y50330D01*
X150813Y49888D01*
X152700Y49739D01*
X154587Y49888D01*
X156427Y50330D01*
X158176Y51054D01*
X159789Y52043D01*
X161228Y53272D01*
X162457Y54711D01*
X163446Y56324D01*
X164171Y58073D01*
X164612Y59913D01*
X164761Y61800D01*
X164612Y63687D01*
X164171Y65527D01*
X163446Y67276D01*
X162457Y68889D01*
X161228Y70328D01*
X159789Y71557D01*
X158176Y72546D01*
X156427Y73270D01*
X154587Y73712D01*
X152700Y73861D01*
D02*
G37*
G36*
X208652Y53130D02*
X207252D01*
Y46730D01*
X208652D01*
Y53130D01*
D02*
G37*
G36*
X206252D02*
X204852D01*
Y46730D01*
X206252D01*
Y53130D01*
D02*
G37*
G36*
X198652D02*
X197252D01*
Y46730D01*
X198652D01*
Y53130D01*
D02*
G37*
G36*
X196252D02*
X194852D01*
Y46730D01*
X196252D01*
Y53130D01*
D02*
G37*
G36*
X193652D02*
X192252D01*
Y46730D01*
X193652D01*
Y53130D01*
D02*
G37*
G36*
X191252D02*
X189852D01*
Y46730D01*
X191252D01*
Y53130D01*
D02*
G37*
G36*
X126467Y52539D02*
X125067D01*
Y46139D01*
X126467D01*
Y52539D01*
D02*
G37*
G36*
X124067D02*
X122667D01*
Y46139D01*
X124067D01*
Y52539D01*
D02*
G37*
G36*
X116467D02*
X115067D01*
Y46139D01*
X116467D01*
Y52539D01*
D02*
G37*
G36*
X114067D02*
X112667D01*
Y46139D01*
X114067D01*
Y52539D01*
D02*
G37*
G36*
X111467D02*
X110067D01*
Y46139D01*
X111467D01*
Y52539D01*
D02*
G37*
G36*
X109067D02*
X107667D01*
Y46139D01*
X109067D01*
Y52539D01*
D02*
G37*
G36*
X339779Y151197D02*
X333449D01*
Y137386D01*
X339779D01*
Y151197D01*
D02*
G37*
%LPD*%
D17*
X39370Y39370D02*
Y236221D01*
Y39370D02*
X433071D01*
Y236221D01*
X39370D02*
X433071D01*
D18*
X316614Y115551D02*
D03*
X326614D02*
D03*
X336614D02*
D03*
X356614D02*
D03*
Y144291D02*
D03*
X336614D02*
D03*
X326614D02*
D03*
X316614D02*
D03*
X316516Y60433D02*
D03*
X326516D02*
D03*
X336516D02*
D03*
X356516D02*
D03*
Y89173D02*
D03*
X336516D02*
D03*
X326516D02*
D03*
X316516D02*
D03*
D19*
X201870Y174000D02*
D03*
Y184000D02*
D03*
Y194000D02*
D03*
Y214000D02*
D03*
X173130D02*
D03*
Y194000D02*
D03*
Y184000D02*
D03*
Y174000D02*
D03*
X135370D02*
D03*
Y184000D02*
D03*
Y194000D02*
D03*
Y214000D02*
D03*
X106630D02*
D03*
Y194000D02*
D03*
Y184000D02*
D03*
Y174000D02*
D03*
D20*
X154600Y183132D02*
D03*
Y187068D02*
D03*
X286100Y99532D02*
D03*
Y103469D02*
D03*
D21*
X152350Y157500D02*
D03*
X158650D02*
D03*
D22*
X155000Y215550D02*
D03*
Y202450D02*
D03*
D23*
X144500Y138500D02*
D03*
X154500Y124500D02*
D03*
X164500Y138500D02*
D03*
D24*
X124567Y53039D02*
D03*
Y67039D02*
D03*
X119567Y53039D02*
D03*
Y67039D02*
D03*
X114567Y53039D02*
D03*
Y67039D02*
D03*
X109567Y53039D02*
D03*
Y67039D02*
D03*
X104567Y53039D02*
D03*
Y67039D02*
D03*
X206752Y53630D02*
D03*
Y67630D02*
D03*
X201752Y53630D02*
D03*
Y67630D02*
D03*
X196752Y53630D02*
D03*
Y67630D02*
D03*
X191752Y53630D02*
D03*
Y67630D02*
D03*
X186752Y53630D02*
D03*
Y67630D02*
D03*
D25*
X134567Y107244D02*
D03*
X124567D02*
D03*
X114567D02*
D03*
X104567D02*
D03*
X94567D02*
D03*
Y87244D02*
D03*
X104567D02*
D03*
X114567D02*
D03*
X134567D02*
D03*
X124567D02*
D03*
X216457Y107264D02*
D03*
X206457D02*
D03*
X196457D02*
D03*
X186457D02*
D03*
X176457D02*
D03*
Y87264D02*
D03*
X186457D02*
D03*
X196457D02*
D03*
X216457D02*
D03*
X206457D02*
D03*
D26*
X245374Y155512D02*
D03*
Y153543D02*
D03*
Y151575D02*
D03*
X250689D02*
D03*
Y153543D02*
D03*
Y155512D02*
D03*
D27*
X236221Y155512D02*
D03*
X240158D02*
D03*
X259968Y153500D02*
D03*
X256031D02*
D03*
D28*
X356750Y100600D02*
D03*
X343650D02*
D03*
D29*
X293207Y103957D02*
D03*
Y97658D02*
D03*
D30*
X381693Y78347D02*
D03*
Y88189D02*
D03*
Y96063D02*
D03*
Y105905D02*
D03*
D31*
X390551Y63583D02*
D03*
Y120669D02*
D03*
D32*
X289370Y47441D02*
D03*
X278150D02*
D03*
X269094D02*
D03*
X257874D02*
D03*
D33*
X278740Y57972D02*
D03*
X276181D02*
D03*
X273622D02*
D03*
X271063D02*
D03*
X268504D02*
D03*
D34*
X272748Y106457D02*
D03*
X258748Y96457D02*
D03*
X272748Y86457D02*
D03*
D56*
X48300Y158800D02*
D03*
X58300D02*
D03*
X48300Y168800D02*
D03*
X58300D02*
D03*
X48300Y178800D02*
D03*
X58300D02*
D03*
X48300Y188800D02*
D03*
X58300D02*
D03*
X48300Y198800D02*
D03*
X58300D02*
D03*
X48300Y208800D02*
D03*
X58300D02*
D03*
X48300Y218800D02*
D03*
X58300D02*
D03*
D58*
X230000Y141600D02*
X236200Y135400D01*
X230300Y132300D02*
X265564D01*
X272748Y125116D01*
X266848Y135400D02*
X281200Y121048D01*
X236200Y135400D02*
X266848D01*
X281200Y94909D02*
Y121048D01*
X272748Y106457D02*
Y125116D01*
X74300Y158700D02*
Y178100D01*
X84252Y151181D02*
Y180152D01*
X84500Y180400D01*
X58300Y188800D02*
X58400Y188700D01*
X63700D01*
X48300Y188800D02*
X53300Y193800D01*
X71100D02*
X84500Y180400D01*
X63700Y188700D02*
X74300Y178100D01*
X53300Y193800D02*
X71100D01*
X240158Y153258D02*
Y155512D01*
X237600Y150700D02*
X240158Y153258D01*
X229900Y150700D02*
X237600D01*
X224200Y145000D02*
X229900Y150700D01*
X224200Y130800D02*
Y145000D01*
Y130800D02*
X230600Y124400D01*
X154500Y124500D02*
X161300D01*
X164300Y138700D02*
X164500Y138500D01*
X164300Y138700D02*
Y149600D01*
X230000Y140700D02*
Y141600D01*
X272748Y86457D02*
X281200Y94909D01*
X144500Y138500D02*
X145500Y137500D01*
X154200D01*
X240158Y155512D02*
X242126Y153543D01*
X245374D01*
D59*
X106630Y143870D02*
X125984Y124516D01*
X110823Y117323D02*
X151480D01*
X104500Y104500D02*
Y111000D01*
X161800Y165870D02*
X169310Y158360D01*
X159800Y117300D02*
X169310Y126810D01*
Y158360D01*
X94500Y84500D02*
Y89500D01*
X185000Y179000D02*
X190000Y184000D01*
X166000Y179000D02*
X185000D01*
X186500Y104500D02*
Y159000D01*
X173130Y172370D02*
X186500Y159000D01*
X163600Y172900D02*
X178000Y158500D01*
Y126500D02*
Y158500D01*
X135370Y135130D02*
Y174000D01*
X106630Y143870D02*
Y174000D01*
X98032Y125282D02*
Y177032D01*
X100000Y179000D02*
X123000D01*
X98032Y177032D02*
X100000Y179000D01*
X303800Y145200D02*
X311400Y152800D01*
X303800Y96426D02*
Y145200D01*
X87869Y152797D02*
X87952Y152714D01*
Y149648D02*
Y152714D01*
X87869Y149565D02*
X87952Y149648D01*
X87869Y96131D02*
Y149565D01*
Y171869D02*
X100000Y184000D01*
X87869Y152797D02*
Y171869D01*
Y96131D02*
X94500Y89500D01*
X161800Y165870D02*
Y178800D01*
X114579Y65555D02*
Y73831D01*
X119500Y76193D02*
Y96100D01*
X114579Y101021D02*
X119500Y96100D01*
X114579Y101021D02*
Y102020D01*
X134500Y104500D02*
X140500Y110500D01*
X129500Y70476D02*
Y96042D01*
X133496Y100039D01*
X133539D02*
X134579Y101079D01*
X133496Y100039D02*
X133539D01*
X134579Y101079D02*
Y102020D01*
X94500Y104500D02*
Y121750D01*
X100000Y70134D02*
Y93657D01*
X94579Y99078D02*
X100000Y93657D01*
X94579Y99078D02*
Y102020D01*
X109579Y67051D02*
Y95821D01*
X104579Y100821D02*
X109579Y95821D01*
X104579Y100821D02*
Y102020D01*
X271063Y63689D02*
X303800Y96426D01*
X305600Y123000D02*
X307300Y124700D01*
X305600Y95680D02*
Y123000D01*
X273622Y63702D02*
X305600Y95680D01*
X387900Y99100D02*
X388600Y98400D01*
X370746Y99100D02*
X387900D01*
X361400Y108446D02*
X370746Y99100D01*
X341100Y110446D02*
X343100Y108446D01*
X341100Y110446D02*
Y121400D01*
X339400Y123100D02*
X341100Y121400D01*
X334600Y123100D02*
X339400D01*
X94500Y121750D02*
X98032Y125282D01*
X166000Y104500D02*
X176500D01*
X182000Y70906D02*
Y94385D01*
X176850Y99534D02*
X182000Y94385D01*
X176850Y99534D02*
Y102520D01*
X196850Y66055D02*
Y72342D01*
X201500Y76992D02*
Y96531D01*
X196850Y101181D02*
X201500Y96531D01*
X196850Y101181D02*
Y102520D01*
X191850Y67728D02*
Y93583D01*
X186850Y98583D02*
X191850Y93583D01*
X186850Y98583D02*
Y102520D01*
X151503Y117300D02*
X159800D01*
X151480Y117323D02*
X151503Y117300D01*
X104500Y111000D02*
X110823Y117323D01*
X278740Y61811D02*
X279134Y62205D01*
X318300Y106500D02*
X360800D01*
X343100Y108446D02*
X361400D01*
X273622Y57972D02*
Y63702D01*
X271063Y57972D02*
Y63689D01*
X185276Y53630D02*
X186752D01*
X176850Y62055D02*
X185276Y53630D01*
Y67630D02*
X186752D01*
X182000Y70906D02*
X185276Y67630D01*
X191752D02*
X191850Y67728D01*
X196850Y72342D02*
X201500Y76992D01*
X206850Y67630D02*
X212000Y72780D01*
X124567Y67039D02*
X126063D01*
X129500Y70476D01*
X114579Y73831D02*
X115551Y74803D01*
X118110D01*
X119500Y76193D01*
X109567Y67039D02*
X109579Y67051D01*
X103094Y67039D02*
X104567D01*
X100000Y70134D02*
X103094Y67039D01*
Y53039D02*
X104567D01*
X94579Y61555D02*
X103094Y53039D01*
X316614Y141086D02*
X334600Y123100D01*
X316614Y141086D02*
Y144291D01*
X161800Y178800D02*
X167000Y184000D01*
X162000Y110500D02*
X178000Y126500D01*
X140500Y110500D02*
X162000D01*
X216500Y104500D02*
Y159370D01*
X201870Y174000D02*
X216500Y159370D01*
X135370Y135130D02*
X145000Y125500D01*
X123000Y179000D02*
X128000Y184000D01*
X135370D01*
X245374Y150400D02*
Y151575D01*
X360800Y106500D02*
X371237Y96063D01*
X381693Y88189D02*
X386389D01*
X388600Y90400D01*
Y98400D01*
X371237Y96063D02*
X381693D01*
X316614Y108186D02*
X318300Y106500D01*
X316614Y108186D02*
Y115551D01*
X326614D02*
Y121486D01*
X323400Y124700D02*
X326614Y121486D01*
X307300Y124700D02*
X323400D01*
X326614Y144291D02*
Y151286D01*
X325100Y152800D02*
X326614Y151286D01*
X311400Y152800D02*
X325100D01*
X250689Y153543D02*
X251969D01*
X173130Y172370D02*
Y174000D01*
X163600Y172900D02*
Y176600D01*
X145000Y104500D02*
X165000Y84500D01*
X176500D01*
X190000Y184000D02*
X201870D01*
X163600Y176600D02*
X166000Y179000D01*
X167000Y184000D02*
X173130D01*
X100000D02*
X106630D01*
X212000Y97669D02*
X216850Y102520D01*
X212000Y72780D02*
Y97669D01*
X176850Y62055D02*
Y82520D01*
X94579Y61555D02*
Y82020D01*
D60*
X258748Y96457D02*
Y107264D01*
X286200Y103469D02*
Y140700D01*
X145800Y164050D02*
X152350Y157500D01*
X316500Y58630D02*
Y66200D01*
X364800Y70600D02*
X372547Y78347D01*
X320900Y70600D02*
X364800D01*
X316500Y66200D02*
X320900Y70600D01*
X154600Y169300D02*
Y183132D01*
Y169300D02*
X158650Y165250D01*
X303346Y54528D02*
X305196Y52678D01*
X284074Y54528D02*
X303346D01*
X326500Y87370D02*
Y94400D01*
X279134Y62205D02*
X299605D01*
X308800Y71400D01*
X305196Y52678D02*
X326516D01*
Y60433D01*
X323971Y96929D02*
X326500Y94400D01*
X308800Y92500D02*
X313229Y96929D01*
X323971D01*
X362253Y77953D02*
X367500Y83200D01*
X318247Y77953D02*
X362253D01*
X316500Y79700D02*
X318247Y77953D01*
X87200Y214200D02*
Y224900D01*
X252856Y153500D02*
X256031D01*
Y156532D01*
X258200Y158700D01*
X308800Y71400D02*
Y92500D01*
X293200Y224600D02*
X293400Y224400D01*
Y159300D02*
Y224400D01*
X286100Y99532D02*
X287974Y97658D01*
X293207D01*
X293307Y139693D02*
Y140193D01*
Y103957D02*
Y139693D01*
X87200Y214200D02*
X99600Y201800D01*
X110400D01*
X122500Y189700D01*
X141800D01*
X145800Y185700D01*
Y164050D02*
Y185700D01*
X158650Y157500D02*
Y165250D01*
X154600Y202050D02*
X155000Y202450D01*
X154600Y187068D02*
Y202050D01*
X245374Y150400D02*
X245600Y150174D01*
Y147700D02*
Y150174D01*
X372547Y78347D02*
X381693D01*
X388295Y105905D02*
X392200Y102000D01*
Y87200D02*
Y102000D01*
X388200Y83200D02*
X392200Y87200D01*
X381693Y105905D02*
X388295D01*
X367500Y83200D02*
X388200D01*
X316500Y79700D02*
Y87370D01*
X250500Y158689D02*
X250689Y158500D01*
D61*
X252600Y140700D02*
X286000D01*
X245600Y147700D02*
X252600Y140700D01*
X356516Y56150D02*
Y60433D01*
X353909Y53543D02*
X356516Y56150D01*
X345976Y53543D02*
X353909D01*
X368500Y136221D02*
Y141500D01*
Y127437D02*
Y136221D01*
X356614Y135963D02*
X368242D01*
X368500Y136221D01*
X356614Y135963D02*
Y144291D01*
X356516Y89173D02*
X356750Y89407D01*
Y100600D01*
X356516Y89173D02*
X358073D01*
X361400Y92500D01*
X368500D01*
X347600Y115551D02*
X356614D01*
X347600D02*
Y153700D01*
X343000Y158300D02*
X347600Y153700D01*
X303600Y158300D02*
X343000D01*
X102400Y224600D02*
X155000D01*
X87200D02*
X102400D01*
Y214162D02*
Y224600D01*
Y214162D02*
X102562Y214000D01*
X106630D01*
X155000Y224600D02*
X167323D01*
X167523Y214000D02*
Y224400D01*
X167323Y224600D02*
X167523Y224400D01*
Y214000D02*
X173130D01*
X216535Y202450D02*
X221050D01*
X201752D02*
X216535D01*
X204985Y214000D02*
X216535Y202450D01*
X201870Y214000D02*
X204985D01*
X155000Y202450D02*
X201752D01*
X201870Y202568D01*
X135370Y214000D02*
X146920Y202450D01*
X155000D01*
X221050D02*
X250500Y173000D01*
X343650Y100220D02*
Y100600D01*
X45773Y224900D02*
X87200D01*
X397400Y158400D02*
X399138Y160138D01*
X408500D01*
X390000Y151000D02*
X397400Y158400D01*
X408500Y160138D02*
Y222200D01*
X406100Y224600D02*
X408500Y222200D01*
X167323Y224600D02*
X406100D01*
X155000Y215550D02*
Y224600D01*
X286000Y140700D02*
X303600Y158300D01*
X250500Y158689D02*
Y173000D01*
X337700Y100500D02*
X342950D01*
X368500Y141500D02*
X378000Y151000D01*
X390000D01*
D62*
X43000Y164100D02*
X48300Y158800D01*
X43000Y222127D02*
X45773Y224900D01*
X43000Y164100D02*
Y222127D01*
D63*
X268504Y54752D02*
Y57972D01*
Y54752D02*
X269291Y53965D01*
X286024D01*
X278740Y57972D02*
Y61811D01*
D64*
X250689Y155984D02*
Y158500D01*
D65*
X152700Y61800D02*
D03*
X351200Y199000D02*
D03*
D66*
X396850Y101969D02*
D03*
Y82284D02*
D03*
D67*
X387400Y158400D02*
D03*
X397400D02*
D03*
X387400Y168400D02*
D03*
X397400D02*
D03*
X387400Y178400D02*
D03*
X397400D02*
D03*
X387400Y188400D02*
D03*
X397400D02*
D03*
X387400Y198400D02*
D03*
X397400D02*
D03*
X387400Y208400D02*
D03*
X397400D02*
D03*
X387400Y218400D02*
D03*
X397400D02*
D03*
D68*
X265453Y57087D02*
D03*
X281791D02*
D03*
D69*
X125984Y124516D02*
D03*
X132874Y125798D02*
D03*
X122835Y121074D02*
D03*
X258748Y107264D02*
D03*
X264173Y128347D02*
D03*
X254331Y148031D02*
D03*
X257800Y165900D02*
D03*
X362205Y99586D02*
D03*
X94488Y216300D02*
D03*
X73500Y210000D02*
D03*
X123800D02*
D03*
X98000Y209900D02*
D03*
X73900Y203900D02*
D03*
X79200Y165800D02*
D03*
X69000Y165900D02*
D03*
X377200D02*
D03*
X256100Y171700D02*
D03*
X175100Y165900D02*
D03*
X149606Y171600D02*
D03*
X158530D02*
D03*
X151200Y165900D02*
D03*
X297800Y165800D02*
D03*
X283600D02*
D03*
X245600Y165900D02*
D03*
X188600Y171600D02*
D03*
X187800Y165900D02*
D03*
X166100Y165870D02*
D03*
X141300Y165900D02*
D03*
X117800Y165800D02*
D03*
X103347Y165900D02*
D03*
X93800Y171600D02*
D03*
X69600Y171700D02*
D03*
X74300Y158700D02*
D03*
X84252Y151181D02*
D03*
X93701Y159843D02*
D03*
X88500Y177600D02*
D03*
X92600Y97000D02*
D03*
X175100Y151800D02*
D03*
X172244Y128557D02*
D03*
X164900Y117800D02*
D03*
X147638Y114173D02*
D03*
X139400Y113300D02*
D03*
X362554Y215832D02*
D03*
X340300Y216200D02*
D03*
X337000Y189600D02*
D03*
X336400Y197220D02*
D03*
X333300Y204000D02*
D03*
X336100Y210000D02*
D03*
X297900Y216200D02*
D03*
X162100Y216100D02*
D03*
X247800Y183400D02*
D03*
X237000Y197100D02*
D03*
X218200D02*
D03*
X377200Y177500D02*
D03*
X68800Y190100D02*
D03*
X185400Y215900D02*
D03*
X73400Y215700D02*
D03*
X283300Y215800D02*
D03*
X212100Y216000D02*
D03*
X122800Y215800D02*
D03*
X109600Y110600D02*
D03*
X232200Y159500D02*
D03*
X304300Y89500D02*
D03*
X309200Y99200D02*
D03*
X298400Y127400D02*
D03*
X299100Y109100D02*
D03*
X385500Y101900D02*
D03*
X362024Y66400D02*
D03*
X342700Y125600D02*
D03*
X331500Y110630D02*
D03*
X362554Y74400D02*
D03*
X368700Y56000D02*
D03*
X286500Y58400D02*
D03*
X232600Y96700D02*
D03*
X232400Y61900D02*
D03*
X55118Y100771D02*
D03*
X79600Y177600D02*
D03*
X79200Y171800D02*
D03*
X74500Y183400D02*
D03*
X183500Y183500D02*
D03*
X186400Y210200D02*
D03*
X187200Y197500D02*
D03*
X211000Y183700D02*
D03*
X210800Y177600D02*
D03*
X211200Y171800D02*
D03*
X219957Y210200D02*
D03*
X89821Y196329D02*
D03*
X124800Y196438D02*
D03*
X146399Y196506D02*
D03*
X163100Y196558D02*
D03*
X374200Y197220D02*
D03*
X223700Y189700D02*
D03*
X94800Y189600D02*
D03*
X283700Y189900D02*
D03*
X186500Y189600D02*
D03*
X149400D02*
D03*
X115300D02*
D03*
X69100Y159100D02*
D03*
X68600Y177500D02*
D03*
X89822Y183800D02*
D03*
X120000Y171800D02*
D03*
X126700Y177700D02*
D03*
X120100Y183800D02*
D03*
X150300Y184000D02*
D03*
X149400Y177500D02*
D03*
X192000Y177600D02*
D03*
X160100Y183700D02*
D03*
X161000Y210200D02*
D03*
X232100Y183500D02*
D03*
X237700Y177600D02*
D03*
X243900Y171800D02*
D03*
X254100Y177600D02*
D03*
X244100Y189700D02*
D03*
X232500Y204400D02*
D03*
X285039Y210215D02*
D03*
X255906Y204000D02*
D03*
X288500Y171900D02*
D03*
X283500Y177700D02*
D03*
X288000Y183700D02*
D03*
X302400Y171900D02*
D03*
X298200Y177500D02*
D03*
X306102Y183700D02*
D03*
X308661Y189961D02*
D03*
X317913Y204200D02*
D03*
X312008Y210000D02*
D03*
X377200Y189800D02*
D03*
X374400Y183300D02*
D03*
Y171900D02*
D03*
X379400Y203937D02*
D03*
X374400Y210000D02*
D03*
X379800Y215700D02*
D03*
X414961Y211417D02*
D03*
Y187068D02*
D03*
X414567Y159843D02*
D03*
X401968Y152800D02*
D03*
X331449Y134252D02*
D03*
X342700Y149600D02*
D03*
X354985Y127437D02*
D03*
X358661Y159000D02*
D03*
X381102Y158100D02*
D03*
X402756Y182677D02*
D03*
X403150Y165748D02*
D03*
X402362Y192913D02*
D03*
X402756Y203937D02*
D03*
Y218504D02*
D03*
X321600Y197220D02*
D03*
X256435Y197000D02*
D03*
X68898Y198779D02*
D03*
X287096Y150700D02*
D03*
X282579Y124700D02*
D03*
X281791Y134646D02*
D03*
X272748Y135400D02*
D03*
X220079Y136221D02*
D03*
X223228Y118504D02*
D03*
X220472Y128557D02*
D03*
X201870Y119291D02*
D03*
X212598Y128557D02*
D03*
X212205Y135827D02*
D03*
X172244Y136221D02*
D03*
X232796Y145669D02*
D03*
X245276Y139693D02*
D03*
X219957Y145276D02*
D03*
X201998Y145204D02*
D03*
X264173Y159000D02*
D03*
X244882Y159843D02*
D03*
X220866Y157373D02*
D03*
X212000Y156804D02*
D03*
X194095Y156189D02*
D03*
X182283Y156830D02*
D03*
X166535Y156204D02*
D03*
X138996Y143701D02*
D03*
X122835Y144095D02*
D03*
X68110Y151181D02*
D03*
Y131890D02*
D03*
X65354Y72835D02*
D03*
X128347Y159843D02*
D03*
X112205D02*
D03*
X140945Y159449D02*
D03*
X146399Y153500D02*
D03*
X84500Y119291D02*
D03*
X84252Y144488D02*
D03*
X93701Y127400D02*
D03*
Y147638D02*
D03*
X102362Y142913D02*
D03*
Y157087D02*
D03*
X158661Y142913D02*
D03*
X148819Y130315D02*
D03*
X142520Y120866D02*
D03*
X99606Y117717D02*
D03*
X216535Y96850D02*
D03*
X134646Y97264D02*
D03*
X103937D02*
D03*
X114173Y97244D02*
D03*
X168110Y88976D02*
D03*
X167323Y110457D02*
D03*
X179957Y119095D02*
D03*
X190945Y118110D02*
D03*
X211200Y114691D02*
D03*
X119291Y112598D02*
D03*
X129528Y112992D02*
D03*
X124409Y97244D02*
D03*
Y76772D02*
D03*
X206299Y77165D02*
D03*
X183465Y97244D02*
D03*
X194095Y97264D02*
D03*
X87402Y90100D02*
D03*
X90158Y62205D02*
D03*
X129921Y53150D02*
D03*
X98819Y64567D02*
D03*
X155000Y105905D02*
D03*
X134252Y74410D02*
D03*
X104331Y76772D02*
D03*
X112992Y77165D02*
D03*
X157700Y74700D02*
D03*
X170472Y80709D02*
D03*
X181102Y64961D02*
D03*
X177559Y56102D02*
D03*
X186614Y77165D02*
D03*
X196063D02*
D03*
X174016Y97264D02*
D03*
X206500Y97244D02*
D03*
X216535Y73228D02*
D03*
X212598Y53543D02*
D03*
X238583Y113779D02*
D03*
X240158Y73228D02*
D03*
X260236Y56299D02*
D03*
X261417Y90100D02*
D03*
X234646Y128347D02*
D03*
X245374Y127165D02*
D03*
X276772Y101181D02*
D03*
X280315Y80315D02*
D03*
X285039Y94705D02*
D03*
X289764Y108700D02*
D03*
Y135433D02*
D03*
X305906Y152362D02*
D03*
X297638Y144488D02*
D03*
X296063Y93701D02*
D03*
X299213Y76772D02*
D03*
X284074Y67728D02*
D03*
X308071Y133858D02*
D03*
X321654Y147638D02*
D03*
X311417D02*
D03*
X308661Y118504D02*
D03*
X328740Y124400D02*
D03*
X321654Y110630D02*
D03*
X330315Y101181D02*
D03*
X350394Y101969D02*
D03*
X373622Y92126D02*
D03*
X362992Y86614D02*
D03*
X346063D02*
D03*
X331102Y82284D02*
D03*
X321654Y92520D02*
D03*
X314173Y73228D02*
D03*
X373622Y103150D02*
D03*
X362992Y112598D02*
D03*
X373622Y120079D02*
D03*
X377953Y133858D02*
D03*
X397638D02*
D03*
X407480Y131890D02*
D03*
Y112205D02*
D03*
Y96457D02*
D03*
Y78740D02*
D03*
Y61024D02*
D03*
X303150Y43307D02*
D03*
X321850D02*
D03*
X342520D02*
D03*
X358268D02*
D03*
X377953D02*
D03*
X393701D02*
D03*
X409449D02*
D03*
X421260D02*
D03*
X429134D02*
D03*
Y64100D02*
D03*
Y82284D02*
D03*
Y98425D02*
D03*
Y114173D02*
D03*
X309200Y60039D02*
D03*
X321600Y60600D02*
D03*
X331600Y60583D02*
D03*
X345472Y60039D02*
D03*
X374016Y70866D02*
D03*
X390748Y78740D02*
D03*
Y109252D02*
D03*
X429134Y129921D02*
D03*
X43307Y137500D02*
D03*
Y114173D02*
D03*
Y94488D02*
D03*
Y74803D02*
D03*
Y59055D02*
D03*
Y43307D02*
D03*
X62559D02*
D03*
X82677D02*
D03*
X94488D02*
D03*
X114173D02*
D03*
X129921D02*
D03*
X145000D02*
D03*
X164300D02*
D03*
X181102D02*
D03*
X196850D02*
D03*
X216535D02*
D03*
X236221D02*
D03*
X429134Y141732D02*
D03*
Y153543D02*
D03*
Y165354D02*
D03*
Y181102D02*
D03*
Y192913D02*
D03*
Y208400D02*
D03*
Y220472D02*
D03*
Y232283D02*
D03*
X413386D02*
D03*
X397638D02*
D03*
X381890D02*
D03*
X362205D02*
D03*
X342520D02*
D03*
X322835D02*
D03*
X303150D02*
D03*
X282579D02*
D03*
X258200D02*
D03*
X236221D02*
D03*
X212598D02*
D03*
X188976D02*
D03*
X169291D02*
D03*
X149606D02*
D03*
X129921D02*
D03*
X113189D02*
D03*
X88583D02*
D03*
X43307D02*
D03*
X64961D02*
D03*
X230600Y124400D02*
D03*
X161300Y124500D02*
D03*
X164300Y149600D02*
D03*
X230000Y140700D02*
D03*
X154200Y137500D02*
D03*
X230300Y132300D02*
D03*
X166000Y104500D02*
D03*
X145000Y125500D02*
D03*
Y104500D02*
D03*
D70*
X345976Y53543D02*
D03*
X368500Y92500D02*
D03*
X347600Y115551D02*
D03*
X258200Y158700D02*
D03*
X293400Y159300D02*
D03*
X293307Y139693D02*
D03*
X337700Y100500D02*
D03*
X368500Y127437D02*
D03*
M02*
