G04*
G04 #@! TF.GenerationSoftware,Altium Limited,Altium Designer,18.1.9 (240)*
G04*
G04 Layer_Color=65535*
%FSLAX25Y25*%
%MOIN*%
G70*
G01*
G75*
%ADD10C,0.00984*%
%ADD11C,0.00394*%
%ADD12C,0.00787*%
%ADD13C,0.00602*%
%ADD14C,0.03937*%
%ADD15C,0.00600*%
%ADD16C,0.00300*%
%ADD17C,0.00039*%
G36*
X316374Y203091D02*
X325107Y179151D01*
X316476D01*
X308051Y195334D01*
X302400Y199803D01*
X306818Y191840D01*
X302143Y179151D01*
X292228D01*
X295824Y189118D01*
X275223Y192611D01*
X259555Y196464D01*
X257654Y202937D01*
X278614Y210592D01*
X280155Y206019D01*
X302400Y214136D01*
X316374Y203091D01*
D02*
G37*
G36*
X282775Y185830D02*
X280258Y179151D01*
X270343D01*
X274967Y191686D01*
X282775Y185830D01*
D02*
G37*
G36*
X69077Y125899D02*
X69943D01*
Y125683D01*
X70376D01*
Y125466D01*
X70810D01*
Y125249D01*
X71026D01*
Y125033D01*
Y124816D01*
X71243D01*
Y124600D01*
Y124383D01*
X71459D01*
Y124166D01*
Y123950D01*
Y123733D01*
X71676D01*
Y123516D01*
Y123300D01*
Y123083D01*
Y122866D01*
Y122650D01*
Y122433D01*
Y122217D01*
Y122000D01*
Y121783D01*
Y121567D01*
Y121350D01*
Y121133D01*
X71459D01*
Y120917D01*
Y120700D01*
Y120484D01*
X71243D01*
Y120267D01*
Y120050D01*
X71026D01*
Y119834D01*
X70810D01*
Y119617D01*
X70593D01*
Y119401D01*
X70376D01*
Y119184D01*
X69726D01*
Y118967D01*
X59978D01*
Y119184D01*
X59329D01*
Y118967D01*
X59112D01*
Y118751D01*
X58895D01*
Y118534D01*
X58679D01*
Y118317D01*
X58462D01*
Y118101D01*
X58245D01*
Y117884D01*
X58029D01*
Y118101D01*
X57812D01*
Y118317D01*
X57595D01*
Y118534D01*
X57379D01*
Y118751D01*
X57162D01*
Y118967D01*
X56946D01*
Y119184D01*
X56729D01*
Y119401D01*
Y119617D01*
X56946D01*
Y119834D01*
X57162D01*
Y120050D01*
X57595D01*
Y120267D01*
X57812D01*
Y120484D01*
X58029D01*
Y120700D01*
X58245D01*
Y120917D01*
Y121133D01*
Y121350D01*
Y121567D01*
Y121783D01*
Y122000D01*
Y122217D01*
Y122433D01*
Y122650D01*
Y122866D01*
Y123083D01*
Y123300D01*
Y123516D01*
Y123733D01*
Y123950D01*
Y124166D01*
X58462D01*
Y124383D01*
Y124600D01*
X58679D01*
Y124816D01*
Y125033D01*
X58895D01*
Y125249D01*
X59112D01*
Y125466D01*
X59329D01*
Y125683D01*
X59762D01*
Y125899D01*
X60628D01*
Y126116D01*
X69077D01*
Y125899D01*
D02*
G37*
G36*
X69943Y117234D02*
X70376D01*
Y117018D01*
X70810D01*
Y116801D01*
X71026D01*
Y116584D01*
Y116368D01*
X71243D01*
Y116151D01*
Y115935D01*
X71459D01*
Y115718D01*
Y115501D01*
Y115285D01*
X71676D01*
Y115068D01*
Y114851D01*
Y114635D01*
Y114418D01*
Y114202D01*
Y113985D01*
Y113768D01*
Y113552D01*
Y113335D01*
Y113119D01*
Y112902D01*
Y112685D01*
X71459D01*
Y112469D01*
Y112252D01*
Y112035D01*
X71243D01*
Y111819D01*
Y111602D01*
X71026D01*
Y111386D01*
Y111169D01*
X70810D01*
Y110952D01*
X70376D01*
Y110736D01*
X69943D01*
Y110519D01*
X59762D01*
Y110736D01*
X59329D01*
Y110952D01*
X59112D01*
Y111169D01*
X58895D01*
Y111386D01*
X58679D01*
Y111602D01*
Y111819D01*
X58462D01*
Y112035D01*
Y112252D01*
X58245D01*
Y112469D01*
Y112685D01*
Y112902D01*
Y113119D01*
Y113335D01*
Y113552D01*
Y113768D01*
Y113985D01*
Y114202D01*
Y114418D01*
Y114635D01*
Y114851D01*
Y115068D01*
Y115285D01*
Y115501D01*
Y115718D01*
X58462D01*
Y115935D01*
Y116151D01*
X58679D01*
Y116368D01*
Y116584D01*
X58895D01*
Y116801D01*
X59112D01*
Y117018D01*
X59329D01*
Y117234D01*
X59762D01*
Y117451D01*
X69943D01*
Y117234D01*
D02*
G37*
G36*
X71459Y108786D02*
Y108569D01*
Y108353D01*
Y108136D01*
Y107920D01*
Y107703D01*
Y107486D01*
Y107270D01*
Y107053D01*
Y106836D01*
Y106620D01*
X58462D01*
Y106836D01*
Y107053D01*
Y107270D01*
Y107486D01*
Y107703D01*
Y107920D01*
Y108136D01*
Y108353D01*
Y108569D01*
Y108786D01*
Y109003D01*
X71459D01*
Y108786D01*
D02*
G37*
G36*
Y105320D02*
Y105103D01*
Y104887D01*
Y104670D01*
Y104454D01*
Y104237D01*
Y104020D01*
Y103804D01*
Y103587D01*
Y103370D01*
Y103154D01*
Y102937D01*
Y102721D01*
Y102504D01*
Y102287D01*
Y102071D01*
Y101854D01*
Y101637D01*
Y101421D01*
Y101204D01*
Y100988D01*
Y100771D01*
Y100554D01*
Y100338D01*
Y100121D01*
Y99904D01*
Y99688D01*
Y99471D01*
Y99255D01*
Y99038D01*
Y98821D01*
Y98605D01*
Y98388D01*
X69726D01*
Y98605D01*
X69510D01*
Y98821D01*
X69726D01*
Y99038D01*
Y99255D01*
Y99471D01*
Y99688D01*
Y99904D01*
Y100121D01*
Y100338D01*
Y100554D01*
Y100771D01*
X58462D01*
Y100988D01*
Y101204D01*
Y101421D01*
Y101637D01*
Y101854D01*
Y102071D01*
Y102287D01*
Y102504D01*
Y102721D01*
Y102937D01*
Y103154D01*
X69510D01*
Y103370D01*
X69726D01*
Y103587D01*
Y103804D01*
Y104020D01*
Y104237D01*
Y104454D01*
Y104670D01*
Y104887D01*
Y105103D01*
Y105320D01*
X69510D01*
Y105537D01*
X71459D01*
Y105320D01*
D02*
G37*
G36*
Y97305D02*
Y97088D01*
Y96872D01*
Y96655D01*
Y96438D01*
Y96222D01*
Y96005D01*
Y95789D01*
Y95572D01*
Y95355D01*
Y95139D01*
Y94922D01*
Y94705D01*
Y94489D01*
Y94272D01*
Y94056D01*
Y93839D01*
Y93622D01*
Y93406D01*
Y93189D01*
Y92972D01*
Y92756D01*
Y92539D01*
Y92323D01*
Y92106D01*
Y91889D01*
Y91673D01*
Y91456D01*
Y91240D01*
X69510D01*
Y91456D01*
Y91673D01*
Y91889D01*
Y92106D01*
Y92323D01*
Y92539D01*
Y92756D01*
Y92972D01*
Y93189D01*
Y93406D01*
Y93622D01*
Y93839D01*
Y94056D01*
Y94272D01*
Y94489D01*
Y94705D01*
Y94922D01*
Y95139D01*
X66477D01*
Y94922D01*
Y94705D01*
Y94489D01*
Y94272D01*
Y94056D01*
Y93839D01*
Y93622D01*
Y93406D01*
Y93189D01*
Y92972D01*
Y92756D01*
Y92539D01*
Y92323D01*
Y92106D01*
Y91889D01*
Y91673D01*
Y91456D01*
X64527D01*
Y91673D01*
Y91889D01*
Y92106D01*
Y92323D01*
Y92539D01*
Y92756D01*
Y92972D01*
Y93189D01*
Y93406D01*
Y93622D01*
Y93839D01*
Y94056D01*
Y94272D01*
Y94489D01*
Y94705D01*
Y94922D01*
Y95139D01*
X60412D01*
Y94922D01*
Y94705D01*
Y94489D01*
Y94272D01*
Y94056D01*
Y93839D01*
Y93622D01*
Y93406D01*
Y93189D01*
Y92972D01*
Y92756D01*
Y92539D01*
Y92323D01*
Y92106D01*
Y91889D01*
Y91673D01*
Y91456D01*
Y91240D01*
Y91023D01*
X58462D01*
Y91240D01*
Y91456D01*
Y91673D01*
Y91889D01*
Y92106D01*
Y92323D01*
Y92539D01*
Y92756D01*
Y92972D01*
Y93189D01*
Y93406D01*
Y93622D01*
Y93839D01*
Y94056D01*
Y94272D01*
Y94489D01*
Y94705D01*
Y94922D01*
Y95139D01*
Y95355D01*
Y95572D01*
Y95789D01*
Y96005D01*
Y96222D01*
Y96438D01*
Y96655D01*
Y96872D01*
Y97088D01*
Y97305D01*
Y97522D01*
X71459D01*
Y97305D01*
D02*
G37*
G36*
X69726Y89940D02*
X70376D01*
Y89723D01*
X70593D01*
Y89507D01*
X70810D01*
Y89290D01*
X71026D01*
Y89073D01*
X71243D01*
Y88857D01*
Y88640D01*
X71459D01*
Y88423D01*
Y88207D01*
Y87990D01*
X71676D01*
Y87774D01*
Y87557D01*
Y87340D01*
Y87124D01*
Y86907D01*
Y86690D01*
Y86474D01*
Y86257D01*
Y86041D01*
Y85824D01*
Y85607D01*
Y85391D01*
Y85174D01*
X71459D01*
Y84957D01*
Y84741D01*
Y84524D01*
X71243D01*
Y84308D01*
Y84091D01*
X71026D01*
Y83874D01*
X70810D01*
Y83658D01*
X70593D01*
Y83441D01*
X70160D01*
Y83224D01*
X66694D01*
Y83441D01*
Y83658D01*
Y83874D01*
Y84091D01*
Y84308D01*
Y84524D01*
Y84741D01*
Y84957D01*
Y85174D01*
Y85391D01*
X69077D01*
Y85607D01*
X69510D01*
Y85824D01*
X69726D01*
Y86041D01*
X69943D01*
Y86257D01*
Y86474D01*
Y86690D01*
Y86907D01*
Y87124D01*
Y87340D01*
X69726D01*
Y87557D01*
X69510D01*
Y87774D01*
X60412D01*
Y87557D01*
X60195D01*
Y87340D01*
X59978D01*
Y87124D01*
Y86907D01*
Y86690D01*
Y86474D01*
Y86257D01*
Y86041D01*
X60195D01*
Y85824D01*
X60412D01*
Y85607D01*
X60845D01*
Y85391D01*
X63228D01*
Y85174D01*
Y84957D01*
Y84741D01*
Y84524D01*
Y84308D01*
Y84091D01*
Y83874D01*
Y83658D01*
Y83441D01*
Y83224D01*
X59978D01*
Y83441D01*
X59545D01*
Y83658D01*
X59112D01*
Y83874D01*
X58895D01*
Y84091D01*
X58679D01*
Y84308D01*
Y84524D01*
X58462D01*
Y84741D01*
Y84957D01*
X58245D01*
Y85174D01*
Y85391D01*
Y85607D01*
Y85824D01*
Y86041D01*
Y86257D01*
Y86474D01*
Y86690D01*
Y86907D01*
Y87124D01*
Y87340D01*
Y87557D01*
Y87774D01*
Y87990D01*
Y88207D01*
X58462D01*
Y88423D01*
Y88640D01*
Y88857D01*
X58679D01*
Y89073D01*
Y89290D01*
X58895D01*
Y89507D01*
X59112D01*
Y89723D01*
X59545D01*
Y89940D01*
X59978D01*
Y90156D01*
X69726D01*
Y89940D01*
D02*
G37*
G36*
X71459Y81708D02*
Y81492D01*
Y81275D01*
Y81058D01*
Y80842D01*
Y80625D01*
Y80408D01*
Y80192D01*
Y79975D01*
Y79759D01*
X66477D01*
Y79542D01*
X66260D01*
Y79325D01*
Y79109D01*
Y78892D01*
Y78675D01*
Y78459D01*
Y78242D01*
Y78026D01*
Y77809D01*
Y77592D01*
Y77376D01*
X71459D01*
Y77159D01*
Y76942D01*
Y76726D01*
Y76509D01*
Y76293D01*
Y76076D01*
Y75859D01*
Y75643D01*
Y75426D01*
Y75209D01*
Y74993D01*
X58462D01*
Y75209D01*
Y75426D01*
Y75643D01*
Y75859D01*
Y76076D01*
Y76293D01*
Y76509D01*
Y76726D01*
Y76942D01*
Y77159D01*
Y77376D01*
X64311D01*
Y77592D01*
Y77809D01*
Y78026D01*
Y78242D01*
Y78459D01*
Y78675D01*
Y78892D01*
Y79109D01*
Y79325D01*
Y79542D01*
Y79759D01*
X58462D01*
Y79975D01*
Y80192D01*
Y80408D01*
Y80625D01*
Y80842D01*
Y81058D01*
Y81275D01*
Y81492D01*
Y81708D01*
Y81925D01*
X71459D01*
Y81708D01*
D02*
G37*
G36*
X50397Y137541D02*
X50387D01*
X50369Y137531D01*
X50333D01*
X50296Y137522D01*
X50187Y137486D01*
X50050Y137440D01*
X49896Y137386D01*
X49741Y137304D01*
X49604Y137213D01*
X49476Y137094D01*
X49467Y137076D01*
X49431Y137030D01*
X49385Y136958D01*
X49331Y136848D01*
X49276Y136712D01*
X49231Y136557D01*
X49194Y136374D01*
X49185Y136165D01*
Y136065D01*
X49203Y135955D01*
X49221Y135819D01*
X49249Y135673D01*
X49294Y135518D01*
X49358Y135372D01*
X49440Y135245D01*
X49449Y135227D01*
X49485Y135190D01*
X49540Y135145D01*
X49613Y135081D01*
X49704Y135026D01*
X49814Y134972D01*
X49923Y134935D01*
X50050Y134926D01*
X50059D01*
X50087D01*
X50132Y134935D01*
X50187Y134944D01*
X50242Y134962D01*
X50305Y134981D01*
X50369Y135017D01*
X50433Y135063D01*
X50442Y135072D01*
X50460Y135090D01*
X50488Y135117D01*
X50524Y135163D01*
X50570Y135227D01*
X50615Y135309D01*
X50661Y135400D01*
X50706Y135518D01*
Y135527D01*
X50725Y135564D01*
X50743Y135627D01*
X50761Y135673D01*
X50770Y135728D01*
X50788Y135792D01*
X50816Y135864D01*
X50834Y135946D01*
X50861Y136037D01*
X50889Y136147D01*
X50916Y136265D01*
X50952Y136393D01*
X50989Y136539D01*
Y136548D01*
X50998Y136584D01*
X51016Y136639D01*
X51034Y136702D01*
X51062Y136784D01*
X51089Y136885D01*
X51125Y136985D01*
X51162Y137103D01*
X51253Y137340D01*
X51362Y137568D01*
X51417Y137686D01*
X51481Y137786D01*
X51544Y137887D01*
X51608Y137969D01*
X51617Y137978D01*
X51635Y137996D01*
X51663Y138023D01*
X51699Y138060D01*
X51754Y138105D01*
X51818Y138151D01*
X51881Y138206D01*
X51964Y138251D01*
X52155Y138361D01*
X52373Y138452D01*
X52492Y138488D01*
X52610Y138515D01*
X52747Y138534D01*
X52884Y138543D01*
X52893D01*
X52902D01*
X52929D01*
X52965D01*
X53057Y138524D01*
X53175Y138506D01*
X53312Y138479D01*
X53467Y138433D01*
X53631Y138370D01*
X53786Y138278D01*
X53795D01*
X53804Y138269D01*
X53858Y138224D01*
X53931Y138169D01*
X54022Y138078D01*
X54123Y137969D01*
X54232Y137832D01*
X54332Y137677D01*
X54423Y137495D01*
Y137486D01*
X54432Y137468D01*
X54441Y137440D01*
X54460Y137404D01*
X54478Y137349D01*
X54496Y137295D01*
X54514Y137222D01*
X54542Y137140D01*
X54578Y136958D01*
X54615Y136748D01*
X54642Y136511D01*
X54651Y136247D01*
Y136138D01*
X54642Y136056D01*
X54633Y135955D01*
X54624Y135837D01*
X54605Y135719D01*
X54587Y135582D01*
X54523Y135290D01*
X54478Y135145D01*
X54432Y134999D01*
X54369Y134853D01*
X54296Y134716D01*
X54214Y134589D01*
X54123Y134470D01*
X54113Y134461D01*
X54095Y134443D01*
X54068Y134416D01*
X54031Y134379D01*
X53977Y134334D01*
X53913Y134279D01*
X53840Y134224D01*
X53758Y134161D01*
X53658Y134106D01*
X53558Y134051D01*
X53439Y133997D01*
X53312Y133951D01*
X53184Y133906D01*
X53038Y133869D01*
X52893Y133842D01*
X52729Y133833D01*
X52683Y135108D01*
X52692D01*
X52701D01*
X52765Y135126D01*
X52847Y135145D01*
X52947Y135181D01*
X53066Y135227D01*
X53175Y135290D01*
X53284Y135372D01*
X53376Y135464D01*
X53385Y135473D01*
X53412Y135509D01*
X53448Y135573D01*
X53485Y135664D01*
X53521Y135773D01*
X53558Y135910D01*
X53585Y136074D01*
X53594Y136265D01*
Y136356D01*
X53585Y136457D01*
X53567Y136575D01*
X53540Y136712D01*
X53494Y136857D01*
X53439Y136994D01*
X53357Y137121D01*
X53348Y137131D01*
X53330Y137149D01*
X53303Y137185D01*
X53257Y137222D01*
X53202Y137258D01*
X53130Y137295D01*
X53057Y137313D01*
X52965Y137322D01*
X52956D01*
X52929D01*
X52884Y137313D01*
X52838Y137295D01*
X52774Y137276D01*
X52710Y137249D01*
X52647Y137204D01*
X52583Y137140D01*
X52574Y137131D01*
X52547Y137085D01*
X52528Y137058D01*
X52510Y137012D01*
X52483Y136967D01*
X52455Y136903D01*
X52428Y136830D01*
X52392Y136748D01*
X52355Y136648D01*
X52319Y136548D01*
X52282Y136420D01*
X52246Y136283D01*
X52209Y136138D01*
X52164Y135974D01*
Y135965D01*
X52155Y135928D01*
X52146Y135882D01*
X52127Y135819D01*
X52109Y135746D01*
X52082Y135655D01*
X52055Y135555D01*
X52027Y135454D01*
X51954Y135236D01*
X51881Y135008D01*
X51799Y134789D01*
X51754Y134698D01*
X51708Y134607D01*
Y134598D01*
X51699Y134589D01*
X51663Y134534D01*
X51608Y134452D01*
X51535Y134352D01*
X51444Y134243D01*
X51335Y134124D01*
X51207Y134006D01*
X51062Y133906D01*
X51043Y133897D01*
X50989Y133869D01*
X50907Y133824D01*
X50788Y133778D01*
X50643Y133733D01*
X50469Y133687D01*
X50278Y133660D01*
X50059Y133651D01*
X50050D01*
X50032D01*
X50005D01*
X49968D01*
X49923Y133660D01*
X49859Y133669D01*
X49731Y133687D01*
X49567Y133723D01*
X49394Y133778D01*
X49221Y133860D01*
X49039Y133960D01*
X49030D01*
X49021Y133979D01*
X48966Y134015D01*
X48875Y134088D01*
X48775Y134179D01*
X48656Y134297D01*
X48547Y134452D01*
X48438Y134616D01*
X48338Y134817D01*
Y134826D01*
X48329Y134844D01*
X48320Y134871D01*
X48301Y134917D01*
X48283Y134972D01*
X48265Y135035D01*
X48247Y135108D01*
X48228Y135190D01*
X48201Y135290D01*
X48183Y135391D01*
X48146Y135627D01*
X48119Y135892D01*
X48110Y136183D01*
Y136302D01*
X48119Y136384D01*
X48128Y136484D01*
X48137Y136593D01*
X48156Y136721D01*
X48183Y136857D01*
X48247Y137158D01*
X48292Y137313D01*
X48338Y137459D01*
X48401Y137613D01*
X48474Y137759D01*
X48556Y137896D01*
X48656Y138023D01*
X48666Y138032D01*
X48684Y138051D01*
X48711Y138087D01*
X48757Y138124D01*
X48820Y138178D01*
X48893Y138233D01*
X48975Y138297D01*
X49066Y138361D01*
X49176Y138424D01*
X49294Y138488D01*
X49431Y138552D01*
X49577Y138616D01*
X49731Y138661D01*
X49905Y138716D01*
X50087Y138752D01*
X50278Y138779D01*
X50397Y137541D01*
D02*
G37*
G36*
X52802Y132011D02*
X49804Y131155D01*
X52802Y130362D01*
Y129196D01*
X49804Y128440D01*
X52802Y127565D01*
Y126372D01*
X48228Y127838D01*
Y129005D01*
X51162Y129788D01*
X48228Y130562D01*
Y131737D01*
X52802Y133177D01*
Y132011D01*
D02*
G37*
G36*
X54532Y124522D02*
X53412D01*
Y125734D01*
X54532D01*
Y124522D01*
D02*
G37*
G36*
X52802D02*
X48228D01*
Y125734D01*
X52802D01*
Y124522D01*
D02*
G37*
G36*
Y123220D02*
X53713D01*
X54423Y122008D01*
X52802D01*
Y121179D01*
X51836D01*
Y122008D01*
X49987D01*
X49977D01*
X49959D01*
X49932D01*
X49896D01*
X49804D01*
X49695D01*
X49586Y121999D01*
X49476D01*
X49394D01*
X49358Y121990D01*
X49340D01*
X49322Y121981D01*
X49285Y121962D01*
X49240Y121935D01*
X49185Y121880D01*
X49176Y121862D01*
X49158Y121826D01*
X49139Y121762D01*
X49130Y121680D01*
Y121644D01*
X49139Y121607D01*
X49148Y121553D01*
X49158Y121480D01*
X49176Y121398D01*
X49203Y121297D01*
X49240Y121188D01*
X48301Y121079D01*
Y121088D01*
X48292Y121097D01*
X48274Y121152D01*
X48247Y121243D01*
X48219Y121361D01*
X48183Y121498D01*
X48156Y121662D01*
X48137Y121844D01*
X48128Y122035D01*
Y122090D01*
X48137Y122154D01*
X48146Y122236D01*
X48156Y122327D01*
X48174Y122427D01*
X48201Y122527D01*
X48237Y122627D01*
X48247Y122637D01*
X48256Y122673D01*
X48283Y122719D01*
X48310Y122773D01*
X48401Y122901D01*
X48456Y122965D01*
X48520Y123019D01*
X48529Y123028D01*
X48556Y123037D01*
X48593Y123056D01*
X48647Y123083D01*
X48711Y123110D01*
X48793Y123138D01*
X48884Y123165D01*
X48985Y123183D01*
X48994D01*
X49030Y123192D01*
X49085D01*
X49176Y123201D01*
X49294Y123211D01*
X49440D01*
X49522Y123220D01*
X49622D01*
X49722D01*
X49841D01*
X51836D01*
Y123775D01*
X52802D01*
Y123220D01*
D02*
G37*
G36*
X50688Y120605D02*
X50788Y120596D01*
X50898Y120587D01*
X51016Y120569D01*
X51153Y120541D01*
X51435Y120468D01*
X51581Y120423D01*
X51727Y120368D01*
X51872Y120295D01*
X52009Y120213D01*
X52136Y120122D01*
X52264Y120022D01*
X52273Y120013D01*
X52291Y119995D01*
X52319Y119958D01*
X52364Y119913D01*
X52410Y119849D01*
X52464Y119776D01*
X52528Y119694D01*
X52583Y119594D01*
X52647Y119484D01*
X52701Y119366D01*
X52756Y119229D01*
X52802Y119084D01*
X52847Y118938D01*
X52874Y118765D01*
X52893Y118592D01*
X52902Y118410D01*
Y118328D01*
X52893Y118273D01*
Y118200D01*
X52884Y118118D01*
X52874Y118027D01*
X52856Y117927D01*
X52811Y117717D01*
X52747Y117499D01*
X52656Y117280D01*
X52537Y117079D01*
Y117070D01*
X52519Y117061D01*
X52501Y117034D01*
X52474Y116998D01*
X52392Y116916D01*
X52273Y116806D01*
X52118Y116688D01*
X51936Y116569D01*
X51718Y116460D01*
X51462Y116369D01*
X51244Y117562D01*
X51262D01*
X51298Y117571D01*
X51362Y117590D01*
X51444Y117617D01*
X51526Y117663D01*
X51617Y117708D01*
X51699Y117772D01*
X51772Y117845D01*
X51781Y117854D01*
X51799Y117881D01*
X51827Y117927D01*
X51863Y117991D01*
X51900Y118072D01*
X51927Y118164D01*
X51945Y118273D01*
X51954Y118391D01*
Y118410D01*
X51945Y118464D01*
X51936Y118546D01*
X51918Y118656D01*
X51872Y118765D01*
X51818Y118883D01*
X51745Y119002D01*
X51635Y119111D01*
X51617Y119120D01*
X51572Y119148D01*
X51499Y119193D01*
X51389Y119239D01*
X51244Y119293D01*
X51162Y119311D01*
X51071Y119330D01*
X50961Y119348D01*
X50852Y119366D01*
X50725Y119375D01*
X50597D01*
X50588D01*
X50560D01*
X50515D01*
X50460Y119366D01*
X50397D01*
X50324Y119357D01*
X50141Y119339D01*
X49950Y119311D01*
X49759Y119257D01*
X49586Y119193D01*
X49513Y119148D01*
X49440Y119102D01*
X49422Y119093D01*
X49385Y119047D01*
X49340Y118993D01*
X49276Y118911D01*
X49212Y118801D01*
X49167Y118683D01*
X49130Y118537D01*
X49112Y118373D01*
Y118318D01*
X49121Y118255D01*
X49139Y118173D01*
X49158Y118082D01*
X49194Y117991D01*
X49240Y117899D01*
X49303Y117808D01*
X49312Y117799D01*
X49340Y117772D01*
X49385Y117735D01*
X49458Y117681D01*
X49549Y117626D01*
X49668Y117581D01*
X49814Y117526D01*
X49977Y117490D01*
X49777Y116305D01*
X49768D01*
X49741Y116314D01*
X49695Y116323D01*
X49640Y116342D01*
X49577Y116369D01*
X49495Y116396D01*
X49312Y116469D01*
X49112Y116560D01*
X48912Y116688D01*
X48711Y116843D01*
X48620Y116934D01*
X48538Y117025D01*
Y117034D01*
X48520Y117052D01*
X48502Y117079D01*
X48474Y117116D01*
X48447Y117171D01*
X48411Y117234D01*
X48374Y117307D01*
X48338Y117398D01*
X48292Y117490D01*
X48256Y117599D01*
X48219Y117708D01*
X48192Y117836D01*
X48165Y117972D01*
X48146Y118118D01*
X48137Y118264D01*
X48128Y118428D01*
Y118528D01*
X48137Y118592D01*
X48146Y118674D01*
X48165Y118774D01*
X48183Y118883D01*
X48210Y119002D01*
X48237Y119129D01*
X48283Y119257D01*
X48329Y119394D01*
X48392Y119521D01*
X48465Y119658D01*
X48547Y119785D01*
X48647Y119904D01*
X48757Y120022D01*
X48766Y120031D01*
X48784Y120049D01*
X48820Y120077D01*
X48875Y120113D01*
X48939Y120159D01*
X49012Y120213D01*
X49103Y120259D01*
X49212Y120314D01*
X49331Y120377D01*
X49458Y120423D01*
X49604Y120477D01*
X49759Y120523D01*
X49932Y120560D01*
X50105Y120587D01*
X50305Y120605D01*
X50506Y120614D01*
X50515D01*
X50551D01*
X50615D01*
X50688Y120605D01*
D02*
G37*
G36*
X54532Y114246D02*
X52200D01*
X52209Y114237D01*
X52228Y114219D01*
X52264Y114182D01*
X52310Y114146D01*
X52364Y114082D01*
X52419Y114019D01*
X52483Y113937D01*
X52556Y113855D01*
X52619Y113754D01*
X52683Y113645D01*
X52793Y113408D01*
X52838Y113281D01*
X52874Y113144D01*
X52893Y112998D01*
X52902Y112853D01*
Y112780D01*
X52893Y112698D01*
X52884Y112597D01*
X52865Y112479D01*
X52829Y112361D01*
X52793Y112224D01*
X52738Y112096D01*
X52729Y112078D01*
X52710Y112042D01*
X52674Y111978D01*
X52628Y111905D01*
X52574Y111823D01*
X52510Y111741D01*
X52428Y111659D01*
X52346Y111586D01*
X52337Y111577D01*
X52301Y111559D01*
X52255Y111531D01*
X52191Y111495D01*
X52109Y111450D01*
X52018Y111413D01*
X51918Y111377D01*
X51809Y111349D01*
X51799D01*
X51754Y111340D01*
X51681Y111331D01*
X51590Y111313D01*
X51462Y111304D01*
X51307Y111295D01*
X51125Y111285D01*
X50907D01*
X48228D01*
Y112497D01*
X50633D01*
X50643D01*
X50661D01*
X50697D01*
X50752D01*
X50806D01*
X50870D01*
X51016Y112506D01*
X51171Y112515D01*
X51326Y112524D01*
X51453Y112543D01*
X51499Y112561D01*
X51544Y112570D01*
X51553D01*
X51581Y112588D01*
X51608Y112607D01*
X51654Y112625D01*
X51754Y112707D01*
X51809Y112752D01*
X51854Y112816D01*
X51863Y112825D01*
X51872Y112843D01*
X51891Y112889D01*
X51918Y112935D01*
X51936Y112998D01*
X51954Y113071D01*
X51964Y113162D01*
X51973Y113253D01*
Y113308D01*
X51964Y113363D01*
X51954Y113435D01*
X51936Y113517D01*
X51909Y113609D01*
X51872Y113700D01*
X51818Y113791D01*
X51809Y113800D01*
X51790Y113827D01*
X51754Y113873D01*
X51708Y113918D01*
X51645Y113982D01*
X51572Y114037D01*
X51481Y114091D01*
X51380Y114137D01*
X51371D01*
X51326Y114155D01*
X51262Y114173D01*
X51162Y114192D01*
X51043Y114210D01*
X50889Y114228D01*
X50715Y114237D01*
X50515Y114246D01*
X48228D01*
Y115458D01*
X54532D01*
Y114246D01*
D02*
G37*
G36*
Y104827D02*
X54523Y104663D01*
X54514Y104480D01*
X54505Y104298D01*
X54487Y104125D01*
X54469Y103970D01*
Y103952D01*
X54460Y103906D01*
X54441Y103843D01*
X54414Y103752D01*
X54378Y103651D01*
X54332Y103542D01*
X54277Y103424D01*
X54204Y103314D01*
X54195Y103305D01*
X54168Y103269D01*
X54123Y103214D01*
X54068Y103141D01*
X53986Y103068D01*
X53895Y102986D01*
X53795Y102904D01*
X53676Y102831D01*
X53658Y102822D01*
X53622Y102804D01*
X53549Y102768D01*
X53457Y102731D01*
X53348Y102695D01*
X53230Y102658D01*
X53084Y102640D01*
X52938Y102631D01*
X52929D01*
X52920D01*
X52865D01*
X52783Y102640D01*
X52674Y102658D01*
X52547Y102695D01*
X52410Y102731D01*
X52273Y102795D01*
X52127Y102877D01*
X52109Y102886D01*
X52064Y102923D01*
X52000Y102977D01*
X51918Y103041D01*
X51836Y103132D01*
X51736Y103241D01*
X51654Y103369D01*
X51572Y103515D01*
Y103506D01*
X51563Y103487D01*
X51553Y103460D01*
X51544Y103424D01*
X51499Y103314D01*
X51435Y103187D01*
X51362Y103050D01*
X51262Y102895D01*
X51143Y102759D01*
X50998Y102631D01*
X50980Y102622D01*
X50925Y102585D01*
X50843Y102531D01*
X50734Y102476D01*
X50588Y102421D01*
X50433Y102367D01*
X50251Y102330D01*
X50050Y102321D01*
X50041D01*
X50032D01*
X49977D01*
X49896Y102330D01*
X49786Y102349D01*
X49659Y102367D01*
X49513Y102403D01*
X49367Y102458D01*
X49212Y102522D01*
X49194Y102531D01*
X49148Y102558D01*
X49076Y102604D01*
X48985Y102667D01*
X48875Y102740D01*
X48775Y102841D01*
X48666Y102941D01*
X48565Y103068D01*
X48556Y103087D01*
X48529Y103132D01*
X48483Y103205D01*
X48438Y103305D01*
X48383Y103433D01*
X48338Y103578D01*
X48292Y103743D01*
X48265Y103925D01*
Y103961D01*
X48256Y103998D01*
Y104089D01*
X48247Y104152D01*
Y104325D01*
X48237Y104435D01*
Y104708D01*
X48228Y104863D01*
Y107596D01*
X54532D01*
Y104827D01*
D02*
G37*
G36*
X50679Y101520D02*
X50734D01*
X50797Y101511D01*
X50952Y101492D01*
X51125Y101456D01*
X51317Y101401D01*
X51526Y101337D01*
X51736Y101237D01*
X51745D01*
X51763Y101219D01*
X51790Y101210D01*
X51827Y101183D01*
X51927Y101110D01*
X52055Y101019D01*
X52191Y100900D01*
X52337Y100754D01*
X52474Y100590D01*
X52601Y100399D01*
Y100390D01*
X52610Y100372D01*
X52628Y100344D01*
X52647Y100299D01*
X52674Y100253D01*
X52692Y100190D01*
X52720Y100117D01*
X52756Y100044D01*
X52811Y99862D01*
X52856Y99652D01*
X52893Y99424D01*
X52902Y99178D01*
Y99078D01*
X52893Y99005D01*
X52884Y98914D01*
X52865Y98814D01*
X52847Y98695D01*
X52820Y98577D01*
X52783Y98440D01*
X52738Y98304D01*
X52683Y98167D01*
X52619Y98021D01*
X52537Y97876D01*
X52446Y97739D01*
X52346Y97602D01*
X52228Y97475D01*
X52219Y97466D01*
X52200Y97448D01*
X52155Y97411D01*
X52109Y97375D01*
X52036Y97320D01*
X51964Y97265D01*
X51863Y97202D01*
X51763Y97138D01*
X51645Y97083D01*
X51517Y97019D01*
X51371Y96965D01*
X51226Y96910D01*
X51062Y96873D01*
X50898Y96837D01*
X50715Y96819D01*
X50524Y96810D01*
X50515D01*
X50479D01*
X50424D01*
X50351Y96819D01*
X50260Y96828D01*
X50160Y96846D01*
X50041Y96864D01*
X49923Y96892D01*
X49786Y96928D01*
X49650Y96974D01*
X49504Y97028D01*
X49358Y97092D01*
X49212Y97174D01*
X49076Y97265D01*
X48939Y97365D01*
X48802Y97484D01*
X48793Y97493D01*
X48775Y97511D01*
X48739Y97548D01*
X48693Y97602D01*
X48647Y97666D01*
X48593Y97748D01*
X48529Y97839D01*
X48465Y97939D01*
X48401Y98058D01*
X48338Y98185D01*
X48283Y98322D01*
X48237Y98477D01*
X48192Y98632D01*
X48156Y98805D01*
X48137Y98978D01*
X48128Y99169D01*
Y99233D01*
X48137Y99279D01*
Y99333D01*
X48146Y99397D01*
X48165Y99552D01*
X48201Y99743D01*
X48247Y99944D01*
X48320Y100153D01*
X48411Y100372D01*
Y100381D01*
X48420Y100399D01*
X48438Y100426D01*
X48465Y100463D01*
X48529Y100563D01*
X48620Y100691D01*
X48739Y100827D01*
X48884Y100973D01*
X49048Y101110D01*
X49240Y101237D01*
X49249D01*
X49267Y101246D01*
X49294Y101265D01*
X49340Y101283D01*
X49394Y101301D01*
X49458Y101328D01*
X49531Y101356D01*
X49613Y101383D01*
X49704Y101410D01*
X49804Y101438D01*
X50032Y101483D01*
X50296Y101520D01*
X50579Y101529D01*
X50588D01*
X50606D01*
X50643D01*
X50679Y101520D01*
D02*
G37*
G36*
X49604Y96181D02*
X49695Y96163D01*
X49804Y96145D01*
X49914Y96117D01*
X50032Y96072D01*
X50151Y96008D01*
X50169Y95999D01*
X50205Y95972D01*
X50260Y95935D01*
X50324Y95871D01*
X50397Y95808D01*
X50479Y95717D01*
X50551Y95616D01*
X50615Y95498D01*
X50624Y95480D01*
X50643Y95434D01*
X50670Y95361D01*
X50715Y95252D01*
X50761Y95115D01*
X50806Y94951D01*
X50852Y94751D01*
X50898Y94532D01*
Y94523D01*
X50907Y94496D01*
X50916Y94450D01*
X50925Y94396D01*
X50934Y94323D01*
X50952Y94241D01*
X50998Y94059D01*
X51043Y93867D01*
X51089Y93667D01*
X51143Y93494D01*
X51171Y93412D01*
X51198Y93348D01*
X51317D01*
X51335D01*
X51371D01*
X51435Y93357D01*
X51517Y93366D01*
X51599Y93393D01*
X51681Y93421D01*
X51754Y93466D01*
X51818Y93530D01*
X51827Y93539D01*
X51845Y93567D01*
X51863Y93612D01*
X51900Y93676D01*
X51927Y93767D01*
X51945Y93876D01*
X51964Y94013D01*
X51973Y94177D01*
Y94232D01*
X51964Y94286D01*
X51954Y94359D01*
X51936Y94441D01*
X51918Y94532D01*
X51881Y94614D01*
X51836Y94687D01*
X51827Y94696D01*
X51809Y94714D01*
X51781Y94751D01*
X51736Y94787D01*
X51672Y94842D01*
X51590Y94888D01*
X51499Y94933D01*
X51389Y94979D01*
X51590Y96063D01*
X51599D01*
X51617Y96054D01*
X51654Y96044D01*
X51699Y96026D01*
X51754Y96008D01*
X51818Y95981D01*
X51964Y95917D01*
X52118Y95826D01*
X52282Y95717D01*
X52437Y95589D01*
X52574Y95434D01*
Y95425D01*
X52592Y95416D01*
X52601Y95389D01*
X52628Y95352D01*
X52647Y95297D01*
X52674Y95243D01*
X52710Y95170D01*
X52738Y95097D01*
X52765Y95006D01*
X52802Y94906D01*
X52829Y94797D01*
X52847Y94669D01*
X52874Y94541D01*
X52884Y94396D01*
X52902Y94250D01*
Y93949D01*
X52893Y93885D01*
Y93813D01*
X52874Y93630D01*
X52856Y93439D01*
X52820Y93239D01*
X52765Y93047D01*
X52738Y92965D01*
X52701Y92883D01*
Y92874D01*
X52692Y92865D01*
X52665Y92820D01*
X52628Y92747D01*
X52574Y92665D01*
X52501Y92564D01*
X52419Y92473D01*
X52319Y92391D01*
X52219Y92318D01*
X52200Y92309D01*
X52164Y92291D01*
X52082Y92264D01*
X52036Y92255D01*
X51973Y92237D01*
X51909Y92218D01*
X51827Y92209D01*
X51736Y92191D01*
X51635Y92182D01*
X51526Y92173D01*
X51408Y92164D01*
X51280Y92155D01*
X51134D01*
X49722Y92173D01*
X49713D01*
X49695D01*
X49668D01*
X49622D01*
X49513D01*
X49385Y92164D01*
X49240D01*
X49094Y92145D01*
X48948Y92136D01*
X48830Y92118D01*
X48820D01*
X48784Y92109D01*
X48720Y92091D01*
X48647Y92073D01*
X48556Y92036D01*
X48456Y92000D01*
X48347Y91954D01*
X48228Y91900D01*
Y93093D01*
X48237D01*
X48247Y93102D01*
X48283Y93111D01*
X48320Y93129D01*
X48365Y93147D01*
X48429Y93166D01*
X48502Y93184D01*
X48584Y93211D01*
X48593D01*
X48602Y93220D01*
X48638Y93230D01*
X48684Y93248D01*
X48720Y93257D01*
X48711Y93275D01*
X48675Y93312D01*
X48620Y93375D01*
X48556Y93457D01*
X48483Y93558D01*
X48401Y93667D01*
X48338Y93794D01*
X48274Y93922D01*
X48265Y93940D01*
X48256Y93986D01*
X48228Y94059D01*
X48201Y94150D01*
X48174Y94259D01*
X48156Y94387D01*
X48137Y94532D01*
X48128Y94678D01*
Y94742D01*
X48137Y94797D01*
Y94851D01*
X48146Y94924D01*
X48174Y95079D01*
X48219Y95261D01*
X48283Y95443D01*
X48374Y95626D01*
X48502Y95789D01*
X48511D01*
X48520Y95808D01*
X48575Y95853D01*
X48656Y95917D01*
X48766Y95990D01*
X48902Y96063D01*
X49066Y96127D01*
X49258Y96172D01*
X49358Y96181D01*
X49467Y96190D01*
X49485D01*
X49531D01*
X49604Y96181D01*
D02*
G37*
G36*
X52802Y89895D02*
X52155D01*
X52164Y89886D01*
X52219Y89850D01*
X52301Y89795D01*
X52401Y89722D01*
X52501Y89649D01*
X52601Y89558D01*
X52692Y89476D01*
X52756Y89385D01*
X52765Y89376D01*
X52783Y89349D01*
X52802Y89294D01*
X52829Y89230D01*
X52856Y89157D01*
X52884Y89066D01*
X52893Y88975D01*
X52902Y88866D01*
Y88793D01*
X52893Y88711D01*
X52874Y88611D01*
X52847Y88483D01*
X52802Y88347D01*
X52747Y88210D01*
X52665Y88064D01*
X51617Y88447D01*
X51626Y88456D01*
X51645Y88501D01*
X51681Y88556D01*
X51718Y88629D01*
X51754Y88720D01*
X51790Y88811D01*
X51809Y88911D01*
X51818Y89012D01*
Y89048D01*
X51809Y89103D01*
X51799Y89157D01*
X51781Y89221D01*
X51754Y89294D01*
X51718Y89367D01*
X51672Y89440D01*
X51663Y89449D01*
X51645Y89467D01*
X51608Y89504D01*
X51553Y89540D01*
X51490Y89586D01*
X51399Y89631D01*
X51289Y89677D01*
X51162Y89713D01*
X51143D01*
X51116Y89722D01*
X51089Y89731D01*
X51043D01*
X50989Y89740D01*
X50916Y89749D01*
X50834Y89759D01*
X50743Y89768D01*
X50624Y89777D01*
X50506Y89786D01*
X50360D01*
X50205Y89795D01*
X50032Y89804D01*
X49841D01*
X49631D01*
X48228D01*
Y91016D01*
X52802D01*
Y89895D01*
D02*
G37*
G36*
X50715Y87800D02*
X50816Y87791D01*
X50925Y87782D01*
X51052Y87764D01*
X51180Y87745D01*
X51472Y87682D01*
X51617Y87636D01*
X51763Y87581D01*
X51909Y87518D01*
X52045Y87445D01*
X52173Y87363D01*
X52291Y87272D01*
X52301Y87262D01*
X52319Y87244D01*
X52346Y87217D01*
X52392Y87171D01*
X52437Y87117D01*
X52483Y87053D01*
X52537Y86980D01*
X52601Y86889D01*
X52656Y86798D01*
X52710Y86689D01*
X52811Y86461D01*
X52847Y86324D01*
X52874Y86187D01*
X52893Y86042D01*
X52902Y85887D01*
Y85814D01*
X52893Y85759D01*
X52884Y85696D01*
X52865Y85614D01*
X52847Y85532D01*
X52820Y85431D01*
X52793Y85331D01*
X52747Y85222D01*
X52692Y85113D01*
X52638Y85003D01*
X52556Y84885D01*
X52474Y84776D01*
X52373Y84666D01*
X52264Y84557D01*
X54532D01*
Y83345D01*
X48228D01*
Y84466D01*
X48893D01*
X48875Y84475D01*
X48830Y84511D01*
X48757Y84575D01*
X48675Y84657D01*
X48584Y84748D01*
X48483Y84866D01*
X48392Y84994D01*
X48310Y85131D01*
X48301Y85149D01*
X48283Y85194D01*
X48256Y85277D01*
X48219Y85368D01*
X48183Y85486D01*
X48156Y85623D01*
X48137Y85759D01*
X48128Y85905D01*
Y85978D01*
X48137Y86033D01*
X48146Y86106D01*
X48165Y86178D01*
X48183Y86269D01*
X48210Y86370D01*
X48237Y86470D01*
X48283Y86579D01*
X48329Y86689D01*
X48392Y86807D01*
X48465Y86916D01*
X48547Y87035D01*
X48647Y87144D01*
X48757Y87253D01*
X48766Y87262D01*
X48784Y87281D01*
X48820Y87308D01*
X48875Y87335D01*
X48939Y87381D01*
X49021Y87427D01*
X49112Y87481D01*
X49221Y87527D01*
X49340Y87581D01*
X49467Y87636D01*
X49613Y87682D01*
X49768Y87718D01*
X49941Y87754D01*
X50123Y87782D01*
X50314Y87800D01*
X50524Y87809D01*
X50533D01*
X50579D01*
X50633D01*
X50715Y87800D01*
D02*
G37*
G36*
X54532Y76850D02*
X54523Y76768D01*
Y76668D01*
X54514Y76567D01*
Y76449D01*
X54487Y76212D01*
X54460Y75966D01*
X54414Y75738D01*
X54387Y75638D01*
X54359Y75547D01*
Y75538D01*
X54350Y75529D01*
X54323Y75474D01*
X54277Y75392D01*
X54223Y75283D01*
X54132Y75164D01*
X54031Y75046D01*
X53904Y74928D01*
X53749Y74818D01*
X53740D01*
X53731Y74809D01*
X53703Y74791D01*
X53676Y74773D01*
X53585Y74727D01*
X53467Y74673D01*
X53321Y74627D01*
X53157Y74581D01*
X52965Y74545D01*
X52765Y74536D01*
X52756D01*
X52738D01*
X52692D01*
X52647Y74545D01*
X52583D01*
X52519Y74554D01*
X52355Y74590D01*
X52164Y74636D01*
X51973Y74709D01*
X51772Y74818D01*
X51681Y74882D01*
X51590Y74955D01*
X51581Y74964D01*
X51572Y74973D01*
X51544Y75000D01*
X51517Y75037D01*
X51481Y75073D01*
X51435Y75128D01*
X51389Y75192D01*
X51344Y75265D01*
X51289Y75347D01*
X51244Y75447D01*
X51198Y75547D01*
X51153Y75656D01*
X51107Y75784D01*
X51071Y75911D01*
X51034Y76048D01*
X51007Y76203D01*
Y76194D01*
X50998Y76185D01*
X50961Y76130D01*
X50916Y76057D01*
X50852Y75966D01*
X50770Y75857D01*
X50688Y75747D01*
X50588Y75629D01*
X50479Y75529D01*
X50469Y75520D01*
X50424Y75474D01*
X50351Y75419D01*
X50242Y75337D01*
X50105Y75228D01*
X50014Y75173D01*
X49923Y75110D01*
X49823Y75037D01*
X49713Y74964D01*
X49586Y74882D01*
X49458Y74800D01*
X48228Y74026D01*
Y75556D01*
X49595Y76467D01*
X49604Y76476D01*
X49631Y76485D01*
X49668Y76513D01*
X49713Y76549D01*
X49768Y76586D01*
X49841Y76631D01*
X49987Y76731D01*
X50151Y76850D01*
X50296Y76959D01*
X50433Y77059D01*
X50479Y77105D01*
X50524Y77141D01*
X50533Y77150D01*
X50551Y77169D01*
X50588Y77205D01*
X50633Y77251D01*
X50670Y77314D01*
X50715Y77378D01*
X50752Y77451D01*
X50788Y77524D01*
Y77533D01*
X50797Y77560D01*
X50816Y77606D01*
X50825Y77679D01*
X50843Y77770D01*
X50852Y77879D01*
X50861Y78007D01*
Y78417D01*
X48228D01*
Y79692D01*
X54532D01*
Y76850D01*
D02*
G37*
G36*
X50670Y73689D02*
X50761Y73680D01*
X50870Y73670D01*
X50989Y73652D01*
X51125Y73625D01*
X51408Y73552D01*
X51553Y73506D01*
X51708Y73452D01*
X51854Y73379D01*
X51991Y73297D01*
X52127Y73206D01*
X52255Y73106D01*
X52264Y73096D01*
X52282Y73078D01*
X52319Y73042D01*
X52355Y72996D01*
X52401Y72942D01*
X52455Y72869D01*
X52519Y72787D01*
X52583Y72696D01*
X52638Y72595D01*
X52701Y72477D01*
X52756Y72359D01*
X52802Y72222D01*
X52838Y72085D01*
X52874Y71930D01*
X52893Y71776D01*
X52902Y71611D01*
Y71511D01*
X52893Y71438D01*
X52884Y71356D01*
X52865Y71256D01*
X52847Y71147D01*
X52820Y71029D01*
X52783Y70901D01*
X52738Y70773D01*
X52683Y70637D01*
X52610Y70500D01*
X52537Y70372D01*
X52446Y70245D01*
X52337Y70117D01*
X52219Y70008D01*
X52209Y69999D01*
X52191Y69981D01*
X52146Y69954D01*
X52091Y69917D01*
X52018Y69871D01*
X51936Y69826D01*
X51827Y69771D01*
X51708Y69717D01*
X51572Y69662D01*
X51417Y69607D01*
X51253Y69562D01*
X51062Y69516D01*
X50861Y69480D01*
X50643Y69452D01*
X50415Y69434D01*
X50160D01*
Y72459D01*
X50151D01*
X50132D01*
X50105D01*
X50069Y72450D01*
X49977Y72440D01*
X49850Y72422D01*
X49722Y72386D01*
X49577Y72331D01*
X49440Y72267D01*
X49322Y72176D01*
X49312Y72167D01*
X49276Y72122D01*
X49231Y72067D01*
X49176Y71985D01*
X49121Y71885D01*
X49076Y71757D01*
X49039Y71621D01*
X49030Y71475D01*
Y71429D01*
X49039Y71375D01*
X49048Y71311D01*
X49066Y71238D01*
X49094Y71156D01*
X49130Y71074D01*
X49185Y71001D01*
X49194Y70992D01*
X49212Y70965D01*
X49249Y70928D01*
X49303Y70892D01*
X49376Y70837D01*
X49458Y70792D01*
X49567Y70746D01*
X49686Y70701D01*
X49485Y69498D01*
X49476D01*
X49458Y69507D01*
X49422Y69525D01*
X49376Y69543D01*
X49322Y69571D01*
X49258Y69598D01*
X49112Y69680D01*
X48948Y69780D01*
X48775Y69908D01*
X48620Y70063D01*
X48474Y70236D01*
Y70245D01*
X48456Y70254D01*
X48447Y70290D01*
X48420Y70327D01*
X48392Y70372D01*
X48365Y70436D01*
X48338Y70500D01*
X48301Y70582D01*
X48237Y70764D01*
X48183Y70974D01*
X48146Y71220D01*
X48128Y71484D01*
Y71539D01*
X48137Y71593D01*
Y71675D01*
X48156Y71776D01*
X48174Y71894D01*
X48192Y72022D01*
X48228Y72149D01*
X48265Y72295D01*
X48320Y72440D01*
X48383Y72586D01*
X48456Y72732D01*
X48547Y72878D01*
X48647Y73014D01*
X48766Y73133D01*
X48902Y73251D01*
X48912Y73260D01*
X48930Y73269D01*
X48966Y73288D01*
X49012Y73324D01*
X49076Y73352D01*
X49148Y73388D01*
X49231Y73434D01*
X49331Y73470D01*
X49440Y73515D01*
X49558Y73552D01*
X49686Y73598D01*
X49832Y73625D01*
X49977Y73652D01*
X50132Y73680D01*
X50305Y73689D01*
X50479Y73698D01*
X50488D01*
X50524D01*
X50588D01*
X50670Y73689D01*
D02*
G37*
G36*
X52802Y67776D02*
X50460Y66911D01*
X49686Y66665D01*
X49695Y66656D01*
X49731Y66647D01*
X49786Y66628D01*
X49841Y66610D01*
X49977Y66565D01*
X50032Y66546D01*
X50078Y66537D01*
X50087D01*
X50114Y66528D01*
X50151Y66519D01*
X50196Y66501D01*
X50324Y66464D01*
X50460Y66410D01*
X52802Y65535D01*
Y64296D01*
X48228Y66109D01*
Y67202D01*
X52802Y69042D01*
Y67776D01*
D02*
G37*
G36*
X48292Y61499D02*
X48338Y61490D01*
X48392Y61481D01*
X48456Y61472D01*
X48620Y61436D01*
X48802Y61381D01*
X49003Y61308D01*
X49221Y61217D01*
X49431Y61099D01*
X49440D01*
X49458Y61080D01*
X49495Y61062D01*
X49531Y61026D01*
X49595Y60989D01*
X49659Y60935D01*
X49741Y60871D01*
X49832Y60798D01*
X49941Y60716D01*
X50050Y60616D01*
X50178Y60506D01*
X50314Y60379D01*
X50451Y60242D01*
X50606Y60087D01*
X50770Y59923D01*
X50943Y59741D01*
X50952Y59732D01*
X50980Y59705D01*
X51016Y59668D01*
X51071Y59614D01*
X51125Y59541D01*
X51198Y59468D01*
X51362Y59304D01*
X51535Y59140D01*
X51708Y58976D01*
X51781Y58903D01*
X51863Y58830D01*
X51927Y58776D01*
X51982Y58739D01*
X52000Y58730D01*
X52045Y58703D01*
X52118Y58657D01*
X52219Y58612D01*
X52328Y58566D01*
X52455Y58520D01*
X52583Y58493D01*
X52720Y58484D01*
X52729D01*
X52738D01*
X52783D01*
X52865Y58493D01*
X52956Y58511D01*
X53057Y58539D01*
X53157Y58575D01*
X53257Y58630D01*
X53348Y58703D01*
X53357Y58712D01*
X53385Y58739D01*
X53421Y58794D01*
X53457Y58858D01*
X53494Y58949D01*
X53530Y59049D01*
X53558Y59167D01*
X53567Y59304D01*
Y59368D01*
X53558Y59440D01*
X53540Y59522D01*
X53512Y59623D01*
X53467Y59723D01*
X53412Y59823D01*
X53339Y59914D01*
X53330Y59923D01*
X53294Y59951D01*
X53239Y59987D01*
X53157Y60024D01*
X53057Y60069D01*
X52920Y60106D01*
X52765Y60142D01*
X52583Y60160D01*
X52701Y61363D01*
X52710D01*
X52747Y61354D01*
X52793D01*
X52865Y61335D01*
X52947Y61326D01*
X53038Y61299D01*
X53139Y61272D01*
X53257Y61244D01*
X53485Y61153D01*
X53722Y61044D01*
X53840Y60971D01*
X53949Y60889D01*
X54040Y60798D01*
X54132Y60698D01*
X54141Y60689D01*
X54150Y60670D01*
X54168Y60643D01*
X54204Y60597D01*
X54232Y60543D01*
X54268Y60470D01*
X54314Y60397D01*
X54350Y60306D01*
X54396Y60206D01*
X54432Y60097D01*
X54505Y59860D01*
X54551Y59577D01*
X54560Y59431D01*
X54569Y59277D01*
Y59185D01*
X54560Y59122D01*
X54551Y59040D01*
X54542Y58949D01*
X54523Y58848D01*
X54505Y58739D01*
X54441Y58502D01*
X54350Y58265D01*
X54296Y58138D01*
X54232Y58029D01*
X54150Y57910D01*
X54059Y57810D01*
X54050Y57801D01*
X54040Y57783D01*
X54004Y57764D01*
X53968Y57728D01*
X53922Y57682D01*
X53858Y57637D01*
X53795Y57591D01*
X53713Y57537D01*
X53530Y57446D01*
X53321Y57354D01*
X53202Y57318D01*
X53075Y57300D01*
X52938Y57282D01*
X52802Y57272D01*
X52783D01*
X52729D01*
X52647Y57282D01*
X52547Y57291D01*
X52419Y57309D01*
X52282Y57336D01*
X52136Y57373D01*
X51991Y57427D01*
X51973Y57436D01*
X51927Y57455D01*
X51845Y57491D01*
X51745Y57546D01*
X51626Y57609D01*
X51490Y57691D01*
X51344Y57792D01*
X51189Y57910D01*
X51180Y57919D01*
X51134Y57956D01*
X51071Y58010D01*
X50980Y58092D01*
X50870Y58202D01*
X50725Y58338D01*
X50570Y58502D01*
X50378Y58703D01*
X50369Y58712D01*
X50360Y58730D01*
X50333Y58757D01*
X50296Y58794D01*
X50205Y58894D01*
X50096Y59012D01*
X49977Y59131D01*
X49859Y59249D01*
X49759Y59359D01*
X49713Y59395D01*
X49677Y59431D01*
X49668Y59440D01*
X49650Y59459D01*
X49613Y59486D01*
X49567Y59522D01*
X49467Y59605D01*
X49349Y59677D01*
Y57272D01*
X48228D01*
Y61509D01*
X48237D01*
X48256D01*
X48292Y61499D01*
D02*
G37*
G36*
X282268Y65519D02*
X250000D01*
Y77304D01*
X282268D01*
Y65519D01*
D02*
G37*
G36*
X281076Y114989D02*
X250000D01*
Y126774D01*
X281076D01*
Y114989D01*
D02*
G37*
G36*
X206756Y127811D02*
X174488D01*
Y139595D01*
X206756D01*
Y127811D01*
D02*
G37*
G36*
X135738Y127389D02*
X104661D01*
Y139174D01*
X135738D01*
Y127389D01*
D02*
G37*
%LPC*%
G36*
X69077Y123733D02*
X60845D01*
Y123516D01*
X60412D01*
Y123300D01*
X60195D01*
Y123083D01*
X59978D01*
Y122866D01*
Y122650D01*
Y122433D01*
Y122217D01*
Y122000D01*
X60195D01*
Y121783D01*
Y121567D01*
X60412D01*
Y121350D01*
X69510D01*
Y121567D01*
X69726D01*
Y121783D01*
X69943D01*
Y122000D01*
Y122217D01*
Y122433D01*
Y122650D01*
Y122866D01*
Y123083D01*
X69726D01*
Y123300D01*
X69510D01*
Y123516D01*
X69077D01*
Y123733D01*
D02*
G37*
G36*
Y115285D02*
X60845D01*
Y115068D01*
X60412D01*
Y114851D01*
X60195D01*
Y114635D01*
X59978D01*
Y114418D01*
Y114202D01*
Y113985D01*
Y113768D01*
Y113552D01*
Y113335D01*
X60195D01*
Y113119D01*
X60412D01*
Y112902D01*
X60845D01*
Y112685D01*
X68860D01*
Y112902D01*
X69510D01*
Y113119D01*
X69726D01*
Y113335D01*
X69943D01*
Y113552D01*
Y113768D01*
Y113985D01*
Y114202D01*
Y114418D01*
Y114635D01*
X69726D01*
Y114851D01*
X69510D01*
Y115068D01*
X69077D01*
Y115285D01*
D02*
G37*
G36*
X53485Y106321D02*
X52027D01*
Y105100D01*
X52036Y104945D01*
Y104663D01*
X52045Y104608D01*
Y104553D01*
X52055Y104517D01*
X52064Y104462D01*
X52091Y104380D01*
X52118Y104298D01*
X52155Y104216D01*
X52200Y104134D01*
X52264Y104061D01*
X52273Y104052D01*
X52301Y104034D01*
X52337Y103998D01*
X52401Y103961D01*
X52474Y103934D01*
X52556Y103897D01*
X52656Y103879D01*
X52765Y103870D01*
X52774D01*
X52811D01*
X52865Y103879D01*
X52938Y103888D01*
X53011Y103906D01*
X53084Y103943D01*
X53166Y103979D01*
X53239Y104034D01*
X53248Y104043D01*
X53266Y104061D01*
X53303Y104107D01*
X53339Y104152D01*
X53376Y104225D01*
X53412Y104307D01*
X53439Y104408D01*
X53457Y104517D01*
Y104526D01*
X53467Y104562D01*
Y104663D01*
X53476Y104717D01*
Y104954D01*
X53485Y105054D01*
Y106321D01*
D02*
G37*
G36*
X50980D02*
X49294D01*
Y104918D01*
X49303Y104781D01*
Y104635D01*
X49312Y104490D01*
X49322Y104371D01*
Y104316D01*
X49331Y104280D01*
Y104271D01*
X49340Y104234D01*
X49358Y104180D01*
X49376Y104116D01*
X49413Y104043D01*
X49458Y103961D01*
X49513Y103888D01*
X49577Y103815D01*
X49586Y103806D01*
X49613Y103788D01*
X49659Y103761D01*
X49722Y103724D01*
X49795Y103688D01*
X49886Y103661D01*
X49996Y103642D01*
X50114Y103633D01*
X50123D01*
X50160D01*
X50214Y103642D01*
X50278Y103651D01*
X50360Y103670D01*
X50433Y103697D01*
X50515Y103733D01*
X50597Y103779D01*
X50606Y103788D01*
X50633Y103806D01*
X50670Y103834D01*
X50706Y103879D01*
X50761Y103934D01*
X50806Y104007D01*
X50852Y104089D01*
X50889Y104180D01*
Y104189D01*
X50907Y104234D01*
X50916Y104307D01*
X50925Y104353D01*
X50934Y104417D01*
X50943Y104480D01*
X50952Y104562D01*
X50961Y104654D01*
Y104763D01*
X50971Y104872D01*
X50980Y105000D01*
Y106321D01*
D02*
G37*
G36*
X50515Y100290D02*
X50506D01*
X50488D01*
X50451D01*
X50406Y100281D01*
X50342D01*
X50278Y100272D01*
X50132Y100253D01*
X49959Y100208D01*
X49786Y100153D01*
X49613Y100080D01*
X49467Y99971D01*
X49449Y99953D01*
X49413Y99916D01*
X49358Y99843D01*
X49294Y99743D01*
X49221Y99634D01*
X49167Y99497D01*
X49130Y99342D01*
X49112Y99169D01*
Y99124D01*
X49121Y99087D01*
X49130Y99005D01*
X49158Y98896D01*
X49203Y98768D01*
X49258Y98632D01*
X49349Y98504D01*
X49467Y98377D01*
X49485Y98359D01*
X49531Y98322D01*
X49622Y98277D01*
X49731Y98213D01*
X49886Y98149D01*
X50059Y98103D01*
X50278Y98067D01*
X50515Y98049D01*
X50524D01*
X50542D01*
X50579D01*
X50624Y98058D01*
X50679D01*
X50752Y98067D01*
X50898Y98085D01*
X51062Y98131D01*
X51235Y98185D01*
X51408Y98267D01*
X51553Y98377D01*
X51572Y98395D01*
X51608Y98431D01*
X51672Y98504D01*
X51736Y98595D01*
X51799Y98714D01*
X51863Y98841D01*
X51900Y98996D01*
X51918Y99169D01*
Y99215D01*
X51909Y99251D01*
X51900Y99333D01*
X51872Y99443D01*
X51827Y99570D01*
X51763Y99707D01*
X51672Y99843D01*
X51553Y99971D01*
X51535Y99980D01*
X51490Y100016D01*
X51399Y100071D01*
X51289Y100126D01*
X51143Y100190D01*
X50961Y100235D01*
X50752Y100272D01*
X50515Y100290D01*
D02*
G37*
G36*
X49595Y94979D02*
X49586D01*
X49549D01*
X49504Y94969D01*
X49449Y94951D01*
X49376Y94933D01*
X49303Y94906D01*
X49231Y94860D01*
X49158Y94797D01*
X49148Y94787D01*
X49130Y94760D01*
X49103Y94724D01*
X49066Y94660D01*
X49030Y94596D01*
X49003Y94514D01*
X48985Y94414D01*
X48975Y94314D01*
Y94259D01*
X48985Y94195D01*
X49003Y94113D01*
X49030Y94013D01*
X49066Y93913D01*
X49112Y93794D01*
X49185Y93685D01*
X49194Y93676D01*
X49212Y93649D01*
X49249Y93612D01*
X49294Y93567D01*
X49358Y93521D01*
X49422Y93476D01*
X49504Y93430D01*
X49586Y93403D01*
X49595D01*
X49613Y93393D01*
X49659Y93384D01*
X49713Y93375D01*
X49795Y93366D01*
X49896Y93357D01*
X50023Y93348D01*
X50169D01*
X50415D01*
Y93357D01*
X50397Y93393D01*
X50387Y93448D01*
X50360Y93530D01*
X50333Y93630D01*
X50296Y93767D01*
X50260Y93913D01*
X50223Y94095D01*
Y94113D01*
X50214Y94140D01*
X50205Y94177D01*
X50187Y94259D01*
X50160Y94368D01*
X50132Y94478D01*
X50096Y94587D01*
X50050Y94678D01*
X50014Y94751D01*
X50005Y94760D01*
X49987Y94787D01*
X49950Y94824D01*
X49905Y94860D01*
X49841Y94906D01*
X49768Y94942D01*
X49686Y94969D01*
X49595Y94979D01*
D02*
G37*
G36*
X50606Y86570D02*
X50597D01*
X50579D01*
X50533D01*
X50488D01*
X50424Y86561D01*
X50360D01*
X50205Y86543D01*
X50032Y86525D01*
X49850Y86488D01*
X49686Y86434D01*
X49613Y86406D01*
X49549Y86370D01*
X49540D01*
X49531Y86352D01*
X49476Y86315D01*
X49404Y86251D01*
X49322Y86160D01*
X49231Y86042D01*
X49158Y85905D01*
X49103Y85741D01*
X49094Y85650D01*
X49085Y85559D01*
Y85541D01*
X49094Y85486D01*
X49103Y85413D01*
X49130Y85313D01*
X49167Y85204D01*
X49231Y85085D01*
X49312Y84967D01*
X49431Y84848D01*
X49449Y84839D01*
X49495Y84803D01*
X49577Y84757D01*
X49695Y84703D01*
X49841Y84648D01*
X50023Y84602D01*
X50242Y84566D01*
X50488Y84557D01*
X50497D01*
X50524D01*
X50560D01*
X50615D01*
X50679Y84566D01*
X50761Y84575D01*
X50925Y84593D01*
X51116Y84630D01*
X51298Y84675D01*
X51481Y84748D01*
X51553Y84794D01*
X51626Y84848D01*
X51645Y84857D01*
X51681Y84903D01*
X51736Y84958D01*
X51799Y85040D01*
X51863Y85149D01*
X51918Y85267D01*
X51954Y85413D01*
X51973Y85568D01*
Y85586D01*
X51964Y85641D01*
X51954Y85723D01*
X51927Y85814D01*
X51891Y85932D01*
X51827Y86051D01*
X51745Y86169D01*
X51626Y86288D01*
X51608Y86297D01*
X51563Y86333D01*
X51481Y86379D01*
X51371Y86424D01*
X51226Y86479D01*
X51052Y86525D01*
X50843Y86561D01*
X50606Y86570D01*
D02*
G37*
G36*
X53467Y78417D02*
X51863D01*
Y77178D01*
X51872Y76995D01*
X51881Y76804D01*
X51891Y76613D01*
X51900Y76531D01*
X51909Y76458D01*
X51927Y76385D01*
X51936Y76340D01*
Y76331D01*
X51954Y76303D01*
X51973Y76258D01*
X52000Y76212D01*
X52082Y76094D01*
X52136Y76039D01*
X52200Y75984D01*
X52209Y75975D01*
X52237Y75966D01*
X52273Y75939D01*
X52328Y75911D01*
X52401Y75893D01*
X52483Y75866D01*
X52574Y75857D01*
X52674Y75848D01*
X52692D01*
X52729D01*
X52783Y75857D01*
X52856Y75866D01*
X52938Y75893D01*
X53020Y75920D01*
X53111Y75966D01*
X53184Y76021D01*
X53193Y76030D01*
X53221Y76048D01*
X53248Y76094D01*
X53294Y76148D01*
X53339Y76212D01*
X53376Y76294D01*
X53412Y76394D01*
X53439Y76504D01*
Y76513D01*
X53448Y76540D01*
Y76595D01*
X53457Y76677D01*
Y76877D01*
X53467Y76959D01*
Y78417D01*
D02*
G37*
G36*
X50898Y72440D02*
Y70637D01*
X50907D01*
X50925D01*
X50943D01*
X50980Y70646D01*
X51080Y70655D01*
X51189Y70673D01*
X51317Y70710D01*
X51453Y70755D01*
X51581Y70828D01*
X51690Y70910D01*
X51699Y70919D01*
X51736Y70956D01*
X51781Y71010D01*
X51836Y71083D01*
X51881Y71174D01*
X51927Y71284D01*
X51964Y71402D01*
X51973Y71539D01*
Y71602D01*
X51954Y71675D01*
X51936Y71766D01*
X51900Y71867D01*
X51854Y71976D01*
X51781Y72085D01*
X51681Y72185D01*
X51672Y72194D01*
X51626Y72222D01*
X51563Y72267D01*
X51472Y72313D01*
X51362Y72368D01*
X51226Y72404D01*
X51071Y72431D01*
X50898Y72440D01*
D02*
G37*
G36*
X255849Y75336D02*
X255717D01*
X255324Y75325D01*
X254974Y75281D01*
X254821Y75248D01*
X254668Y75215D01*
X254526Y75183D01*
X254406Y75150D01*
X254297Y75106D01*
X254187Y75073D01*
X254111Y75041D01*
X254034Y75019D01*
X253980Y74986D01*
X253936Y74975D01*
X253914Y74953D01*
X253903D01*
X253564Y74756D01*
X253422Y74636D01*
X253280Y74527D01*
X253149Y74406D01*
X253029Y74286D01*
X252919Y74166D01*
X252821Y74057D01*
X252745Y73948D01*
X252668Y73849D01*
X252602Y73762D01*
X252548Y73685D01*
X252515Y73620D01*
X252482Y73576D01*
X252471Y73543D01*
X252460Y73532D01*
X252373Y73357D01*
X252296Y73182D01*
X252176Y72822D01*
X252089Y72461D01*
X252034Y72144D01*
X252012Y71991D01*
X251990Y71860D01*
X251979Y71740D01*
Y71630D01*
X251969Y71554D01*
Y71434D01*
X251990Y71029D01*
X252034Y70657D01*
X252111Y70319D01*
X252143Y70155D01*
X252187Y70013D01*
X252231Y69881D01*
X252264Y69761D01*
X252307Y69663D01*
X252340Y69576D01*
X252362Y69510D01*
X252384Y69455D01*
X252406Y69422D01*
Y69411D01*
X252591Y69084D01*
X252799Y68799D01*
X253018Y68548D01*
X253236Y68351D01*
X253335Y68264D01*
X253433Y68187D01*
X253510Y68122D01*
X253586Y68078D01*
X253641Y68034D01*
X253695Y68002D01*
X253717Y67991D01*
X253728Y67980D01*
X253903Y67892D01*
X254067Y67816D01*
X254428Y67695D01*
X254778Y67608D01*
X255095Y67553D01*
X255247Y67532D01*
X255379Y67510D01*
X255499Y67499D01*
X255608D01*
X255685Y67488D01*
X255805D01*
X256155Y67499D01*
X256483Y67542D01*
X256800Y67597D01*
X257073Y67663D01*
X257193Y67695D01*
X257302Y67728D01*
X257401Y67761D01*
X257488Y67783D01*
X257554Y67805D01*
X257597Y67827D01*
X257630Y67838D01*
X257641D01*
X257969Y67969D01*
X258242Y68111D01*
X258483Y68253D01*
X258691Y68373D01*
X258843Y68483D01*
X258898Y68526D01*
X258953Y68570D01*
X258986Y68603D01*
X259018Y68625D01*
X259040Y68646D01*
Y71685D01*
X255750D01*
Y70406D01*
X257499D01*
Y69433D01*
X257368Y69335D01*
X257226Y69248D01*
X257084Y69171D01*
X256953Y69105D01*
X256843Y69051D01*
X256745Y69007D01*
X256690Y68985D01*
X256679Y68974D01*
X256668D01*
X256493Y68909D01*
X256319Y68865D01*
X256155Y68832D01*
X256013Y68810D01*
X255881Y68799D01*
X255794Y68788D01*
X255707D01*
X255532Y68799D01*
X255357Y68821D01*
X255204Y68854D01*
X255051Y68898D01*
X254778Y69007D01*
X254668Y69062D01*
X254559Y69127D01*
X254461Y69193D01*
X254373Y69248D01*
X254308Y69313D01*
X254242Y69357D01*
X254198Y69401D01*
X254165Y69433D01*
X254144Y69455D01*
X254133Y69466D01*
X254034Y69597D01*
X253936Y69750D01*
X253859Y69903D01*
X253794Y70067D01*
X253684Y70406D01*
X253619Y70734D01*
X253597Y70887D01*
X253575Y71040D01*
X253564Y71160D01*
X253553Y71280D01*
X253542Y71368D01*
Y71444D01*
Y71488D01*
Y71499D01*
X253553Y71729D01*
X253564Y71936D01*
X253597Y72144D01*
X253630Y72330D01*
X253674Y72494D01*
X253728Y72647D01*
X253783Y72789D01*
X253837Y72920D01*
X253881Y73029D01*
X253936Y73128D01*
X253991Y73204D01*
X254034Y73270D01*
X254067Y73325D01*
X254100Y73357D01*
X254111Y73379D01*
X254122Y73390D01*
X254242Y73499D01*
X254362Y73609D01*
X254493Y73685D01*
X254625Y73762D01*
X254756Y73827D01*
X254887Y73882D01*
X255138Y73958D01*
X255258Y73980D01*
X255368Y74002D01*
X255466Y74013D01*
X255554Y74024D01*
X255619Y74035D01*
X255717D01*
X255958Y74024D01*
X256166Y73980D01*
X256351Y73936D01*
X256515Y73871D01*
X256636Y73816D01*
X256734Y73762D01*
X256789Y73718D01*
X256810Y73707D01*
X256963Y73576D01*
X257095Y73434D01*
X257204Y73292D01*
X257280Y73150D01*
X257346Y73018D01*
X257390Y72920D01*
X257412Y72855D01*
X257423Y72843D01*
Y72833D01*
X258942Y73117D01*
X258898Y73303D01*
X258833Y73488D01*
X258767Y73652D01*
X258680Y73805D01*
X258603Y73958D01*
X258516Y74089D01*
X258428Y74210D01*
X258341Y74319D01*
X258253Y74417D01*
X258177Y74505D01*
X258111Y74581D01*
X258046Y74636D01*
X257991Y74680D01*
X257947Y74724D01*
X257925Y74734D01*
X257914Y74745D01*
X257761Y74855D01*
X257597Y74942D01*
X257423Y75019D01*
X257237Y75084D01*
X256876Y75194D01*
X256526Y75259D01*
X256362Y75292D01*
X256209Y75303D01*
X256067Y75314D01*
X255947Y75325D01*
X255849Y75336D01*
D02*
G37*
G36*
X278004Y75237D02*
X277894D01*
X277709Y75226D01*
X277534Y75215D01*
X277195Y75161D01*
X276911Y75073D01*
X276780Y75029D01*
X276659Y74975D01*
X276550Y74931D01*
X276463Y74876D01*
X276375Y74833D01*
X276310Y74800D01*
X276255Y74756D01*
X276222Y74734D01*
X276200Y74724D01*
X276189Y74713D01*
X276069Y74603D01*
X275960Y74494D01*
X275862Y74363D01*
X275774Y74221D01*
X275643Y73936D01*
X275534Y73663D01*
X275501Y73521D01*
X275468Y73401D01*
X275435Y73292D01*
X275424Y73193D01*
X275402Y73106D01*
Y73051D01*
X275392Y73008D01*
Y72997D01*
X276834Y72855D01*
X276856Y73073D01*
X276900Y73259D01*
X276944Y73423D01*
X276998Y73543D01*
X277042Y73641D01*
X277086Y73707D01*
X277118Y73751D01*
X277129Y73762D01*
X277239Y73849D01*
X277359Y73915D01*
X277479Y73969D01*
X277599Y74002D01*
X277698Y74024D01*
X277785Y74035D01*
X277862D01*
X278026Y74024D01*
X278168Y73991D01*
X278288Y73948D01*
X278397Y73904D01*
X278474Y73860D01*
X278539Y73816D01*
X278572Y73783D01*
X278583Y73773D01*
X278671Y73663D01*
X278736Y73543D01*
X278780Y73423D01*
X278813Y73303D01*
X278834Y73193D01*
X278845Y73095D01*
Y73040D01*
Y73029D01*
Y73018D01*
X278834Y72855D01*
X278802Y72701D01*
X278747Y72548D01*
X278692Y72417D01*
X278638Y72297D01*
X278583Y72210D01*
X278550Y72155D01*
X278539Y72133D01*
X278496Y72067D01*
X278430Y71991D01*
X278343Y71893D01*
X278255Y71805D01*
X278058Y71597D01*
X277862Y71390D01*
X277665Y71193D01*
X277577Y71106D01*
X277490Y71040D01*
X277425Y70974D01*
X277381Y70931D01*
X277348Y70898D01*
X277337Y70887D01*
X277118Y70679D01*
X276922Y70483D01*
X276736Y70297D01*
X276572Y70133D01*
X276419Y69969D01*
X276288Y69816D01*
X276167Y69685D01*
X276069Y69554D01*
X275982Y69444D01*
X275905Y69346D01*
X275840Y69269D01*
X275796Y69193D01*
X275752Y69149D01*
X275730Y69105D01*
X275709Y69084D01*
Y69073D01*
X275566Y68821D01*
X275457Y68559D01*
X275370Y68318D01*
X275304Y68100D01*
X275260Y67903D01*
X275249Y67827D01*
X275238Y67761D01*
X275227Y67706D01*
X275217Y67663D01*
Y67630D01*
X280299D01*
Y68974D01*
X277414D01*
X277501Y69116D01*
X277599Y69237D01*
X277643Y69291D01*
X277676Y69335D01*
X277698Y69357D01*
X277709Y69368D01*
X277752Y69411D01*
X277796Y69466D01*
X277927Y69586D01*
X278069Y69728D01*
X278211Y69871D01*
X278354Y70002D01*
X278474Y70111D01*
X278518Y70155D01*
X278550Y70187D01*
X278572Y70199D01*
X278583Y70209D01*
X278823Y70439D01*
X279020Y70625D01*
X279184Y70800D01*
X279315Y70931D01*
X279414Y71040D01*
X279479Y71117D01*
X279523Y71171D01*
X279534Y71182D01*
X279676Y71368D01*
X279796Y71543D01*
X279895Y71707D01*
X279971Y71849D01*
X280037Y71969D01*
X280081Y72067D01*
X280102Y72122D01*
X280113Y72144D01*
X280179Y72319D01*
X280223Y72494D01*
X280255Y72658D01*
X280277Y72811D01*
X280288Y72931D01*
X280299Y73029D01*
Y73117D01*
X280288Y73281D01*
X280266Y73445D01*
X280244Y73598D01*
X280201Y73740D01*
X280091Y73991D01*
X279982Y74210D01*
X279917Y74308D01*
X279862Y74385D01*
X279807Y74461D01*
X279753Y74516D01*
X279709Y74559D01*
X279687Y74603D01*
X279665Y74614D01*
X279654Y74625D01*
X279534Y74734D01*
X279392Y74833D01*
X279261Y74909D01*
X279108Y74975D01*
X278823Y75084D01*
X278539Y75161D01*
X278408Y75183D01*
X278288Y75204D01*
X278179Y75215D01*
X278080Y75226D01*
X278004Y75237D01*
D02*
G37*
G36*
X263248Y75194D02*
X260461D01*
Y67630D01*
X261991D01*
Y70483D01*
X263347D01*
X263511Y70494D01*
X263664D01*
X263806Y70504D01*
X263937Y70515D01*
X264057Y70526D01*
X264156Y70537D01*
X264254D01*
X264330Y70548D01*
X264407Y70559D01*
X264461Y70570D01*
X264505D01*
X264538Y70581D01*
X264560D01*
X264713Y70625D01*
X264855Y70679D01*
X264986Y70734D01*
X265106Y70800D01*
X265205Y70854D01*
X265281Y70898D01*
X265325Y70931D01*
X265347Y70942D01*
X265489Y71051D01*
X265609Y71171D01*
X265729Y71302D01*
X265817Y71412D01*
X265893Y71521D01*
X265948Y71608D01*
X265981Y71663D01*
X265992Y71685D01*
X266079Y71871D01*
X266145Y72067D01*
X266188Y72275D01*
X266221Y72461D01*
X266243Y72614D01*
Y72690D01*
X266254Y72745D01*
Y72865D01*
X266232Y73182D01*
X266188Y73478D01*
X266112Y73718D01*
X266035Y73936D01*
X265992Y74024D01*
X265948Y74101D01*
X265915Y74166D01*
X265872Y74232D01*
X265850Y74275D01*
X265828Y74308D01*
X265806Y74319D01*
Y74330D01*
X265631Y74527D01*
X265456Y74691D01*
X265270Y74822D01*
X265106Y74920D01*
X264953Y74986D01*
X264833Y75041D01*
X264789Y75051D01*
X264757Y75062D01*
X264735Y75073D01*
X264724D01*
X264636Y75095D01*
X264527Y75117D01*
X264396Y75128D01*
X264265Y75139D01*
X263959Y75161D01*
X263653Y75183D01*
X263369D01*
X263248Y75194D01*
D02*
G37*
G36*
X270921Y75336D02*
X270845D01*
X270517Y75325D01*
X270200Y75292D01*
X269927Y75237D01*
X269686Y75183D01*
X269588Y75150D01*
X269489Y75128D01*
X269413Y75106D01*
X269347Y75073D01*
X269292Y75062D01*
X269249Y75041D01*
X269227Y75029D01*
X269216D01*
X269019Y74942D01*
X268833Y74833D01*
X268670Y74713D01*
X268527Y74603D01*
X268407Y74505D01*
X268309Y74417D01*
X268254Y74363D01*
X268243Y74352D01*
X268232Y74341D01*
X268079Y74166D01*
X267937Y73980D01*
X267817Y73816D01*
X267719Y73652D01*
X267642Y73510D01*
X267577Y73401D01*
X267566Y73357D01*
X267544Y73325D01*
X267533Y73313D01*
Y73303D01*
X267424Y72997D01*
X267336Y72669D01*
X267281Y72341D01*
X267238Y72035D01*
X267227Y71893D01*
X267216Y71762D01*
X267205Y71652D01*
Y71554D01*
X267194Y71466D01*
Y71357D01*
X267205Y71029D01*
X267238Y70712D01*
X267281Y70417D01*
X267347Y70144D01*
X267424Y69892D01*
X267511Y69663D01*
X267598Y69444D01*
X267697Y69258D01*
X267784Y69084D01*
X267872Y68941D01*
X267959Y68810D01*
X268036Y68701D01*
X268101Y68625D01*
X268145Y68559D01*
X268178Y68526D01*
X268189Y68515D01*
X268385Y68329D01*
X268593Y68176D01*
X268801Y68034D01*
X269030Y67925D01*
X269249Y67827D01*
X269478Y67739D01*
X269686Y67674D01*
X269905Y67619D01*
X270101Y67575D01*
X270287Y67542D01*
X270451Y67521D01*
X270593Y67510D01*
X270703Y67499D01*
X270790Y67488D01*
X270866D01*
X271172Y67499D01*
X271457Y67532D01*
X271730Y67586D01*
X271981Y67652D01*
X272222Y67728D01*
X272440Y67816D01*
X272637Y67903D01*
X272823Y68002D01*
X272976Y68100D01*
X273118Y68187D01*
X273238Y68275D01*
X273337Y68351D01*
X273424Y68417D01*
X273479Y68471D01*
X273512Y68504D01*
X273522Y68515D01*
X273697Y68723D01*
X273850Y68941D01*
X273992Y69171D01*
X274102Y69401D01*
X274200Y69641D01*
X274288Y69881D01*
X274353Y70122D01*
X274408Y70351D01*
X274441Y70559D01*
X274473Y70767D01*
X274495Y70942D01*
X274517Y71095D01*
Y71226D01*
X274528Y71324D01*
Y71401D01*
X274517Y71740D01*
X274484Y72057D01*
X274441Y72352D01*
X274375Y72636D01*
X274299Y72887D01*
X274211Y73128D01*
X274124Y73346D01*
X274025Y73532D01*
X273927Y73707D01*
X273839Y73860D01*
X273752Y73991D01*
X273675Y74101D01*
X273621Y74177D01*
X273566Y74243D01*
X273533Y74275D01*
X273522Y74286D01*
X273326Y74472D01*
X273118Y74636D01*
X272899Y74778D01*
X272681Y74898D01*
X272451Y74997D01*
X272233Y75084D01*
X272014Y75150D01*
X271806Y75204D01*
X271610Y75248D01*
X271424Y75281D01*
X271260Y75303D01*
X271118Y75325D01*
X271009D01*
X270921Y75336D01*
D02*
G37*
%LPD*%
G36*
X263237Y73904D02*
X263336D01*
X263434Y73893D01*
X263576D01*
X263685Y73882D01*
X263762Y73871D01*
X263806Y73860D01*
X263817D01*
X263948Y73827D01*
X264068Y73783D01*
X264177Y73729D01*
X264265Y73663D01*
X264330Y73609D01*
X264385Y73565D01*
X264418Y73532D01*
X264429Y73521D01*
X264516Y73412D01*
X264571Y73303D01*
X264615Y73182D01*
X264647Y73073D01*
X264669Y72975D01*
X264680Y72898D01*
Y72855D01*
Y72833D01*
X264669Y72712D01*
X264658Y72603D01*
X264625Y72505D01*
X264593Y72417D01*
X264560Y72341D01*
X264538Y72286D01*
X264516Y72253D01*
X264505Y72242D01*
X264440Y72155D01*
X264352Y72078D01*
X264276Y72013D01*
X264199Y71958D01*
X264134Y71925D01*
X264079Y71893D01*
X264035Y71882D01*
X264024Y71871D01*
X263959Y71849D01*
X263882Y71838D01*
X263707Y71805D01*
X263511Y71783D01*
X263314Y71772D01*
X263117D01*
X263041Y71762D01*
X261991D01*
Y73915D01*
X263128D01*
X263237Y73904D01*
D02*
G37*
G36*
X271041Y74024D02*
X271205Y74002D01*
X271358Y73980D01*
X271500Y73936D01*
X271752Y73827D01*
X271872Y73773D01*
X271970Y73718D01*
X272069Y73652D01*
X272145Y73598D01*
X272211Y73543D01*
X272276Y73488D01*
X272320Y73445D01*
X272353Y73423D01*
X272364Y73401D01*
X272375Y73390D01*
X272473Y73259D01*
X272571Y73117D01*
X272648Y72975D01*
X272714Y72811D01*
X272812Y72483D01*
X272878Y72166D01*
X272910Y72024D01*
X272921Y71882D01*
X272932Y71762D01*
X272943Y71652D01*
X272954Y71554D01*
Y71488D01*
Y71444D01*
Y71434D01*
X272943Y71193D01*
X272932Y70964D01*
X272899Y70756D01*
X272867Y70570D01*
X272823Y70384D01*
X272768Y70220D01*
X272714Y70078D01*
X272659Y69947D01*
X272604Y69827D01*
X272550Y69728D01*
X272506Y69641D01*
X272451Y69564D01*
X272418Y69510D01*
X272386Y69477D01*
X272375Y69455D01*
X272364Y69444D01*
X272255Y69324D01*
X272134Y69226D01*
X272003Y69138D01*
X271883Y69062D01*
X271752Y69007D01*
X271632Y68952D01*
X271391Y68876D01*
X271183Y68821D01*
X271096Y68810D01*
X271020Y68799D01*
X270954Y68788D01*
X270866D01*
X270703Y68799D01*
X270539Y68821D01*
X270386Y68854D01*
X270244Y68898D01*
X269981Y68996D01*
X269774Y69127D01*
X269675Y69182D01*
X269599Y69248D01*
X269522Y69302D01*
X269467Y69357D01*
X269424Y69390D01*
X269391Y69422D01*
X269369Y69444D01*
X269358Y69455D01*
X269260Y69586D01*
X269161Y69728D01*
X269085Y69881D01*
X269019Y70046D01*
X268910Y70362D01*
X268844Y70679D01*
X268823Y70832D01*
X268801Y70964D01*
X268790Y71095D01*
X268779Y71204D01*
X268768Y71292D01*
Y71357D01*
Y71401D01*
Y71412D01*
X268779Y71652D01*
X268790Y71871D01*
X268823Y72078D01*
X268855Y72275D01*
X268899Y72450D01*
X268943Y72614D01*
X268997Y72756D01*
X269052Y72887D01*
X269107Y73008D01*
X269161Y73106D01*
X269205Y73182D01*
X269249Y73259D01*
X269282Y73313D01*
X269314Y73346D01*
X269325Y73368D01*
X269336Y73379D01*
X269446Y73499D01*
X269566Y73598D01*
X269697Y73685D01*
X269817Y73762D01*
X269948Y73827D01*
X270079Y73871D01*
X270320Y73958D01*
X270539Y74002D01*
X270626Y74013D01*
X270713Y74024D01*
X270779Y74035D01*
X270866D01*
X271041Y74024D01*
D02*
G37*
%LPC*%
G36*
X255849Y124806D02*
X255717D01*
X255324Y124795D01*
X254974Y124751D01*
X254821Y124718D01*
X254668Y124685D01*
X254526Y124653D01*
X254406Y124620D01*
X254297Y124576D01*
X254187Y124543D01*
X254111Y124511D01*
X254034Y124489D01*
X253980Y124456D01*
X253936Y124445D01*
X253914Y124423D01*
X253903D01*
X253564Y124226D01*
X253422Y124106D01*
X253280Y123997D01*
X253149Y123877D01*
X253029Y123756D01*
X252919Y123636D01*
X252821Y123527D01*
X252745Y123417D01*
X252668Y123319D01*
X252602Y123232D01*
X252548Y123155D01*
X252515Y123090D01*
X252482Y123046D01*
X252471Y123013D01*
X252460Y123002D01*
X252373Y122827D01*
X252296Y122652D01*
X252176Y122292D01*
X252089Y121931D01*
X252034Y121614D01*
X252012Y121461D01*
X251990Y121330D01*
X251979Y121210D01*
Y121100D01*
X251969Y121024D01*
Y120904D01*
X251990Y120499D01*
X252034Y120128D01*
X252111Y119789D01*
X252143Y119625D01*
X252187Y119483D01*
X252231Y119352D01*
X252264Y119231D01*
X252307Y119133D01*
X252340Y119045D01*
X252362Y118980D01*
X252384Y118925D01*
X252406Y118893D01*
Y118882D01*
X252591Y118554D01*
X252799Y118270D01*
X253018Y118018D01*
X253236Y117821D01*
X253335Y117734D01*
X253433Y117657D01*
X253510Y117592D01*
X253586Y117548D01*
X253641Y117504D01*
X253695Y117472D01*
X253717Y117461D01*
X253728Y117450D01*
X253903Y117362D01*
X254067Y117286D01*
X254428Y117166D01*
X254778Y117078D01*
X255095Y117024D01*
X255247Y117002D01*
X255379Y116980D01*
X255499Y116969D01*
X255608D01*
X255685Y116958D01*
X255805D01*
X256155Y116969D01*
X256483Y117013D01*
X256800Y117067D01*
X257073Y117133D01*
X257193Y117166D01*
X257302Y117198D01*
X257401Y117231D01*
X257488Y117253D01*
X257554Y117275D01*
X257597Y117297D01*
X257630Y117308D01*
X257641D01*
X257969Y117439D01*
X258242Y117581D01*
X258483Y117723D01*
X258691Y117843D01*
X258843Y117953D01*
X258898Y117996D01*
X258953Y118040D01*
X258986Y118073D01*
X259018Y118095D01*
X259040Y118116D01*
Y121155D01*
X255750D01*
Y119876D01*
X257499D01*
Y118903D01*
X257368Y118805D01*
X257226Y118718D01*
X257084Y118641D01*
X256953Y118576D01*
X256843Y118521D01*
X256745Y118477D01*
X256690Y118455D01*
X256679Y118444D01*
X256668D01*
X256493Y118379D01*
X256319Y118335D01*
X256155Y118302D01*
X256013Y118280D01*
X255881Y118270D01*
X255794Y118259D01*
X255707D01*
X255532Y118270D01*
X255357Y118291D01*
X255204Y118324D01*
X255051Y118368D01*
X254778Y118477D01*
X254668Y118532D01*
X254559Y118597D01*
X254461Y118663D01*
X254373Y118718D01*
X254308Y118783D01*
X254242Y118827D01*
X254198Y118871D01*
X254165Y118903D01*
X254144Y118925D01*
X254133Y118936D01*
X254034Y119067D01*
X253936Y119220D01*
X253859Y119373D01*
X253794Y119537D01*
X253684Y119876D01*
X253619Y120204D01*
X253597Y120357D01*
X253575Y120510D01*
X253564Y120630D01*
X253553Y120751D01*
X253542Y120838D01*
Y120915D01*
Y120958D01*
Y120969D01*
X253553Y121199D01*
X253564Y121406D01*
X253597Y121614D01*
X253630Y121800D01*
X253674Y121964D01*
X253728Y122117D01*
X253783Y122259D01*
X253837Y122390D01*
X253881Y122499D01*
X253936Y122598D01*
X253991Y122674D01*
X254034Y122740D01*
X254067Y122794D01*
X254100Y122827D01*
X254111Y122849D01*
X254122Y122860D01*
X254242Y122969D01*
X254362Y123079D01*
X254493Y123155D01*
X254625Y123232D01*
X254756Y123297D01*
X254887Y123352D01*
X255138Y123428D01*
X255258Y123450D01*
X255368Y123472D01*
X255466Y123483D01*
X255554Y123494D01*
X255619Y123505D01*
X255717D01*
X255958Y123494D01*
X256166Y123450D01*
X256351Y123407D01*
X256515Y123341D01*
X256636Y123286D01*
X256734Y123232D01*
X256789Y123188D01*
X256810Y123177D01*
X256963Y123046D01*
X257095Y122904D01*
X257204Y122762D01*
X257280Y122620D01*
X257346Y122488D01*
X257390Y122390D01*
X257412Y122325D01*
X257423Y122314D01*
Y122303D01*
X258942Y122587D01*
X258898Y122773D01*
X258833Y122959D01*
X258767Y123122D01*
X258680Y123275D01*
X258603Y123428D01*
X258516Y123560D01*
X258428Y123680D01*
X258341Y123789D01*
X258253Y123888D01*
X258177Y123975D01*
X258111Y124051D01*
X258046Y124106D01*
X257991Y124150D01*
X257947Y124194D01*
X257925Y124205D01*
X257914Y124215D01*
X257761Y124325D01*
X257597Y124412D01*
X257423Y124489D01*
X257237Y124554D01*
X256876Y124664D01*
X256526Y124729D01*
X256362Y124762D01*
X256209Y124773D01*
X256067Y124784D01*
X255947Y124795D01*
X255849Y124806D01*
D02*
G37*
G36*
X279108Y124707D02*
X277927D01*
X277818Y124456D01*
X277676Y124226D01*
X277523Y124008D01*
X277370Y123833D01*
X277239Y123691D01*
X277118Y123582D01*
X277075Y123538D01*
X277042Y123505D01*
X277020Y123494D01*
X277009Y123483D01*
X276769Y123308D01*
X276539Y123155D01*
X276331Y123035D01*
X276146Y122948D01*
X275993Y122882D01*
X275883Y122827D01*
X275840Y122816D01*
X275807Y122806D01*
X275796Y122794D01*
X275785D01*
Y121483D01*
X276179Y121636D01*
X276528Y121800D01*
X276692Y121887D01*
X276845Y121986D01*
X276987Y122073D01*
X277118Y122161D01*
X277239Y122248D01*
X277348Y122325D01*
X277435Y122390D01*
X277512Y122456D01*
X277577Y122510D01*
X277621Y122543D01*
X277643Y122565D01*
X277654Y122576D01*
Y117100D01*
X279108D01*
Y124707D01*
D02*
G37*
G36*
X263248Y124664D02*
X260461D01*
Y117100D01*
X261991D01*
Y119953D01*
X263347D01*
X263511Y119964D01*
X263664D01*
X263806Y119975D01*
X263937Y119985D01*
X264057Y119997D01*
X264156Y120007D01*
X264254D01*
X264330Y120018D01*
X264407Y120029D01*
X264461Y120040D01*
X264505D01*
X264538Y120051D01*
X264560D01*
X264713Y120095D01*
X264855Y120150D01*
X264986Y120204D01*
X265106Y120270D01*
X265205Y120324D01*
X265281Y120368D01*
X265325Y120401D01*
X265347Y120412D01*
X265489Y120521D01*
X265609Y120641D01*
X265729Y120773D01*
X265817Y120882D01*
X265893Y120991D01*
X265948Y121079D01*
X265981Y121133D01*
X265992Y121155D01*
X266079Y121341D01*
X266145Y121538D01*
X266188Y121745D01*
X266221Y121931D01*
X266243Y122084D01*
Y122161D01*
X266254Y122215D01*
Y122336D01*
X266232Y122652D01*
X266188Y122948D01*
X266112Y123188D01*
X266035Y123407D01*
X265992Y123494D01*
X265948Y123571D01*
X265915Y123636D01*
X265872Y123702D01*
X265850Y123745D01*
X265828Y123778D01*
X265806Y123789D01*
Y123800D01*
X265631Y123997D01*
X265456Y124161D01*
X265270Y124292D01*
X265106Y124390D01*
X264953Y124456D01*
X264833Y124511D01*
X264789Y124522D01*
X264757Y124532D01*
X264735Y124543D01*
X264724D01*
X264636Y124565D01*
X264527Y124587D01*
X264396Y124598D01*
X264265Y124609D01*
X263959Y124631D01*
X263653Y124653D01*
X263369D01*
X263248Y124664D01*
D02*
G37*
G36*
X270921Y124806D02*
X270845D01*
X270517Y124795D01*
X270200Y124762D01*
X269927Y124707D01*
X269686Y124653D01*
X269588Y124620D01*
X269489Y124598D01*
X269413Y124576D01*
X269347Y124543D01*
X269292Y124532D01*
X269249Y124511D01*
X269227Y124500D01*
X269216D01*
X269019Y124412D01*
X268833Y124303D01*
X268670Y124183D01*
X268527Y124073D01*
X268407Y123975D01*
X268309Y123888D01*
X268254Y123833D01*
X268243Y123822D01*
X268232Y123811D01*
X268079Y123636D01*
X267937Y123450D01*
X267817Y123286D01*
X267719Y123122D01*
X267642Y122980D01*
X267577Y122871D01*
X267566Y122827D01*
X267544Y122794D01*
X267533Y122784D01*
Y122773D01*
X267424Y122467D01*
X267336Y122139D01*
X267281Y121811D01*
X267238Y121505D01*
X267227Y121363D01*
X267216Y121231D01*
X267205Y121122D01*
Y121024D01*
X267194Y120936D01*
Y120827D01*
X267205Y120499D01*
X267238Y120182D01*
X267281Y119887D01*
X267347Y119614D01*
X267424Y119362D01*
X267511Y119133D01*
X267598Y118914D01*
X267697Y118729D01*
X267784Y118554D01*
X267872Y118412D01*
X267959Y118280D01*
X268036Y118171D01*
X268101Y118095D01*
X268145Y118029D01*
X268178Y117996D01*
X268189Y117985D01*
X268385Y117799D01*
X268593Y117647D01*
X268801Y117504D01*
X269030Y117395D01*
X269249Y117297D01*
X269478Y117209D01*
X269686Y117144D01*
X269905Y117089D01*
X270101Y117045D01*
X270287Y117013D01*
X270451Y116991D01*
X270593Y116980D01*
X270703Y116969D01*
X270790Y116958D01*
X270866D01*
X271172Y116969D01*
X271457Y117002D01*
X271730Y117056D01*
X271981Y117122D01*
X272222Y117198D01*
X272440Y117286D01*
X272637Y117373D01*
X272823Y117472D01*
X272976Y117570D01*
X273118Y117657D01*
X273238Y117745D01*
X273337Y117821D01*
X273424Y117887D01*
X273479Y117942D01*
X273512Y117974D01*
X273522Y117985D01*
X273697Y118193D01*
X273850Y118412D01*
X273992Y118641D01*
X274102Y118871D01*
X274200Y119111D01*
X274288Y119352D01*
X274353Y119592D01*
X274408Y119822D01*
X274441Y120029D01*
X274473Y120237D01*
X274495Y120412D01*
X274517Y120565D01*
Y120696D01*
X274528Y120794D01*
Y120871D01*
X274517Y121210D01*
X274484Y121527D01*
X274441Y121822D01*
X274375Y122106D01*
X274299Y122357D01*
X274211Y122598D01*
X274124Y122816D01*
X274025Y123002D01*
X273927Y123177D01*
X273839Y123330D01*
X273752Y123461D01*
X273675Y123571D01*
X273621Y123647D01*
X273566Y123713D01*
X273533Y123745D01*
X273522Y123756D01*
X273326Y123942D01*
X273118Y124106D01*
X272899Y124248D01*
X272681Y124369D01*
X272451Y124467D01*
X272233Y124554D01*
X272014Y124620D01*
X271806Y124674D01*
X271610Y124718D01*
X271424Y124751D01*
X271260Y124773D01*
X271118Y124795D01*
X271009D01*
X270921Y124806D01*
D02*
G37*
%LPD*%
G36*
X263237Y123374D02*
X263336D01*
X263434Y123363D01*
X263576D01*
X263685Y123352D01*
X263762Y123341D01*
X263806Y123330D01*
X263817D01*
X263948Y123297D01*
X264068Y123254D01*
X264177Y123199D01*
X264265Y123133D01*
X264330Y123079D01*
X264385Y123035D01*
X264418Y123002D01*
X264429Y122991D01*
X264516Y122882D01*
X264571Y122773D01*
X264615Y122652D01*
X264647Y122543D01*
X264669Y122445D01*
X264680Y122368D01*
Y122325D01*
Y122303D01*
X264669Y122182D01*
X264658Y122073D01*
X264625Y121975D01*
X264593Y121887D01*
X264560Y121811D01*
X264538Y121756D01*
X264516Y121723D01*
X264505Y121713D01*
X264440Y121625D01*
X264352Y121548D01*
X264276Y121483D01*
X264199Y121428D01*
X264134Y121396D01*
X264079Y121363D01*
X264035Y121352D01*
X264024Y121341D01*
X263959Y121319D01*
X263882Y121308D01*
X263707Y121275D01*
X263511Y121253D01*
X263314Y121242D01*
X263117D01*
X263041Y121231D01*
X261991D01*
Y123385D01*
X263128D01*
X263237Y123374D01*
D02*
G37*
G36*
X271041Y123494D02*
X271205Y123472D01*
X271358Y123450D01*
X271500Y123407D01*
X271752Y123297D01*
X271872Y123243D01*
X271970Y123188D01*
X272069Y123122D01*
X272145Y123068D01*
X272211Y123013D01*
X272276Y122959D01*
X272320Y122915D01*
X272353Y122893D01*
X272364Y122871D01*
X272375Y122860D01*
X272473Y122729D01*
X272571Y122587D01*
X272648Y122445D01*
X272714Y122281D01*
X272812Y121953D01*
X272878Y121636D01*
X272910Y121494D01*
X272921Y121352D01*
X272932Y121231D01*
X272943Y121122D01*
X272954Y121024D01*
Y120958D01*
Y120915D01*
Y120904D01*
X272943Y120663D01*
X272932Y120434D01*
X272899Y120226D01*
X272867Y120040D01*
X272823Y119854D01*
X272768Y119690D01*
X272714Y119548D01*
X272659Y119417D01*
X272604Y119297D01*
X272550Y119199D01*
X272506Y119111D01*
X272451Y119035D01*
X272418Y118980D01*
X272386Y118947D01*
X272375Y118925D01*
X272364Y118914D01*
X272255Y118794D01*
X272134Y118696D01*
X272003Y118608D01*
X271883Y118532D01*
X271752Y118477D01*
X271632Y118422D01*
X271391Y118346D01*
X271183Y118291D01*
X271096Y118280D01*
X271020Y118270D01*
X270954Y118259D01*
X270866D01*
X270703Y118270D01*
X270539Y118291D01*
X270386Y118324D01*
X270244Y118368D01*
X269981Y118466D01*
X269774Y118597D01*
X269675Y118652D01*
X269599Y118718D01*
X269522Y118772D01*
X269467Y118827D01*
X269424Y118860D01*
X269391Y118893D01*
X269369Y118914D01*
X269358Y118925D01*
X269260Y119056D01*
X269161Y119199D01*
X269085Y119352D01*
X269019Y119516D01*
X268910Y119833D01*
X268844Y120150D01*
X268823Y120302D01*
X268801Y120434D01*
X268790Y120565D01*
X268779Y120674D01*
X268768Y120762D01*
Y120827D01*
Y120871D01*
Y120882D01*
X268779Y121122D01*
X268790Y121341D01*
X268823Y121548D01*
X268855Y121745D01*
X268899Y121920D01*
X268943Y122084D01*
X268997Y122226D01*
X269052Y122357D01*
X269107Y122478D01*
X269161Y122576D01*
X269205Y122652D01*
X269249Y122729D01*
X269282Y122784D01*
X269314Y122816D01*
X269325Y122838D01*
X269336Y122849D01*
X269446Y122969D01*
X269566Y123068D01*
X269697Y123155D01*
X269817Y123232D01*
X269948Y123297D01*
X270079Y123341D01*
X270320Y123428D01*
X270539Y123472D01*
X270626Y123483D01*
X270713Y123494D01*
X270779Y123505D01*
X270866D01*
X271041Y123494D01*
D02*
G37*
%LPC*%
G36*
X180337Y137627D02*
X180206D01*
X179812Y137616D01*
X179462Y137572D01*
X179309Y137540D01*
X179156Y137507D01*
X179014Y137474D01*
X178894Y137441D01*
X178785Y137397D01*
X178675Y137365D01*
X178599Y137332D01*
X178523Y137310D01*
X178468Y137277D01*
X178424Y137266D01*
X178402Y137244D01*
X178391D01*
X178052Y137048D01*
X177910Y136927D01*
X177768Y136818D01*
X177637Y136698D01*
X177517Y136578D01*
X177408Y136457D01*
X177309Y136348D01*
X177233Y136239D01*
X177156Y136140D01*
X177091Y136053D01*
X177036Y135977D01*
X177003Y135911D01*
X176970Y135867D01*
X176960Y135834D01*
X176948Y135824D01*
X176861Y135649D01*
X176785Y135474D01*
X176664Y135113D01*
X176577Y134752D01*
X176522Y134435D01*
X176500Y134282D01*
X176479Y134151D01*
X176468Y134031D01*
Y133922D01*
X176457Y133845D01*
Y133725D01*
X176479Y133320D01*
X176522Y132949D01*
X176599Y132610D01*
X176632Y132446D01*
X176675Y132304D01*
X176719Y132173D01*
X176752Y132053D01*
X176795Y131954D01*
X176828Y131867D01*
X176850Y131801D01*
X176872Y131747D01*
X176894Y131714D01*
Y131703D01*
X177080Y131375D01*
X177287Y131091D01*
X177506Y130839D01*
X177725Y130643D01*
X177823Y130555D01*
X177921Y130479D01*
X177998Y130413D01*
X178074Y130369D01*
X178129Y130326D01*
X178184Y130293D01*
X178206Y130282D01*
X178216Y130271D01*
X178391Y130184D01*
X178555Y130107D01*
X178916Y129987D01*
X179266Y129899D01*
X179583Y129845D01*
X179736Y129823D01*
X179867Y129801D01*
X179987Y129790D01*
X180096D01*
X180173Y129779D01*
X180293D01*
X180643Y129790D01*
X180971Y129834D01*
X181288Y129888D01*
X181561Y129954D01*
X181681Y129987D01*
X181790Y130020D01*
X181889Y130052D01*
X181976Y130074D01*
X182042Y130096D01*
X182086Y130118D01*
X182118Y130129D01*
X182129D01*
X182457Y130260D01*
X182730Y130402D01*
X182971Y130544D01*
X183179Y130665D01*
X183332Y130774D01*
X183386Y130817D01*
X183441Y130861D01*
X183474Y130894D01*
X183507Y130916D01*
X183528Y130938D01*
Y133976D01*
X180238D01*
Y132697D01*
X181987D01*
Y131725D01*
X181856Y131626D01*
X181714Y131539D01*
X181572Y131462D01*
X181441Y131397D01*
X181332Y131342D01*
X181233Y131298D01*
X181178Y131277D01*
X181167Y131266D01*
X181157D01*
X180982Y131200D01*
X180807Y131156D01*
X180643Y131124D01*
X180501Y131102D01*
X180370Y131091D01*
X180282Y131080D01*
X180195D01*
X180020Y131091D01*
X179845Y131113D01*
X179692Y131145D01*
X179539Y131189D01*
X179266Y131298D01*
X179156Y131353D01*
X179047Y131419D01*
X178949Y131484D01*
X178861Y131539D01*
X178796Y131605D01*
X178730Y131648D01*
X178686Y131692D01*
X178654Y131725D01*
X178632Y131747D01*
X178621Y131757D01*
X178523Y131889D01*
X178424Y132042D01*
X178348Y132195D01*
X178282Y132359D01*
X178173Y132697D01*
X178107Y133025D01*
X178085Y133178D01*
X178063Y133331D01*
X178052Y133452D01*
X178042Y133572D01*
X178031Y133659D01*
Y133736D01*
Y133780D01*
Y133791D01*
X178042Y134020D01*
X178052Y134228D01*
X178085Y134435D01*
X178118Y134621D01*
X178162Y134785D01*
X178216Y134938D01*
X178271Y135080D01*
X178326Y135211D01*
X178369Y135321D01*
X178424Y135419D01*
X178479Y135496D01*
X178523Y135561D01*
X178555Y135616D01*
X178588Y135649D01*
X178599Y135670D01*
X178610Y135681D01*
X178730Y135791D01*
X178850Y135900D01*
X178981Y135977D01*
X179113Y136053D01*
X179244Y136119D01*
X179375Y136173D01*
X179626Y136250D01*
X179747Y136272D01*
X179856Y136293D01*
X179954Y136304D01*
X180042Y136315D01*
X180107Y136326D01*
X180206D01*
X180446Y136315D01*
X180654Y136272D01*
X180840Y136228D01*
X181004Y136162D01*
X181124Y136108D01*
X181222Y136053D01*
X181277Y136009D01*
X181299Y135998D01*
X181452Y135867D01*
X181583Y135725D01*
X181692Y135583D01*
X181769Y135441D01*
X181834Y135310D01*
X181878Y135211D01*
X181900Y135146D01*
X181911Y135135D01*
Y135124D01*
X183430Y135408D01*
X183386Y135594D01*
X183321Y135780D01*
X183255Y135944D01*
X183168Y136097D01*
X183091Y136250D01*
X183004Y136381D01*
X182916Y136501D01*
X182829Y136610D01*
X182741Y136709D01*
X182665Y136796D01*
X182599Y136873D01*
X182534Y136927D01*
X182479Y136971D01*
X182435Y137015D01*
X182413Y137026D01*
X182403Y137037D01*
X182250Y137146D01*
X182086Y137233D01*
X181911Y137310D01*
X181725Y137375D01*
X181364Y137485D01*
X181015Y137550D01*
X180851Y137583D01*
X180698Y137594D01*
X180555Y137605D01*
X180435Y137616D01*
X180337Y137627D01*
D02*
G37*
G36*
X202492Y137529D02*
X202383D01*
X202197Y137518D01*
X202022Y137507D01*
X201683Y137452D01*
X201399Y137365D01*
X201268Y137321D01*
X201148Y137266D01*
X201038Y137223D01*
X200951Y137168D01*
X200863Y137124D01*
X200798Y137091D01*
X200743Y137048D01*
X200710Y137026D01*
X200689Y137015D01*
X200678Y137004D01*
X200557Y136895D01*
X200448Y136785D01*
X200350Y136654D01*
X200262Y136512D01*
X200131Y136228D01*
X200022Y135955D01*
X199989Y135812D01*
X199956Y135692D01*
X199923Y135583D01*
X199913Y135485D01*
X199891Y135397D01*
Y135343D01*
X199880Y135299D01*
Y135288D01*
X201322Y135146D01*
X201344Y135364D01*
X201388Y135550D01*
X201432Y135714D01*
X201486Y135834D01*
X201530Y135933D01*
X201574Y135998D01*
X201607Y136042D01*
X201618Y136053D01*
X201727Y136140D01*
X201847Y136206D01*
X201967Y136261D01*
X202087Y136293D01*
X202186Y136315D01*
X202273Y136326D01*
X202350D01*
X202514Y136315D01*
X202656Y136283D01*
X202776Y136239D01*
X202885Y136195D01*
X202962Y136151D01*
X203028Y136108D01*
X203060Y136075D01*
X203071Y136064D01*
X203159Y135955D01*
X203224Y135834D01*
X203268Y135714D01*
X203301Y135594D01*
X203323Y135485D01*
X203334Y135386D01*
Y135332D01*
Y135321D01*
Y135310D01*
X203323Y135146D01*
X203290Y134993D01*
X203235Y134840D01*
X203181Y134709D01*
X203126Y134588D01*
X203071Y134501D01*
X203038Y134446D01*
X203028Y134424D01*
X202984Y134359D01*
X202918Y134282D01*
X202831Y134184D01*
X202743Y134097D01*
X202547Y133889D01*
X202350Y133681D01*
X202153Y133484D01*
X202066Y133397D01*
X201978Y133331D01*
X201913Y133266D01*
X201869Y133222D01*
X201836Y133189D01*
X201825Y133178D01*
X201607Y132971D01*
X201410Y132774D01*
X201224Y132588D01*
X201060Y132424D01*
X200907Y132260D01*
X200776Y132107D01*
X200656Y131976D01*
X200557Y131845D01*
X200470Y131736D01*
X200393Y131637D01*
X200328Y131561D01*
X200284Y131484D01*
X200240Y131440D01*
X200219Y131397D01*
X200197Y131375D01*
Y131364D01*
X200055Y131113D01*
X199945Y130850D01*
X199858Y130610D01*
X199792Y130391D01*
X199749Y130194D01*
X199738Y130118D01*
X199727Y130052D01*
X199716Y129998D01*
X199705Y129954D01*
Y129921D01*
X204787D01*
Y131266D01*
X201902D01*
X201989Y131408D01*
X202087Y131528D01*
X202131Y131583D01*
X202164Y131626D01*
X202186Y131648D01*
X202197Y131659D01*
X202241Y131703D01*
X202284Y131757D01*
X202415Y131878D01*
X202557Y132020D01*
X202700Y132162D01*
X202842Y132293D01*
X202962Y132402D01*
X203006Y132446D01*
X203038Y132479D01*
X203060Y132490D01*
X203071Y132501D01*
X203312Y132730D01*
X203508Y132916D01*
X203672Y133091D01*
X203803Y133222D01*
X203902Y133331D01*
X203967Y133408D01*
X204011Y133463D01*
X204022Y133474D01*
X204164Y133659D01*
X204285Y133834D01*
X204383Y133998D01*
X204459Y134140D01*
X204525Y134260D01*
X204569Y134359D01*
X204591Y134414D01*
X204601Y134435D01*
X204667Y134610D01*
X204711Y134785D01*
X204744Y134949D01*
X204765Y135102D01*
X204776Y135222D01*
X204787Y135321D01*
Y135408D01*
X204776Y135572D01*
X204754Y135736D01*
X204733Y135889D01*
X204689Y136031D01*
X204580Y136283D01*
X204470Y136501D01*
X204405Y136600D01*
X204350Y136676D01*
X204295Y136752D01*
X204241Y136807D01*
X204197Y136851D01*
X204175Y136895D01*
X204153Y136906D01*
X204142Y136916D01*
X204022Y137026D01*
X203880Y137124D01*
X203749Y137201D01*
X203596Y137266D01*
X203312Y137375D01*
X203028Y137452D01*
X202896Y137474D01*
X202776Y137496D01*
X202667Y137507D01*
X202569Y137518D01*
X202492Y137529D01*
D02*
G37*
G36*
X187736Y137485D02*
X184949D01*
Y129921D01*
X186479D01*
Y132774D01*
X187835D01*
X187999Y132785D01*
X188152D01*
X188294Y132796D01*
X188425Y132807D01*
X188545Y132818D01*
X188644Y132829D01*
X188742D01*
X188819Y132840D01*
X188895Y132851D01*
X188950Y132861D01*
X188993D01*
X189026Y132872D01*
X189048D01*
X189201Y132916D01*
X189343Y132971D01*
X189474Y133025D01*
X189595Y133091D01*
X189693Y133146D01*
X189769Y133189D01*
X189813Y133222D01*
X189835Y133233D01*
X189977Y133342D01*
X190097Y133463D01*
X190218Y133594D01*
X190305Y133703D01*
X190382Y133812D01*
X190436Y133900D01*
X190469Y133954D01*
X190480Y133976D01*
X190567Y134162D01*
X190633Y134359D01*
X190677Y134566D01*
X190709Y134752D01*
X190731Y134905D01*
Y134982D01*
X190742Y135037D01*
Y135157D01*
X190720Y135474D01*
X190677Y135769D01*
X190600Y136009D01*
X190524Y136228D01*
X190480Y136315D01*
X190436Y136392D01*
X190403Y136457D01*
X190360Y136523D01*
X190338Y136567D01*
X190316Y136600D01*
X190294Y136610D01*
Y136621D01*
X190119Y136818D01*
X189944Y136982D01*
X189759Y137113D01*
X189595Y137212D01*
X189442Y137277D01*
X189321Y137332D01*
X189278Y137343D01*
X189245Y137354D01*
X189223Y137365D01*
X189212D01*
X189125Y137386D01*
X189015Y137408D01*
X188884Y137419D01*
X188753Y137430D01*
X188447Y137452D01*
X188141Y137474D01*
X187857D01*
X187736Y137485D01*
D02*
G37*
G36*
X195409Y137627D02*
X195333D01*
X195005Y137616D01*
X194688Y137583D01*
X194415Y137529D01*
X194174Y137474D01*
X194076Y137441D01*
X193977Y137419D01*
X193901Y137397D01*
X193835Y137365D01*
X193781Y137354D01*
X193737Y137332D01*
X193715Y137321D01*
X193704D01*
X193508Y137233D01*
X193322Y137124D01*
X193158Y137004D01*
X193016Y136895D01*
X192895Y136796D01*
X192797Y136709D01*
X192742Y136654D01*
X192731Y136643D01*
X192720Y136632D01*
X192568Y136457D01*
X192425Y136272D01*
X192305Y136108D01*
X192207Y135944D01*
X192130Y135802D01*
X192065Y135692D01*
X192054Y135649D01*
X192032Y135616D01*
X192021Y135605D01*
Y135594D01*
X191912Y135288D01*
X191824Y134960D01*
X191770Y134632D01*
X191726Y134326D01*
X191715Y134184D01*
X191704Y134053D01*
X191693Y133943D01*
Y133845D01*
X191682Y133758D01*
Y133648D01*
X191693Y133320D01*
X191726Y133003D01*
X191770Y132708D01*
X191835Y132435D01*
X191912Y132184D01*
X191999Y131954D01*
X192087Y131736D01*
X192185Y131550D01*
X192272Y131375D01*
X192360Y131233D01*
X192447Y131102D01*
X192524Y130992D01*
X192589Y130916D01*
X192633Y130850D01*
X192666Y130817D01*
X192677Y130807D01*
X192874Y130621D01*
X193081Y130468D01*
X193289Y130326D01*
X193518Y130216D01*
X193737Y130118D01*
X193967Y130031D01*
X194174Y129965D01*
X194393Y129910D01*
X194590Y129867D01*
X194775Y129834D01*
X194939Y129812D01*
X195081Y129801D01*
X195191Y129790D01*
X195278Y129779D01*
X195355D01*
X195661Y129790D01*
X195945Y129823D01*
X196218Y129877D01*
X196469Y129943D01*
X196710Y130020D01*
X196929Y130107D01*
X197125Y130194D01*
X197311Y130293D01*
X197464Y130391D01*
X197606Y130479D01*
X197727Y130566D01*
X197825Y130643D01*
X197912Y130708D01*
X197967Y130763D01*
X198000Y130796D01*
X198011Y130807D01*
X198186Y131014D01*
X198339Y131233D01*
X198481Y131462D01*
X198590Y131692D01*
X198688Y131932D01*
X198776Y132173D01*
X198841Y132413D01*
X198896Y132643D01*
X198929Y132851D01*
X198962Y133058D01*
X198983Y133233D01*
X199005Y133386D01*
Y133517D01*
X199016Y133616D01*
Y133692D01*
X199005Y134031D01*
X198972Y134348D01*
X198929Y134643D01*
X198863Y134927D01*
X198787Y135179D01*
X198699Y135419D01*
X198612Y135638D01*
X198513Y135824D01*
X198415Y135998D01*
X198328Y136151D01*
X198240Y136283D01*
X198164Y136392D01*
X198109Y136468D01*
X198054Y136534D01*
X198022Y136567D01*
X198011Y136578D01*
X197814Y136763D01*
X197606Y136927D01*
X197388Y137069D01*
X197169Y137190D01*
X196940Y137288D01*
X196721Y137375D01*
X196502Y137441D01*
X196295Y137496D01*
X196098Y137540D01*
X195912Y137572D01*
X195748Y137594D01*
X195606Y137616D01*
X195497D01*
X195409Y137627D01*
D02*
G37*
%LPD*%
G36*
X187725Y136195D02*
X187824D01*
X187922Y136184D01*
X188064D01*
X188174Y136173D01*
X188250Y136162D01*
X188294Y136151D01*
X188305D01*
X188436Y136119D01*
X188556Y136075D01*
X188665Y136020D01*
X188753Y135955D01*
X188819Y135900D01*
X188873Y135856D01*
X188906Y135824D01*
X188917Y135812D01*
X189004Y135703D01*
X189059Y135594D01*
X189103Y135474D01*
X189136Y135364D01*
X189157Y135266D01*
X189168Y135189D01*
Y135146D01*
Y135124D01*
X189157Y135004D01*
X189146Y134894D01*
X189114Y134796D01*
X189081Y134709D01*
X189048Y134632D01*
X189026Y134577D01*
X189004Y134545D01*
X188993Y134534D01*
X188928Y134446D01*
X188840Y134370D01*
X188764Y134304D01*
X188687Y134249D01*
X188622Y134217D01*
X188567Y134184D01*
X188523Y134173D01*
X188513Y134162D01*
X188447Y134140D01*
X188370Y134129D01*
X188196Y134097D01*
X187999Y134075D01*
X187802Y134064D01*
X187605D01*
X187529Y134053D01*
X186479D01*
Y136206D01*
X187616D01*
X187725Y136195D01*
D02*
G37*
G36*
X195529Y136315D02*
X195694Y136293D01*
X195846Y136272D01*
X195989Y136228D01*
X196240Y136119D01*
X196360Y136064D01*
X196459Y136009D01*
X196557Y135944D01*
X196634Y135889D01*
X196699Y135834D01*
X196765Y135780D01*
X196808Y135736D01*
X196841Y135714D01*
X196852Y135692D01*
X196863Y135681D01*
X196961Y135550D01*
X197060Y135408D01*
X197136Y135266D01*
X197202Y135102D01*
X197300Y134774D01*
X197366Y134457D01*
X197399Y134315D01*
X197409Y134173D01*
X197420Y134053D01*
X197431Y133943D01*
X197442Y133845D01*
Y133780D01*
Y133736D01*
Y133725D01*
X197431Y133484D01*
X197420Y133255D01*
X197388Y133047D01*
X197355Y132861D01*
X197311Y132676D01*
X197257Y132512D01*
X197202Y132370D01*
X197147Y132238D01*
X197092Y132118D01*
X197038Y132020D01*
X196994Y131932D01*
X196940Y131856D01*
X196907Y131801D01*
X196874Y131768D01*
X196863Y131747D01*
X196852Y131736D01*
X196743Y131615D01*
X196623Y131517D01*
X196491Y131430D01*
X196371Y131353D01*
X196240Y131298D01*
X196120Y131244D01*
X195879Y131167D01*
X195672Y131113D01*
X195584Y131102D01*
X195508Y131091D01*
X195442Y131080D01*
X195355D01*
X195191Y131091D01*
X195027Y131113D01*
X194874Y131145D01*
X194732Y131189D01*
X194469Y131288D01*
X194262Y131419D01*
X194163Y131473D01*
X194087Y131539D01*
X194010Y131594D01*
X193956Y131648D01*
X193912Y131681D01*
X193879Y131714D01*
X193857Y131736D01*
X193846Y131747D01*
X193748Y131878D01*
X193650Y132020D01*
X193573Y132173D01*
X193508Y132337D01*
X193398Y132654D01*
X193333Y132971D01*
X193311Y133124D01*
X193289Y133255D01*
X193278Y133386D01*
X193267Y133495D01*
X193256Y133583D01*
Y133648D01*
Y133692D01*
Y133703D01*
X193267Y133943D01*
X193278Y134162D01*
X193311Y134370D01*
X193343Y134566D01*
X193387Y134741D01*
X193431Y134905D01*
X193486Y135047D01*
X193540Y135179D01*
X193595Y135299D01*
X193650Y135397D01*
X193693Y135474D01*
X193737Y135550D01*
X193770Y135605D01*
X193803Y135638D01*
X193814Y135660D01*
X193825Y135670D01*
X193934Y135791D01*
X194054Y135889D01*
X194185Y135977D01*
X194305Y136053D01*
X194437Y136119D01*
X194568Y136162D01*
X194808Y136250D01*
X195027Y136293D01*
X195114Y136304D01*
X195202Y136315D01*
X195267Y136326D01*
X195355D01*
X195529Y136315D01*
D02*
G37*
%LPC*%
G36*
X110510Y137206D02*
X110379D01*
X109985Y137195D01*
X109636Y137151D01*
X109483Y137118D01*
X109330Y137085D01*
X109187Y137053D01*
X109067Y137020D01*
X108958Y136976D01*
X108849Y136943D01*
X108772Y136910D01*
X108696Y136889D01*
X108641Y136856D01*
X108597Y136845D01*
X108575Y136823D01*
X108564D01*
X108226Y136626D01*
X108084Y136506D01*
X107941Y136397D01*
X107810Y136277D01*
X107690Y136156D01*
X107581Y136036D01*
X107482Y135927D01*
X107406Y135818D01*
X107329Y135719D01*
X107264Y135632D01*
X107209Y135555D01*
X107176Y135490D01*
X107144Y135446D01*
X107133Y135413D01*
X107122Y135402D01*
X107034Y135227D01*
X106958Y135052D01*
X106838Y134692D01*
X106750Y134331D01*
X106695Y134014D01*
X106674Y133861D01*
X106652Y133730D01*
X106641Y133610D01*
Y133500D01*
X106630Y133424D01*
Y133304D01*
X106652Y132899D01*
X106695Y132528D01*
X106772Y132189D01*
X106805Y132025D01*
X106849Y131883D01*
X106892Y131752D01*
X106925Y131631D01*
X106969Y131533D01*
X107001Y131446D01*
X107023Y131380D01*
X107045Y131325D01*
X107067Y131292D01*
Y131282D01*
X107253Y130954D01*
X107461Y130669D01*
X107679Y130418D01*
X107898Y130221D01*
X107996Y130134D01*
X108095Y130057D01*
X108171Y129992D01*
X108247Y129948D01*
X108302Y129904D01*
X108357Y129872D01*
X108379Y129861D01*
X108390Y129850D01*
X108564Y129762D01*
X108729Y129686D01*
X109089Y129566D01*
X109439Y129478D01*
X109756Y129423D01*
X109909Y129402D01*
X110040Y129380D01*
X110160Y129369D01*
X110270D01*
X110346Y129358D01*
X110466D01*
X110816Y129369D01*
X111144Y129413D01*
X111461Y129467D01*
X111734Y129533D01*
X111854Y129566D01*
X111964Y129598D01*
X112062Y129631D01*
X112150Y129653D01*
X112215Y129675D01*
X112259Y129697D01*
X112292Y129708D01*
X112303D01*
X112630Y129839D01*
X112904Y129981D01*
X113144Y130123D01*
X113352Y130243D01*
X113505Y130352D01*
X113559Y130396D01*
X113614Y130440D01*
X113647Y130473D01*
X113680Y130495D01*
X113702Y130517D01*
Y133555D01*
X110412D01*
Y132276D01*
X112161D01*
Y131303D01*
X112029Y131205D01*
X111887Y131118D01*
X111745Y131041D01*
X111614Y130975D01*
X111505Y130921D01*
X111406Y130877D01*
X111352Y130855D01*
X111341Y130844D01*
X111330D01*
X111155Y130779D01*
X110980Y130735D01*
X110816Y130702D01*
X110674Y130680D01*
X110543Y130669D01*
X110455Y130659D01*
X110368D01*
X110193Y130669D01*
X110018Y130691D01*
X109865Y130724D01*
X109712Y130768D01*
X109439Y130877D01*
X109330Y130932D01*
X109220Y130997D01*
X109122Y131063D01*
X109035Y131118D01*
X108969Y131183D01*
X108903Y131227D01*
X108860Y131271D01*
X108827Y131303D01*
X108805Y131325D01*
X108794Y131336D01*
X108696Y131467D01*
X108597Y131620D01*
X108521Y131773D01*
X108455Y131937D01*
X108346Y132276D01*
X108280Y132604D01*
X108258Y132757D01*
X108237Y132910D01*
X108226Y133030D01*
X108215Y133151D01*
X108204Y133238D01*
Y133315D01*
Y133358D01*
Y133369D01*
X108215Y133599D01*
X108226Y133806D01*
X108258Y134014D01*
X108291Y134200D01*
X108335Y134364D01*
X108390Y134517D01*
X108444Y134659D01*
X108499Y134790D01*
X108543Y134899D01*
X108597Y134998D01*
X108652Y135074D01*
X108696Y135140D01*
X108729Y135195D01*
X108761Y135227D01*
X108772Y135249D01*
X108783Y135260D01*
X108903Y135369D01*
X109024Y135479D01*
X109155Y135555D01*
X109286Y135632D01*
X109417Y135697D01*
X109548Y135752D01*
X109800Y135828D01*
X109920Y135850D01*
X110029Y135872D01*
X110127Y135883D01*
X110215Y135894D01*
X110281Y135905D01*
X110379D01*
X110619Y135894D01*
X110827Y135850D01*
X111013Y135807D01*
X111177Y135741D01*
X111297Y135686D01*
X111395Y135632D01*
X111450Y135588D01*
X111472Y135577D01*
X111625Y135446D01*
X111756Y135304D01*
X111865Y135162D01*
X111942Y135020D01*
X112007Y134889D01*
X112051Y134790D01*
X112073Y134724D01*
X112084Y134714D01*
Y134703D01*
X113603Y134987D01*
X113559Y135173D01*
X113494Y135359D01*
X113428Y135522D01*
X113341Y135676D01*
X113264Y135828D01*
X113177Y135960D01*
X113090Y136080D01*
X113002Y136189D01*
X112915Y136287D01*
X112838Y136375D01*
X112773Y136451D01*
X112707Y136506D01*
X112652Y136550D01*
X112609Y136594D01*
X112587Y136604D01*
X112576Y136615D01*
X112423Y136725D01*
X112259Y136812D01*
X112084Y136889D01*
X111898Y136954D01*
X111538Y137064D01*
X111188Y137129D01*
X111024Y137162D01*
X110871Y137173D01*
X110729Y137184D01*
X110608Y137195D01*
X110510Y137206D01*
D02*
G37*
G36*
X133769Y137107D02*
X132589D01*
X132479Y136856D01*
X132337Y136626D01*
X132184Y136408D01*
X132031Y136233D01*
X131900Y136091D01*
X131780Y135982D01*
X131736Y135938D01*
X131703Y135905D01*
X131682Y135894D01*
X131670Y135883D01*
X131430Y135708D01*
X131201Y135555D01*
X130993Y135435D01*
X130807Y135348D01*
X130654Y135282D01*
X130545Y135227D01*
X130501Y135216D01*
X130468Y135205D01*
X130457Y135195D01*
X130446D01*
Y133883D01*
X130840Y134036D01*
X131190Y134200D01*
X131354Y134287D01*
X131507Y134386D01*
X131649Y134473D01*
X131780Y134561D01*
X131900Y134648D01*
X132009Y134724D01*
X132097Y134790D01*
X132173Y134856D01*
X132239Y134910D01*
X132283Y134943D01*
X132305Y134965D01*
X132315Y134976D01*
Y129500D01*
X133769D01*
Y137107D01*
D02*
G37*
G36*
X117910Y137064D02*
X115122D01*
Y129500D01*
X116653D01*
Y132353D01*
X118008D01*
X118172Y132364D01*
X118325D01*
X118467Y132375D01*
X118598Y132386D01*
X118719Y132396D01*
X118817Y132407D01*
X118915D01*
X118992Y132418D01*
X119068Y132429D01*
X119123Y132440D01*
X119167D01*
X119199Y132451D01*
X119221D01*
X119374Y132495D01*
X119516Y132550D01*
X119648Y132604D01*
X119768Y132670D01*
X119866Y132724D01*
X119943Y132768D01*
X119986Y132801D01*
X120008Y132812D01*
X120150Y132921D01*
X120271Y133041D01*
X120391Y133173D01*
X120478Y133282D01*
X120555Y133391D01*
X120609Y133478D01*
X120642Y133533D01*
X120653Y133555D01*
X120740Y133741D01*
X120806Y133938D01*
X120850Y134145D01*
X120883Y134331D01*
X120905Y134484D01*
Y134561D01*
X120915Y134615D01*
Y134736D01*
X120894Y135052D01*
X120850Y135348D01*
X120773Y135588D01*
X120697Y135807D01*
X120653Y135894D01*
X120609Y135971D01*
X120577Y136036D01*
X120533Y136102D01*
X120511Y136145D01*
X120489Y136178D01*
X120467Y136189D01*
Y136200D01*
X120292Y136397D01*
X120117Y136561D01*
X119932Y136692D01*
X119768Y136790D01*
X119615Y136856D01*
X119494Y136910D01*
X119451Y136922D01*
X119418Y136932D01*
X119396Y136943D01*
X119385D01*
X119298Y136965D01*
X119188Y136987D01*
X119057Y136998D01*
X118926Y137009D01*
X118620Y137031D01*
X118314Y137053D01*
X118030D01*
X117910Y137064D01*
D02*
G37*
G36*
X125583Y137206D02*
X125506D01*
X125178Y137195D01*
X124861Y137162D01*
X124588Y137107D01*
X124347Y137053D01*
X124249Y137020D01*
X124151Y136998D01*
X124074Y136976D01*
X124009Y136943D01*
X123954Y136932D01*
X123910Y136910D01*
X123888Y136900D01*
X123877D01*
X123681Y136812D01*
X123495Y136703D01*
X123331Y136583D01*
X123189Y136473D01*
X123069Y136375D01*
X122970Y136287D01*
X122916Y136233D01*
X122905Y136222D01*
X122894Y136211D01*
X122741Y136036D01*
X122599Y135850D01*
X122478Y135686D01*
X122380Y135522D01*
X122303Y135380D01*
X122238Y135271D01*
X122227Y135227D01*
X122205Y135195D01*
X122194Y135184D01*
Y135173D01*
X122085Y134867D01*
X121997Y134539D01*
X121943Y134211D01*
X121899Y133905D01*
X121888Y133763D01*
X121877Y133632D01*
X121866Y133522D01*
Y133424D01*
X121855Y133336D01*
Y133227D01*
X121866Y132899D01*
X121899Y132582D01*
X121943Y132287D01*
X122008Y132014D01*
X122085Y131763D01*
X122172Y131533D01*
X122260Y131314D01*
X122358Y131129D01*
X122446Y130954D01*
X122533Y130812D01*
X122620Y130680D01*
X122697Y130571D01*
X122763Y130495D01*
X122806Y130429D01*
X122839Y130396D01*
X122850Y130385D01*
X123047Y130200D01*
X123254Y130046D01*
X123462Y129904D01*
X123692Y129795D01*
X123910Y129697D01*
X124140Y129609D01*
X124347Y129544D01*
X124566Y129489D01*
X124763Y129445D01*
X124949Y129413D01*
X125112Y129391D01*
X125255Y129380D01*
X125364Y129369D01*
X125451Y129358D01*
X125528D01*
X125834Y129369D01*
X126118Y129402D01*
X126391Y129456D01*
X126643Y129522D01*
X126883Y129598D01*
X127102Y129686D01*
X127298Y129773D01*
X127484Y129872D01*
X127637Y129970D01*
X127779Y130057D01*
X127900Y130145D01*
X127998Y130221D01*
X128085Y130287D01*
X128140Y130342D01*
X128173Y130374D01*
X128184Y130385D01*
X128359Y130593D01*
X128512Y130812D01*
X128654Y131041D01*
X128763Y131271D01*
X128861Y131511D01*
X128949Y131752D01*
X129015Y131992D01*
X129069Y132222D01*
X129102Y132429D01*
X129135Y132637D01*
X129157Y132812D01*
X129179Y132965D01*
Y133096D01*
X129189Y133194D01*
Y133271D01*
X129179Y133610D01*
X129146Y133927D01*
X129102Y134222D01*
X129036Y134506D01*
X128960Y134757D01*
X128873Y134998D01*
X128785Y135216D01*
X128687Y135402D01*
X128588Y135577D01*
X128501Y135730D01*
X128413Y135861D01*
X128337Y135971D01*
X128282Y136047D01*
X128228Y136113D01*
X128195Y136145D01*
X128184Y136156D01*
X127987Y136342D01*
X127779Y136506D01*
X127561Y136648D01*
X127342Y136768D01*
X127113Y136867D01*
X126894Y136954D01*
X126675Y137020D01*
X126468Y137074D01*
X126271Y137118D01*
X126085Y137151D01*
X125921Y137173D01*
X125779Y137195D01*
X125670D01*
X125583Y137206D01*
D02*
G37*
%LPD*%
G36*
X117899Y135774D02*
X117997D01*
X118096Y135763D01*
X118238D01*
X118347Y135752D01*
X118423Y135741D01*
X118467Y135730D01*
X118478D01*
X118609Y135697D01*
X118729Y135654D01*
X118839Y135599D01*
X118926Y135533D01*
X118992Y135479D01*
X119046Y135435D01*
X119079Y135402D01*
X119090Y135391D01*
X119177Y135282D01*
X119232Y135173D01*
X119276Y135052D01*
X119309Y134943D01*
X119331Y134845D01*
X119342Y134768D01*
Y134724D01*
Y134703D01*
X119331Y134582D01*
X119320Y134473D01*
X119287Y134375D01*
X119254Y134287D01*
X119221Y134211D01*
X119199Y134156D01*
X119177Y134123D01*
X119167Y134113D01*
X119101Y134025D01*
X119014Y133949D01*
X118937Y133883D01*
X118861Y133828D01*
X118795Y133795D01*
X118740Y133763D01*
X118697Y133752D01*
X118686Y133741D01*
X118620Y133719D01*
X118544Y133708D01*
X118369Y133675D01*
X118172Y133653D01*
X117975Y133642D01*
X117779D01*
X117702Y133632D01*
X116653D01*
Y135785D01*
X117789D01*
X117899Y135774D01*
D02*
G37*
G36*
X125703Y135894D02*
X125867Y135872D01*
X126020Y135850D01*
X126162Y135807D01*
X126413Y135697D01*
X126533Y135643D01*
X126632Y135588D01*
X126730Y135522D01*
X126807Y135468D01*
X126872Y135413D01*
X126938Y135359D01*
X126982Y135315D01*
X127014Y135293D01*
X127025Y135271D01*
X127036Y135260D01*
X127135Y135129D01*
X127233Y134987D01*
X127310Y134845D01*
X127375Y134681D01*
X127473Y134353D01*
X127539Y134036D01*
X127572Y133894D01*
X127583Y133752D01*
X127594Y133632D01*
X127605Y133522D01*
X127615Y133424D01*
Y133358D01*
Y133315D01*
Y133304D01*
X127605Y133063D01*
X127594Y132834D01*
X127561Y132626D01*
X127528Y132440D01*
X127484Y132254D01*
X127430Y132090D01*
X127375Y131948D01*
X127320Y131817D01*
X127266Y131697D01*
X127211Y131599D01*
X127167Y131511D01*
X127113Y131435D01*
X127080Y131380D01*
X127047Y131347D01*
X127036Y131325D01*
X127025Y131314D01*
X126916Y131194D01*
X126796Y131096D01*
X126665Y131008D01*
X126544Y130932D01*
X126413Y130877D01*
X126293Y130823D01*
X126052Y130746D01*
X125845Y130691D01*
X125757Y130680D01*
X125681Y130669D01*
X125615Y130659D01*
X125528D01*
X125364Y130669D01*
X125200Y130691D01*
X125047Y130724D01*
X124905Y130768D01*
X124643Y130866D01*
X124435Y130997D01*
X124337Y131052D01*
X124260Y131118D01*
X124183Y131172D01*
X124129Y131227D01*
X124085Y131260D01*
X124052Y131292D01*
X124030Y131314D01*
X124020Y131325D01*
X123921Y131456D01*
X123823Y131599D01*
X123746Y131752D01*
X123681Y131915D01*
X123571Y132232D01*
X123506Y132550D01*
X123484Y132703D01*
X123462Y132834D01*
X123451Y132965D01*
X123440Y133074D01*
X123429Y133162D01*
Y133227D01*
Y133271D01*
Y133282D01*
X123440Y133522D01*
X123451Y133741D01*
X123484Y133949D01*
X123517Y134145D01*
X123561Y134320D01*
X123604Y134484D01*
X123659Y134626D01*
X123714Y134757D01*
X123768Y134878D01*
X123823Y134976D01*
X123866Y135052D01*
X123910Y135129D01*
X123943Y135184D01*
X123976Y135216D01*
X123987Y135238D01*
X123998Y135249D01*
X124107Y135369D01*
X124227Y135468D01*
X124358Y135555D01*
X124479Y135632D01*
X124610Y135697D01*
X124741Y135741D01*
X124981Y135828D01*
X125200Y135872D01*
X125287Y135883D01*
X125375Y135894D01*
X125440Y135905D01*
X125528D01*
X125703Y135894D01*
D02*
G37*
D10*
X172492Y141000D02*
G03*
X172492Y141000I-492J0D01*
G01*
X87559Y86740D02*
G03*
X87559Y86740I-492J0D01*
G01*
X169449Y86760D02*
G03*
X169449Y86760I-492J0D01*
G01*
X275740Y78957D02*
G03*
X275740Y78957I-492J0D01*
G01*
X175402Y71447D02*
X177370D01*
X176386D01*
Y77351D01*
X175402Y76367D01*
X178138Y116723D02*
X174202D01*
X178138Y120659D01*
Y121642D01*
X177154Y122626D01*
X175186D01*
X174202Y121642D01*
X187221Y116723D02*
Y122626D01*
X184269Y119675D01*
X188205D01*
X212205Y117126D02*
X214173D01*
X213189D01*
Y123030D01*
X212205Y122046D01*
X217124D02*
X218108Y123030D01*
X220076D01*
X221060Y122046D01*
Y118110D01*
X220076Y117126D01*
X218108D01*
X217124Y118110D01*
Y122046D01*
X128937Y117323D02*
X130905D01*
X129921D01*
Y123226D01*
X128937Y122242D01*
X133857D02*
X134841Y123226D01*
X136809D01*
X137792Y122242D01*
Y118307D01*
X136809Y117323D01*
X134841D01*
X133857Y118307D01*
Y122242D01*
X105619Y117126D02*
Y123030D01*
X102667Y120078D01*
X106603D01*
X96536Y117126D02*
X92600D01*
X96536Y121062D01*
Y122046D01*
X95552Y123030D01*
X93584D01*
X92600Y122046D01*
X93800Y71850D02*
X95768D01*
X94784D01*
Y77754D01*
X93800Y76770D01*
D11*
X245571Y157677D02*
G03*
X245571Y157677I-197J0D01*
G01*
X155000Y156500D02*
X156000Y157500D01*
X155000Y158500D02*
X156000Y157500D01*
X155000Y156500D02*
Y158500D01*
X156000Y156500D02*
Y158500D01*
X292207Y101307D02*
X293207Y100307D01*
X294207Y101307D01*
X292207D02*
X294207D01*
X292207Y100307D02*
X294207D01*
D12*
X360748Y115157D02*
Y144685D01*
X301693Y115157D02*
X312795D01*
X301693Y144685D02*
X312795D01*
X301693Y115157D02*
Y144685D01*
X360650Y60039D02*
Y89567D01*
X301594Y60039D02*
X312697D01*
X301594Y89567D02*
X312697D01*
X301594Y60039D02*
Y89567D01*
X172736Y218134D02*
X202264D01*
Y159079D02*
Y170181D01*
X172736Y159079D02*
Y170181D01*
Y159079D02*
X202264D01*
X106236Y218134D02*
X135764D01*
Y159079D02*
Y170181D01*
X106236Y159079D02*
Y170181D01*
Y159079D02*
X135764D01*
X157653Y214610D02*
X158200D01*
X157653Y203390D02*
X158200Y203390D01*
X151654Y214610D02*
X152200D01*
X151654Y203390D02*
X152200Y203390D01*
X151654Y203400D02*
Y214600D01*
X158346Y203400D02*
Y214600D01*
X152000Y212000D02*
X158000D01*
X139000Y121500D02*
Y141500D01*
X140500D01*
X139000Y121500D02*
X140500D01*
X168500Y141500D02*
X170000D01*
X168500Y121500D02*
X170000D01*
Y141500D01*
X89567Y87244D02*
Y107244D01*
X90748D01*
X89567Y87244D02*
X90748D01*
X138386Y107244D02*
X139567D01*
X138386Y87244D02*
X139567D01*
Y107244D01*
X171457Y87264D02*
Y107264D01*
X172638D01*
X171457Y87264D02*
X172638D01*
X220276Y107264D02*
X221457D01*
X220276Y87264D02*
X221457D01*
Y107264D01*
X247622Y156693D02*
X248441D01*
X247622Y150394D02*
X248441D01*
X247622D02*
Y156693D01*
X248441Y150394D02*
Y156693D01*
X355810Y97400D02*
Y97947D01*
X344590D02*
X344590Y97400D01*
X355810Y103400D02*
Y103946D01*
X344590D02*
X344590Y103400D01*
X344600Y103946D02*
X355800D01*
X344600Y97254D02*
X355800D01*
X353200Y97600D02*
Y103600D01*
X255748Y111957D02*
X275748D01*
Y110457D02*
Y111957D01*
X255748Y110457D02*
Y111957D01*
X275748Y80957D02*
Y82457D01*
X255748Y80957D02*
Y82457D01*
Y80957D02*
X275748D01*
X388400Y147100D02*
Y151036D01*
X390368D01*
X391024Y150380D01*
Y149068D01*
X390368Y148412D01*
X388400D01*
X392336Y150380D02*
X392992Y151036D01*
X394304D01*
X394960Y150380D01*
Y149724D01*
X394304Y149068D01*
X394960Y148412D01*
Y147756D01*
X394304Y147100D01*
X392992D01*
X392336Y147756D01*
Y148412D01*
X392992Y149068D01*
X392336Y149724D01*
Y150380D01*
X392992Y149068D02*
X394304D01*
X63976Y216535D02*
Y220471D01*
X65944D01*
X66600Y219815D01*
Y218503D01*
X65944Y217847D01*
X63976D01*
X67912Y220471D02*
X70536D01*
Y219815D01*
X67912Y217191D01*
Y216535D01*
X167323Y47244D02*
Y51180D01*
X169291D01*
X169947Y50524D01*
Y49212D01*
X169291Y48556D01*
X167323D01*
X173882Y51180D02*
X171259D01*
Y49212D01*
X172571Y49868D01*
X173226D01*
X173882Y49212D01*
Y47900D01*
X173226Y47244D01*
X171915D01*
X171259Y47900D01*
X132565Y47244D02*
Y51180D01*
X134533D01*
X135189Y50524D01*
Y49212D01*
X134533Y48556D01*
X132565D01*
X138469Y47244D02*
Y51180D01*
X136501Y49212D01*
X139125D01*
X156600Y80100D02*
Y84036D01*
X158568D01*
X159224Y83380D01*
Y82068D01*
X158568Y81412D01*
X156600D01*
X160536Y83380D02*
X161192Y84036D01*
X162504D01*
X163160Y83380D01*
Y82724D01*
X162504Y82068D01*
X161848D01*
X162504D01*
X163160Y81412D01*
Y80756D01*
X162504Y80100D01*
X161192D01*
X160536Y80756D01*
X142900Y80100D02*
Y84036D01*
X144868D01*
X145524Y83380D01*
Y82068D01*
X144868Y81412D01*
X142900D01*
X149460Y80100D02*
X146836D01*
X149460Y82724D01*
Y83380D01*
X148804Y84036D01*
X147492D01*
X146836Y83380D01*
X386482Y53148D02*
X385170D01*
X385826D01*
Y49869D01*
X385170Y49213D01*
X384514D01*
X383858Y49869D01*
X390418Y49213D02*
X387794D01*
X390418Y51836D01*
Y52492D01*
X389762Y53148D01*
X388450D01*
X387794Y52492D01*
X244236Y50223D02*
X242924D01*
X243581D01*
Y46943D01*
X242924Y46287D01*
X242269D01*
X241613Y46943D01*
X245548Y46287D02*
X246860D01*
X246204D01*
Y50223D01*
X245548Y49567D01*
X243110Y94705D02*
Y98641D01*
X245078D01*
X245734Y97985D01*
Y96673D01*
X245078Y96017D01*
X243110D01*
X249670Y98641D02*
X248358Y97985D01*
X247046Y96673D01*
Y95361D01*
X247702Y94705D01*
X249014D01*
X249670Y95361D01*
Y96017D01*
X249014Y96673D01*
X247046D01*
X151200Y142913D02*
Y146849D01*
X153168D01*
X153824Y146193D01*
Y144881D01*
X153168Y144225D01*
X151200D01*
X155136Y142913D02*
X156448D01*
X155792D01*
Y146849D01*
X155136Y146193D01*
X296024Y133201D02*
X295368Y133857D01*
X294056D01*
X293400Y133201D01*
Y132545D01*
X294056Y131889D01*
X295368D01*
X296024Y131233D01*
Y130577D01*
X295368Y129921D01*
X294056D01*
X293400Y130577D01*
X299304Y129921D02*
Y133857D01*
X297336Y131889D01*
X299960D01*
X294947Y73162D02*
X294291Y73818D01*
X292979D01*
X292323Y73162D01*
Y72506D01*
X292979Y71850D01*
X294291D01*
X294947Y71194D01*
Y70538D01*
X294291Y69882D01*
X292979D01*
X292323Y70538D01*
X296259Y73162D02*
X296915Y73818D01*
X298226D01*
X298882Y73162D01*
Y72506D01*
X298226Y71850D01*
X297570D01*
X298226D01*
X298882Y71194D01*
Y70538D01*
X298226Y69882D01*
X296915D01*
X296259Y70538D01*
X187663Y156823D02*
X187007Y157479D01*
X185695D01*
X185039Y156823D01*
Y156167D01*
X185695Y155511D01*
X187007D01*
X187663Y154855D01*
Y154199D01*
X187007Y153543D01*
X185695D01*
X185039Y154199D01*
X191599Y153543D02*
X188975D01*
X191599Y156167D01*
Y156823D01*
X190943Y157479D01*
X189631D01*
X188975Y156823D01*
X120492Y156823D02*
X119836Y157479D01*
X118525D01*
X117869Y156823D01*
Y156167D01*
X118525Y155511D01*
X119836D01*
X120492Y154855D01*
Y154199D01*
X119836Y153543D01*
X118525D01*
X117869Y154199D01*
X121804Y153543D02*
X123116D01*
X122460D01*
Y157479D01*
X121804Y156823D01*
X321600Y102361D02*
Y98425D01*
X323568D01*
X324224Y99081D01*
Y101705D01*
X323568Y102361D01*
X321600D01*
X327504Y98425D02*
Y102361D01*
X325536Y100393D01*
X328160D01*
X291340Y111221D02*
X295276D01*
Y113188D01*
X294620Y113844D01*
X291996D01*
X291340Y113188D01*
Y111221D01*
X291996Y115156D02*
X291340Y115812D01*
Y117124D01*
X291996Y117780D01*
X292652D01*
X293308Y117124D01*
Y116468D01*
Y117124D01*
X293964Y117780D01*
X294620D01*
X295276Y117124D01*
Y115812D01*
X294620Y115156D01*
X156636Y199000D02*
X152700D01*
Y197032D01*
X153356Y196376D01*
X155980D01*
X156636Y197032D01*
Y199000D01*
X152700Y192440D02*
Y195064D01*
X155324Y192440D01*
X155980D01*
X156636Y193096D01*
Y194408D01*
X155980Y195064D01*
X153543Y166337D02*
Y162402D01*
X155511D01*
X156167Y163057D01*
Y165681D01*
X155511Y166337D01*
X153543D01*
X157479Y162402D02*
X158791D01*
X158135D01*
Y166337D01*
X157479Y165681D01*
X264764Y151575D02*
Y155510D01*
X266732D01*
X267388Y154855D01*
Y153543D01*
X266732Y152887D01*
X264764D01*
X266076D02*
X267388Y151575D01*
X270667D02*
Y155510D01*
X268700Y153543D01*
X271323D01*
X288500Y111221D02*
X284564D01*
Y113188D01*
X285220Y113844D01*
X286532D01*
X287188Y113188D01*
Y111221D01*
Y112532D02*
X288500Y113844D01*
X285220Y115156D02*
X284564Y115812D01*
Y117124D01*
X285220Y117780D01*
X285876D01*
X286532Y117124D01*
Y116468D01*
Y117124D01*
X287188Y117780D01*
X287844D01*
X288500Y117124D01*
Y115812D01*
X287844Y115156D01*
X235236Y161417D02*
Y165353D01*
X237204D01*
X237860Y164697D01*
Y163385D01*
X237204Y162729D01*
X235236D01*
X236548D02*
X237860Y161417D01*
X241796D02*
X239172D01*
X241796Y164041D01*
Y164697D01*
X241140Y165353D01*
X239828D01*
X239172Y164697D01*
X152700Y179134D02*
X156636D01*
Y177166D01*
X155980Y176510D01*
X154668D01*
X154012Y177166D01*
Y179134D01*
Y177822D02*
X152700Y176510D01*
Y175198D02*
Y173886D01*
Y174542D01*
X156636D01*
X155980Y175198D01*
X250655Y162073D02*
Y164697D01*
X249999Y165353D01*
X248688D01*
X248031Y164697D01*
Y162073D01*
X248688Y161417D01*
X249999D01*
X249343Y162729D02*
X250655Y161417D01*
X249999D02*
X250655Y162073D01*
X251967Y161417D02*
X253279D01*
X252623D01*
Y165353D01*
X251967Y164697D01*
D13*
X156765Y187659D02*
Y189037D01*
X152435D02*
X156765D01*
X152435Y187659D02*
Y189037D01*
X156765Y181163D02*
Y182541D01*
X152435Y181163D02*
X156765D01*
X152435D02*
Y182541D01*
X159043Y154547D02*
X161602D01*
Y160453D01*
X159043D02*
X161602D01*
X149398Y154547D02*
X151957D01*
X149398D02*
Y160453D01*
X151957D01*
X240748Y153347D02*
X242126D01*
Y157677D01*
X240748D02*
X242126D01*
X234252Y153347D02*
X235630D01*
X234252D02*
Y157677D01*
X235630D01*
X254063Y155665D02*
X255441D01*
X254063Y151335D02*
Y155665D01*
Y151335D02*
X255441D01*
X260559Y155665D02*
X261937D01*
Y151335D02*
Y155665D01*
X260559Y151335D02*
X261937D01*
X288265Y104059D02*
Y105437D01*
X283935D02*
X288265D01*
X283935Y104059D02*
Y105437D01*
X288265Y97563D02*
Y98941D01*
X283935Y97563D02*
X288265D01*
X283935D02*
Y98941D01*
X290254Y94705D02*
Y97264D01*
Y94705D02*
X296160D01*
Y97264D01*
X290254Y104350D02*
Y106909D01*
X296160D01*
Y104350D02*
Y106909D01*
D14*
X229400Y147000D02*
X239600D01*
X282900D02*
Y154900D01*
X271800Y147000D02*
X282900D01*
X374500Y142900D02*
X425197D01*
X374400Y143000D02*
X374500Y142900D01*
X374400Y143000D02*
Y154900D01*
X282900D02*
X374400D01*
X239600Y147000D02*
X271800D01*
X228400Y164800D02*
X228400Y47441D01*
Y164100D02*
Y226700D01*
X79300D02*
X228400D01*
X79300Y47441D02*
X79300Y226700D01*
D15*
X102067Y40329D02*
X104567Y45329D01*
X102067Y40329D02*
X107067D01*
X104567Y45329D02*
X107067Y40329D01*
X127567Y52789D02*
Y67289D01*
X101567Y52789D02*
Y67289D01*
X184252Y40920D02*
X186752Y45920D01*
X184252Y40920D02*
X189252D01*
X186752Y45920D02*
X189252Y40920D01*
X209752Y53380D02*
Y67880D01*
X183752Y53380D02*
Y67880D01*
D16*
X98425Y47244D02*
X99737D01*
X99081D01*
Y51180D01*
X98425Y50524D01*
X181102Y47244D02*
X182414D01*
X181758D01*
Y51180D01*
X181102Y50524D01*
D17*
X39370Y39370D02*
Y236221D01*
Y39370D02*
X433071D01*
Y236221D01*
X39370D02*
X433071D01*
M02*
