M48
;Layer_Color=9474304
;FILE_FORMAT=2:5
INCH,LZ
;TYPE=PLATED
T1F00S00C0.01575
T2F00S00C0.02800
T3F00S00C0.04000
;TYPE=NON_PLATED
T4F00S00C0.02756
T5F00S00C0.05118
T6F00S00C0.13386
%
T01
X0043307Y0043307
Y0059055
Y0074803
Y0094488
X0055118Y0100771
X0043307Y0114173
Y01375
X006811Y013189
Y0151181
X0084252
Y0144488
X0093701Y0147638
X0102362Y0142913
X0122835Y0144095
X0138996Y0143701
X0146399Y01535
X01542Y01375
X0148819Y0130315
X0145Y01255
X014252Y0120866
X01394Y01133
X0147638Y0114173
X0145Y01045
X0155Y0105905
X0134646Y0097264
X0124409Y0097244
X0114173
X0103937Y0097264
X00926Y0097
X0087402Y00901
X0104331Y0076772
X0112992Y0077165
X0124409Y0076772
X0134252Y007441
X0129921Y005315
Y0043307
X0145
X0114173
X0094488
X0082677
X0062559
X0065354Y0072835
X0090158Y0062205
X0098819Y0064567
X0099606Y0117717
X0093701Y01274
X00845Y0119291
X01096Y01106
X0119291Y0112598
X0129528Y0112992
X0122835Y0121074
X0125984Y0124516
X0132874Y0125798
X01613Y01245
X01649Y01178
X0167323Y0110457
X0166Y01045
X0174016Y0097264
X0183465Y0097244
X0194095Y0097264
X02065Y0097244
X0216535Y009685
X02326Y00967
X0238583Y0113779
X0234646Y0128347
X02306Y01244
X02303Y01323
X023Y01407
X0232796Y0145669
X0219957Y0145276
X0220079Y0136221
X0220472Y0128557
X0212598
X0212205Y0135827
X0201998Y0145204
X0194095Y0156189
X01751Y01518
X0166535Y0156204
X01643Y01496
X0158661Y0142913
X0172244Y0136221
Y0128557
X0179957Y0119095
X0190945Y011811
X020187Y0119291
X02112Y0114691
X0223228Y0118504
X0245374Y0127165
X0245276Y0139693
X0254331Y0148031
X0264173Y0128347
X0272748Y01354
X0281791Y0134646
X0289764Y0135433
X02984Y01274
X0308071Y0133858
X0308661Y0118504
X02991Y01091
X0289764Y01087
X0285039Y0094705
X0296063Y0093701
X03043Y00895
X03092Y00992
X0299213Y0076772
X0280315Y0080315
X0284074Y0067728
X02865Y00584
X03092Y0060039
X030315Y0043307
X0260236Y0056299
X02324Y00619
X0240158Y0073228
X0216535
X0206299Y0077165
X0196063
X0186614
X0181102Y0064961
X0177559Y0056102
X0181102Y0043307
X019685
X0216535
X0212598Y0053543
X0236221Y0043307
X01643
X01577Y00747
X0170472Y0080709
X016811Y0088976
X0261417Y00901
X0258748Y0107264
X0276772Y0101181
X0282579Y01247
X0287096Y01507
X0297638Y0144488
X0305906Y0152362
X0311417Y0147638
X0321654
X03427Y01496
Y01256
X0354985Y0127437
X0362992Y0112598
X0362205Y0099586
X0362992Y0086614
X0362554Y00744
X0362024Y00664
X0374016Y0070866
X03687Y0056
X0377953Y0043307
X0393701
X0409449
X042126
X0429134
Y00641
Y0082284
Y0098425
Y0114173
Y0129921
Y0141732
Y0153543
X0401968Y01528
X0397638Y0133858
X040748Y013189
Y0112205
Y0096457
Y007874
X0390748
X03855Y01019
X0390748Y0109252
X0373622Y010315
Y0092126
Y0120079
X0377953Y0133858
X0331449Y0134252
X032874Y01244
X03315Y011063
X0321654
Y009252
X0330315Y0101181
X0331102Y0082284
X0346063Y0086614
X0350394Y0101969
X0345472Y0060039
X03316Y0060583
X03216Y00606
X032185Y0043307
X034252
X0358268
X040748Y0061024
X0314173Y0073228
X0358661Y0159
X0381102Y01581
X03772Y01659
X03744Y01719
X03772Y01775
X03744Y01833
X03772Y01898
X03742Y019722
X03794Y0203937
X03744Y021
X03798Y02157
X0362554Y0215832
X0362205Y0232283
X034252
X03403Y02162
X03361Y021
X03333Y0204
X03364Y019722
X0337Y01896
X03216Y019722
X0317913Y02042
X0322835Y0232283
X038189
X0397638
X0413386
X0429134
Y0220472
Y02084
Y0192913
Y0181102
Y0165354
X0414567Y0159843
X040315Y0165748
X0402756Y0182677
X0402362Y0192913
X0402756Y0203937
Y0218504
X0414961Y0211417
Y0187068
X0308661Y0189961
X0306102Y01837
X02982Y01775
X03024Y01719
X02978Y01658
X02836
X02885Y01719
X02835Y01777
X0288Y01837
X02837Y01899
X0285039Y0210215
X02833Y02158
X02979Y02162
X0312008Y021
X030315Y0232283
X0282579
X02582
X0236221
X0212598
X02121Y0216
X0219957Y02102
X02182Y01971
X02237Y01897
X02321Y01835
X02377Y01776
X02439Y01718
X02456Y01659
X0244882Y0159843
X02322Y01595
X0220866Y0157373
X0212Y0156804
X02112Y01718
X02108Y01776
X0211Y01837
X0192Y01776
X01886Y01716
X01878Y01659
X01751
X01661Y016587
X015853Y01716
X01601Y01837
X01631Y0196558
X0161Y02102
X01621Y02161
X0169291Y0232283
X0188976
X01854Y02159
X01864Y02102
X01872Y01975
X01865Y01896
X01835Y01835
X0182283Y015683
X0264173Y0159
X02578Y01659
X02561Y01717
X02541Y01776
X02478Y01834
X02441Y01897
X0237Y01971
X02325Y02044
X0255906Y0204
X0256435Y0197
X0146399Y0196506
X01494Y01896
X01503Y0184
X01494Y01775
X0149606Y01716
X01512Y01659
X01413
X0140945Y0159449
X0128347Y0159843
X0112205
X01178Y01658
X012Y01718
X01201Y01838
X01153Y01896
X01248Y0196438
X01238Y021
X01228Y02158
X0129921Y0232283
X0113189
X0088583
X0094488Y02163
X0098Y02099
X0089821Y0196329
X00948Y01896
X0089822Y01838
X00885Y01776
X00796
X00792Y01718
Y01658
X0069Y01659
X00696Y01717
X00686Y01775
X00745Y01834
X00688Y01901
X0068898Y0198779
X00739Y02039
X00735Y021
X00734Y02157
X0064961Y0232283
X0043307
X00691Y01591
X00743Y01587
X0093701Y0159843
X0102362Y0157087
X0103347Y01659
X00938Y01716
X01267Y01777
X0149606Y0232283
T02
X0293307Y0139693
X03476Y0115551
X03377Y01005
X03685Y00925
Y0127437
X0345976Y0053543
X02934Y01593
X02582Y01587
T03
X03874Y01584
X03974
Y01684
X03874
Y01784
X03974
Y01884
X03874
Y01984
X03974
Y02084
X03874
Y02184
X03974
X00583Y02188
Y02088
Y01988
Y01888
Y01788
Y01688
Y01588
X00483
Y01688
Y01788
Y01888
Y01988
Y02088
Y02188
T04
X0265453Y0057087
X0281791
T05
X039685Y0082284
Y0101969
T06
X01527Y00618
X03512Y0199
M30
